<svg version="1.2" xmlns="http://www.w3.org/2000/svg" viewBox="0 0 1080 1080" width="1080" height="1080">
	<defs>
		<clipPath clipPathUnits="userSpaceOnUse" id="cp1">
			<path d="m862.27 611.85c-30.89-109.94-118.01-200.87-236.59-231.24-177.02-45.33-357.26 61.43-402.59 238.44-7.67 29.96-10.98 59.97-10.31 89.43 3.07 144.74 101.68 275.55 248.74 313.2 177.01 45.33 357.31-61.41 402.65-238.47 14.94-58.38 13.36-117.2-1.9-171.36z"/>
		</clipPath>
	</defs>
	<style>
		.s0 { fill: #e6e6e6 } 
		.s1 { fill: #e04a3e } 
		.s2 { fill: #f05042 } 
		.s3 { fill: #f0695e } 
		.s4 { fill: #f7931e } 
		.s5 { fill: #ffffff } 
	</style>
	<g id="&lt;Group&gt;">
		<g id="&lt;Group&gt;">
			<path id="&lt;Compound Path&gt;" fill-rule="evenodd" class="s0" d="m812.88 200.62c-18.72 73.13-93.18 117.23-166.31 98.5-73.13-18.72-117.23-93.18-98.51-166.31 18.73-73.13 93.19-117.23 166.32-98.51 73.12 18.73 117.23 93.19 98.5 166.32zm-20.01-5.13c15.89-62.07-21.54-125.28-83.62-141.17-62.07-15.9-125.28 21.54-141.17 83.61-15.9 62.08 21.54 125.28 83.61 141.18 62.08 15.89 125.28-21.54 141.18-83.62z"/>
			<g id="&lt;Group&gt;">
				<path id="&lt;Path&gt;" class="s1" d="m864.17 783.21c-45.34 177.06-225.64 283.8-402.65 238.47-147.06-37.65-245.67-168.46-248.74-313.2 30.9 109.94 117.95 200.92 236.58 231.29 177.02 45.33 357.27-61.47 402.6-238.49 7.67-29.95 10.99-59.97 10.31-89.43 15.26 54.16 16.84 112.98 1.9 171.36z"/>
				<path id="&lt;Path&gt;" class="s2" d="m851.96 701.28c-45.33 177.02-225.58 283.82-402.6 238.49-118.63-30.37-205.68-121.35-236.58-231.29-0.67-29.46 2.64-59.47 10.31-89.43 45.33-177.01 225.57-283.77 402.59-238.44 118.58 30.37 205.7 121.3 236.59 231.24 0.68 29.46-2.64 59.48-10.31 89.43z"/>
			</g>
			<path id="&lt;Path&gt;" class="s3" d="m393.97 530.91c62.01-52.39 138.64-70.31 197.3-52.02 12.2 3.8 23.07-9.07 16.61-20.1q-5.08-8.69-11.7-16.54c-55.09-65.2-169.68-58.98-255.93 13.9-86.26 72.87-111.52 184.81-56.43 250.02q0.13 0.14 0.25 0.29c8.37 9.84 24.36 3.42 24.35-9.49-0.08-56.31 30.14-119.24 85.55-166.06z"/>
			<g id="&lt;Group&gt;">
				<path id="&lt;Path&gt;" class="s4" d="m762.15 391.93l-12.94 50.51-15.22-3.89 9.9-38.66c1.41-5.54 0.43-11.16-2.3-15.71-2.67-4.58-7.13-8.14-12.67-9.56-11.07-2.83-22.48 3.88-25.32 14.95l-9.9 38.66-24.12-6.18 9.9-38.65c1.42-5.54 0.43-11.16-2.3-15.71-2.72-4.59-7.18-8.16-12.72-9.57-11.07-2.84-22.43 3.89-25.27 14.96l-9.9 38.66-24.17-6.19 9.9-38.66c1.42-5.53 0.43-11.16-2.25-15.69-2.72-4.59-7.18-8.16-12.72-9.58-11.07-2.83-22.43 3.9-25.27 14.97l-9.9 38.65-21.75-5.56 9.9-38.66c1.42-5.54 0.44-11.16-2.25-15.69-2.72-4.6-7.18-8.16-12.71-9.58-11.08-2.84-22.44 3.89-25.27 14.97l-9.9 38.65-15.23-3.9 12.94-50.52c8.35-32.62 41.88-52.48 74.5-44.12l142.91 36.59c32.63 8.35 52.48 41.88 44.13 74.51z"/>
				<path id="&lt;Path&gt;" class="s2" d="m550.78 335.33c2.69 4.53 3.67 10.15 2.25 15.69l-9.9 38.66-40.23-10.31 9.9-38.65c2.83-11.08 14.19-17.81 25.27-14.97 5.53 1.42 9.99 4.98 12.71 9.58z"/>
				<path id="&lt;Path&gt;" class="s2" d="m612.77 351.2c2.68 4.53 3.67 10.16 2.25 15.69l-9.9 38.66-40.24-10.31 9.9-38.65c2.84-11.07 14.2-17.8 25.27-14.97 5.54 1.42 10 4.99 12.72 9.58z"/>
				<path id="&lt;Path&gt;" class="s2" d="m677.18 367.69c2.73 4.55 3.72 10.17 2.3 15.71l-9.9 38.65-40.29-10.31 9.9-38.66c2.84-11.07 14.2-17.8 25.27-14.96 5.54 1.41 10 4.98 12.72 9.57z"/>
				<path id="&lt;Path&gt;" class="s2" d="m743.89 399.89l-9.9 38.66-40.29-10.32 9.9-38.66c2.84-11.07 14.25-17.78 25.32-14.95 5.54 1.42 10 4.98 12.67 9.56 2.73 4.55 3.71 10.17 2.3 15.71z"/>
			</g>
			<path id="&lt;Path&gt;" class="s4" d="m651.3 331.97l-24.67-6.32c-19.47-4.99-31.33-25-26.34-44.48 4.99-19.47 25-31.33 44.48-26.34l24.66 6.31c19.48 4.99 31.34 25.01 26.35 44.48-4.99 19.48-25 31.33-44.48 26.35z"/>
		</g>
		<g id="&lt;Clip Group&gt;" clip-path="url(#cp1)">
			<g id="&lt;Group&gt;">
				<path id="&lt;Compound Path&gt;" fill-rule="evenodd" class="s5" d="m605.42 628.13q-15.24 4.25-30.57 8.55-2.83 11.15-5.67 22.29 1.59 1.56 3.18 3.12 1.72 1.68 3.43 3.36 10.82-3.02 21.62-6.02 3.92-15.58 7.81-31.16 7.65-2.14 15.28-4.26 5.56 5.62 11.14 11.24-1.91 7.77-3.83 15.54 6.64-1.84 13.27-3.65 5.83 5.57 11.68 11.14-2.02 7.71-4.07 15.42-6.64 1.82-13.3 3.64 5.82 5.7 11.63 11.39-1.93 7.72-3.88 15.44-7.58 2-15.17 4.02 5.7 5.55 11.4 11.08-2.02 7.56-4.05 15.12-7.74 2.15-15.49 4.31 4.96 4.81 9.91 9.6-1.88 7.75-3.78 15.5-7.8 2.05-15.59 4.11-4.93-4.78-9.87-9.57-2.05 7.82-4.11 15.64-7.74 2.19-15.47 4.39-5.54-5.5-11.08-11.02-2.01 7.68-4.02 15.36-7.62 2.08-15.22 4.16-5.72-5.59-11.45-11.21-1.74 6.71-3.47 13.42-7.68 2.32-15.33 4.63-5.61-5.7-11.22-11.41 1.7-6.68 3.4-13.35-7.75 2.18-15.47 4.35-5.71-5.62-11.42-11.26 1.99-7.61 3.99-15.21-7.62 2.12-15.22 4.24-5.58-5.6-11.15-11.2 1.95-7.84 3.92-15.67-6.68 1.85-13.34 3.68-5.85-5.55-11.69-11.09 2.06-7.72 4.14-15.43 6.6-1.82 13.22-3.65-5.76-5.62-11.53-11.24 1.97-7.72 3.95-15.45 7.6-2.02 15.21-4.06-5.69-5.53-11.38-11.05 2.05-7.56 4.11-15.12 7.82-2.19 15.64-4.39-4.99-4.84-9.97-9.66 1.91-7.76 3.83-15.51 7.8-2.07 15.59-4.15 4.91 4.76 9.83 9.54 2.04-7.76 4.1-15.51 7.74-2.21 15.46-4.42 5.52 5.5 11.05 11.02-4.04 15.45-8.04 30.9 8.13 7.95 16.28 15.92 2.2-0.62 4.4-1.24 2.31-0.65 4.61-1.29 2.82-10.96 5.63-21.92-11.44-11.22-22.85-22.37 2.03-7.76 4.06-15.52 7.6-2.09 15.17-4.17 5.68 5.58 11.37 11.18 1.73-6.7 3.46-13.4 7.64-2.32 15.26-4.63 5.58 5.7 11.17 11.42-1.69 6.68-3.38 13.37 7.74-2.18 15.45-4.35 5.69 5.63 11.39 11.28-1.97 7.62-3.96 15.24zm-115.4 61.12q11.03-3.08 22.06-6.17 0.57-2.21 1.14-4.42 0.58-2.26 1.16-4.52-8.07-7.88-16.14-15.75-15.49 4.35-30.98 8.66 11.38 11.08 22.76 22.2zm30.3 48.98q2.84-11.14 5.69-22.27-1.61-1.57-3.22-3.15-1.67-1.63-3.34-3.26-10.9 3.05-21.79 6.09-3.96 15.56-7.89 31.13 15.25-4.25 30.55-8.54zm49.54 28.97q4.01-15.38 7.98-30.76-8.2-8-16.42-16.03-2.13 0.6-4.27 1.2-2.28 0.64-4.56 1.28-2.82 10.96-5.64 21.93 11.47 11.22 22.91 22.38zm35.21-81.36q-11 3.05-22.02 6.13-0.55 2.15-1.1 4.29-0.59 2.33-1.18 4.65 8.07 7.9 16.15 15.78 15.48-4.32 30.93-8.59-11.39-11.11-22.78-22.26z"/>
				<path id="&lt;Compound Path&gt;" fill-rule="evenodd" class="s5" d="m864.58 483.98q-0.84 7.42-1.74 14.82-12.92 2.66-26.16 5.59-1.46 10.92-3.03 21.8 1.57 1.69 3.15 3.38 1.7 1.83 3.41 3.65 9.5-2.08 18.84-4.02 1.93-15.11 3.62-30.28 6.49-1.34 12.88-2.61 5.5 6.23 11.04 12.45-0.72 7.5-1.5 14.99 5.63-1.09 11.2-2.11 5.79 6.19 11.62 12.38-0.79 7.36-1.65 14.71-5.64 1.02-11.36 2.09 5.84 6.25 11.71 12.48-0.8 7.36-1.66 14.71-6.59 1.14-13.26 2.34 5.77 6.02 11.56 12.02-0.99 7.17-2.04 14.33-6.86 1.31-13.79 2.69 5.05 5.16 10.12 10.3-0.95 7.36-1.96 14.69-7.06 1.27-14.19 2.6-5.06-5.06-10.11-10.14-1.23 7.45-2.52 14.89-7.13 1.52-14.32 3.09-5.69-5.75-11.37-11.53-1.34 7.37-2.74 14.72-7.14 1.53-14.34 3.11-5.86-5.8-11.71-11.62-1.27 6.48-2.58 12.95-7.31 1.86-14.67 3.77-5.74-5.83-11.46-11.69 1.36-6.48 2.68-12.98-7.38 1.8-14.82 3.63-5.78-5.77-11.55-11.55 1.65-7.45 3.26-14.92-7.26 1.81-14.56 3.66-5.6-5.74-11.18-11.5 1.64-7.75 3.25-15.51-6.35 1.62-12.73 3.28-5.81-5.72-11.6-11.43 1.79-7.7 3.54-15.4 6.27-1.65 12.5-3.26-5.69-5.86-11.35-11.71 1.61-7.74 3.19-15.49 7.09-1.78 14.12-3.53-5.57-5.83-11.12-11.64 1.6-7.6 3.17-15.2 7.15-1.9 14.24-3.76-4.85-5.16-9.67-10.31 1.37-7.82 2.71-15.65 7-1.73 13.93-3.41 4.74 5.14 9.5 10.3 1.36-7.77 2.69-15.55 6.81-1.77 13.53-3.48 5.34 6 10.72 12.01-2.4 15.39-4.96 30.73 7.95 8.56 15.98 17.14 1.96-0.47 3.91-0.93 2.05-0.49 4.09-0.96 1.69-10.79 3.29-21.6-11.22-12.22-22.28-24.38 1.2-7.72 2.37-15.46 6.56-1.54 13.03-3.02 5.5 6.15 11.03 12.32 0.9-6.63 1.76-13.28 6.46-1.66 12.82-3.25 5.43 6.33 10.89 12.67-0.75 6.57-1.54 13.14 6.55-1.44 13-2.81 5.57 6.27 11.17 12.54zm-124.14 43.94q11.15 11.66 22.41 23.36 10.2-2.56 20.28-5.02 0.39-2.18 0.78-4.37 0.39-2.23 0.79-4.46-7.98-8.39-15.89-16.76-14.06 3.53-28.37 7.25zm24.84 80.74q14.52-3.62 28.83-7.04 2.08-10.87 4.07-21.76-1.62-1.65-3.23-3.32-1.66-1.71-3.33-3.43-10.06 2.41-20.24 4.93-2.97 15.33-6.1 30.62zm82.94-5.06q-8.31-8.49-16.58-17.01-1.95 0.43-3.9 0.88-2.08 0.47-4.16 0.94-1.84 10.65-3.78 21.27 11.6 11.77 23.28 23.47 2.69-14.75 5.14-29.55zm20.41-47.5q-9.64 1.97-19.42 4.07-0.31 2.08-0.61 4.16-0.34 2.25-0.68 4.5 8.11 8.48 16.27 16.93 13.84-2.89 27.39-5.51-11.54-12.05-22.95-24.15z"/>
				<path id="&lt;Compound Path&gt;" fill-rule="evenodd" class="s5" d="m430.75 379.01q-15.45 5.31-31.06 10.6-3.85 10.42-7.62 20.87 1.45 1.3 2.9 2.61 1.57 1.41 3.14 2.83 11-3.61 21.94-7.23 5.16-14.79 10.48-29.53 7.75-2.67 15.47-5.33 4.93 4.7 9.9 9.5-2.57 7.44-5.11 14.9 6.7-2.24 13.36-4.49 5.28 4.8 10.58 9.69-2.58 7.51-5.13 15.02-6.67 2.19-13.36 4.37 5.33 5.04 10.7 10.15-2.39 7.54-4.76 15.09-7.6 2.34-15.23 4.67 5.33 5.02 10.69 10.1-2.38 7.41-4.72 14.82-7.77 2.4-15.56 4.8 4.72 4.44 9.46 8.93-2.17 7.6-4.3 15.21-7.82 2.23-15.66 4.45-4.78-4.5-9.54-8.95-2.32 7.6-4.61 15.21-7.81 2.32-15.62 4.63-5.41-5.13-10.8-10.21-2.27 7.38-4.51 14.77-7.72 2.18-15.45 4.35-5.62-5.18-11.23-10.29-1.97 6.37-3.91 12.75-7.83 2.39-15.66 4.74-5.54-5.21-11.05-10.35 1.94-6.27 3.92-12.52-7.94 2.3-15.88 4.58-5.59-4.99-11.15-9.91 2.36-7.03 4.78-14.05-7.85 2.3-15.7 4.56-5.4-4.81-10.77-9.54 2.44-7.13 4.94-14.24-6.91 2.04-13.83 4.06-5.61-4.59-11.2-9.1 2.64-6.92 5.35-13.82 6.87-2.06 13.73-4.14-5.42-4.55-10.81-9.01 2.64-6.89 5.34-13.76 7.9-2.39 15.78-4.81-5.25-4.36-10.48-8.61 2.81-6.73 5.67-13.44 8.13-2.64 16.24-5.31-4.52-3.71-9.02-7.34 2.78-6.86 5.63-13.7 8.08-2.62 16.14-5.27 4.36 3.55 8.76 7.19 2.91-6.95 5.89-13.89 8-2.78 15.96-5.57 4.85 4.16 9.75 8.43-5.77 14.03-11.31 28.1 7.36 6.29 14.79 12.78 2.26-0.75 4.51-1.49 2.37-0.78 4.72-1.56 3.8-10.13 7.7-20.23-10.28-9.01-20.38-17.6 2.89-7.04 5.84-14.07 7.81-2.69 15.57-5.4 4.96 4.27 9.96 8.65 2.48-6.16 4.98-12.31 7.85-2.93 15.64-5.87 4.81 4.46 9.68 9.02-2.43 6.22-4.82 12.45 7.88-2.77 15.72-5.55 4.99 4.55 10.03 9.19-2.72 7.21-5.4 14.42zm-120.5 64.86q11.38-3.54 22.72-7.12 0.75-2.04 1.5-4.07 0.76-2.07 1.53-4.14-7.46-6.46-14.86-12.73-15.98 5.18-32.04 10.25 10.51 8.72 21.15 17.81zm-3.96 51.86q15.71-4.59 31.38-9.29 3.45-10.39 7.01-20.75-1.52-1.35-3.04-2.7-1.58-1.39-3.16-2.78-11.18 3.45-22.39 6.85-5.01 14.31-9.8 28.67zm89.29-13.64q-7.82-7.21-15.59-14.26-2.18 0.67-4.35 1.34-2.32 0.72-4.65 1.44-3.44 10.35-6.79 20.72 11.01 9.99 22.12 20.25 4.55-14.77 9.26-29.49zm30.08-49.24q-11.12 3.59-22.3 7.17-0.69 2.04-1.38 4.08-0.75 2.21-1.49 4.42 7.55 6.9 15.15 13.94 15.66-4.89 31.2-9.81-10.65-10.04-21.18-19.8z"/>
				<path id="&lt;Compound Path&gt;" fill-rule="evenodd" class="s5" d="m315.81 787.26q-14.59 3.64-28.97 7.08-2.08 10.88-4.06 21.78 1.59 1.64 3.18 3.27 1.72 1.77 3.43 3.54 10-2.39 20.11-4.89 2.98-15.35 6.12-30.65 7.32-1.82 14.69-3.69 5.6 5.74 11.18 11.49-1.63 7.69-3.23 15.39 6.35-1.62 12.73-3.28 5.81 5.72 11.6 11.43-1.78 7.7-3.54 15.4-6.33 1.67-12.62 3.3 5.74 5.9 11.45 11.8-1.61 7.74-3.19 15.49-7.09 1.79-14.13 3.53 5.58 5.83 11.12 11.64-1.6 7.6-3.17 15.21-7.09 1.88-14.12 3.72 4.81 5.11 9.59 10.21-1.37 7.82-2.72 15.65-7 1.73-13.93 3.41-4.74-5.14-9.5-10.3-1.38 7.84-2.72 15.69-6.8 1.76-13.52 3.47-5.33-5.99-10.7-11.99-1.2 7.65-2.36 15.32-6.56 1.54-13.03 3.02-5.51-6.17-11.06-12.35-0.9 6.64-1.77 13.3-6.46 1.66-12.82 3.25-5.42-6.33-10.89-12.66 0.75-6.57 1.54-13.13-6.53 1.44-12.96 2.8-5.56-6.26-11.16-12.53 0.84-7.41 1.74-14.81-6.43 1.33-12.77 2.58-5.5-6.22-11.04-12.44 0.73-7.57 1.52-15.12-5.64 1.09-11.21 2.11-5.79-6.19-11.62-12.38 0.79-7.36 1.65-14.71 5.59-1.01 11.25-2.07-5.79-6.19-11.61-12.37 0.8-7.37 1.66-14.71 6.59-1.14 13.25-2.34-5.76-6.02-11.55-12.03 0.98-7.17 2.03-14.32 6.92-1.33 13.91-2.72-5.1-5.21-10.21-10.4 0.94-7.36 1.95-14.69 7.06-1.27 14.19-2.6 5.06 5.06 10.11 10.14 1.22-7.39 2.5-14.76 7.13-1.52 14.32-3.1 5.7 5.77 11.38 11.55-2.69 14.81-5.16 29.68 8.27 8.44 16.49 16.91 2-0.45 4.01-0.9 2.11-0.48 4.22-0.96 1.83-10.63 3.77-21.24-11.61-11.78-23.3-23.48 1.35-7.44 2.76-14.87 7.15-1.52 14.35-3.1 5.84 5.78 11.66 11.58 1.28-6.46 2.59-12.91 7.31-1.87 14.66-3.78 5.74 5.83 11.46 11.69-1.36 6.49-2.68 13 7.41-1.8 14.87-3.64 5.78 5.77 11.55 11.54-1.66 7.47-3.27 14.95zm-126.49 28.56q11.53 12.05 22.95 24.15 9.63-1.97 19.41-4.07 0.32-2.15 0.64-4.29 0.32-2.18 0.65-4.37-8.11-8.48-16.27-16.93-13.84 2.89-27.38 5.51zm54.96 75.75q1.46-10.91 3.02-21.78-1.59-1.71-3.19-3.42-1.65-1.78-3.31-3.55-9.56 2.1-18.95 4.06-1.93 15.1-3.62 30.25 12.86-2.65 26.05-5.56zm51.56 2.64q-8.01-8.61-16.08-17.24-1.9 0.45-3.8 0.9-2.02 0.48-4.04 0.95-1.69 10.8-3.29 21.63 11.2 12.21 22.26 24.36 2.4-15.32 4.95-30.6zm22.2-49.42q-10.2 2.56-20.28 5.02-0.38 2.12-0.75 4.24-0.41 2.29-0.82 4.59 7.97 8.39 15.89 16.76 14.05-3.52 28.37-7.25-11.15-11.66-22.41-23.36z"/>
				<path id="&lt;Compound Path&gt;" fill-rule="evenodd" class="s5" d="m776.74 894.34q-15.77 4.58-31.5 9.26-3.43 10.41-6.96 20.8 1.51 1.34 3.02 2.67 1.63 1.44 3.25 2.88 11.12-3.4 22.26-6.75 4.97-14.33 9.71-28.72 7.91-2.3 15.83-4.57 5.41 4.83 10.8 9.59-2.39 7.08-4.85 14.14 6.91-2.03 13.81-4.03 5.63 4.63 11.24 9.16-2.62 6.93-5.3 13.84-6.93 2.06-13.85 4.14 5.49 4.62 10.95 9.14-2.61 6.9-5.29 13.77-7.9 2.38-15.78 4.77 5.28 4.39 10.53 8.67-2.78 6.73-5.62 13.45-8.06 2.6-16.1 5.22 4.5 3.7 8.98 7.33-2.75 6.86-5.57 13.7-8.09 2.61-16.15 5.23-4.39-3.58-8.8-7.24-2.92 7.02-5.9 14.02-7.99 2.76-15.96 5.53-4.87-4.19-9.78-8.48-2.85 6.99-5.76 13.96-7.8 2.67-15.57 5.35-5.01-4.31-10.06-8.72-2.46 6.17-4.95 12.34-7.85 2.91-15.65 5.83-4.85-4.48-9.74-9.06 2.41-6.22 4.78-12.44-7.87 2.74-15.68 5.49-5.02-4.57-10.08-9.23 2.69-7.2 5.36-14.41-7.7 2.63-15.35 5.25-4.96-4.72-9.95-9.53 2.58-7.52 5.12-15.04-6.71 2.23-13.38 4.47-5.3-4.83-10.63-9.73 2.57-7.51 5.12-15.03 6.6-2.15 13.23-4.3-5.3-5.01-10.65-10.09 2.39-7.55 4.74-15.1 7.61-2.32 15.24-4.64-5.34-5.04-10.72-10.14 2.36-7.41 4.69-14.82 7.84-2.41 15.71-4.82-4.78-4.5-9.58-9.04 2.15-7.61 4.27-15.22 7.83-2.21 15.67-4.42 4.79 4.5 9.56 8.96 2.28-7.53 4.54-15.07 7.81-2.32 15.64-4.62 5.42 5.17 10.83 10.27-4.54 14.84-9.24 29.63 7.8 7.19 15.55 14.23 2.24-0.69 4.48-1.38 2.35-0.72 4.7-1.44 3.41-10.34 6.74-20.71-11.06-10.04-22.21-20.33 2.28-7.46 4.53-14.92 7.71-2.17 15.44-4.32 5.62 5.18 11.22 10.29 1.95-6.36 3.87-12.73 7.83-2.37 15.65-4.71 5.55 5.23 11.08 10.4-1.93 6.28-3.9 12.55 7.96-2.3 15.92-4.56 5.61 5.01 11.19 9.95-2.34 7.05-4.74 14.08zm-119.52 62.83q11.13-3.57 22.32-7.12 0.71-2.1 1.41-4.21 0.72-2.15 1.43-4.29-7.57-6.93-15.21-14-15.66 4.86-31.21 9.76 10.7 10.07 21.26 19.86zm-4.72 53.74q15.4-5.25 30.95-10.49 3.82-10.41 7.56-20.85-1.48-1.33-2.95-2.66-1.53-1.38-3.07-2.76-11.07 3.61-22.08 7.24-5.13 14.78-10.41 29.52zm88.41-17.18q-7.44-6.37-14.95-12.93-2.19 0.72-4.38 1.44-2.33 0.76-4.67 1.53-3.77 10.15-7.64 20.27 10.32 9.04 20.47 17.69 5.7-13.97 11.17-28zm31.82-47.29q-11.38 3.51-22.72 7.07-0.72 1.98-1.44 3.95-0.78 2.14-1.56 4.27 7.49 6.49 14.91 12.8 15.99-5.14 32.05-10.17-10.56-8.77-21.24-17.92z"/>
			</g>
		</g>
	</g>
</svg>