<svg version="1.2" xmlns="http://www.w3.org/2000/svg" viewBox="0 0 1080 1080" width="1080" height="1080">
	<style>
		.s0 { fill: #c44f12 } 
		.s1 { fill: #ef8200 } 
		.s2 { fill: #f6ac3b } 
		.s3 { fill: #aa5c3f } 
		.s4 { fill: #f5ae69 } 
		.s5 { fill: #f05042 } 
	</style>
	<path id="&lt;Path&gt;" class="s0" d="m582.09 890.78c38.52-10.41 78.06 11.94 88.33 49.92 10.29 38.02-12.59 77.26-51.11 87.68-38.48 10.4-78.02-11.95-88.3-49.98-10.27-37.97 12.61-77.21 51.08-87.62z"/>
	<path id="&lt;Path&gt;" class="s1" d="m463.61 452.69c-271.26 84.63-76.86 416.44-82.55 514.01-1.82 31.11-7.3 55.55-13.3 74.28l237.58-64.25 237.62-64.27c-14.67-13.14-31.67-31.5-48.93-57.45-54.09-81.4-53.43-465.97-330.42-402.32z"/>
	<path id="&lt;Path&gt;" class="s2" d="m463.61 452.69c-89.37 27.88-128.19 82.64-140.27 146.99 21.27-8.38 36.42-27.54 42.03-50.61 18.23 18.91 44.07 27.77 68.96 21.03 24.94-6.74 42.75-27.4 48.96-52.92 18.23 18.91 44.07 27.76 68.97 21.03 24.94-6.75 42.79-27.42 49.01-52.94 15.32 15.94 36.09 24.76 57.14 23.11-42.84-49.16-103.83-76.58-194.8-55.69z"/>
	<path id="&lt;Path&gt;" class="s3" d="m772.51 801.21l-399.98 108.18c5.61 22.37 9.11 41.41 8.59 55.73l412.06-111.44c-7.66-12.11-14.24-30.32-20.67-52.47z"/>
	<path id="&lt;Path&gt;" class="s3" d="m357.35 854.16l400.43-108.29c-2.32-8.98-4.69-18.28-7.15-27.71l-401.06 108.47c2.63 9.38 5.27 18.61 7.78 27.53z"/>
	<path id="&lt;Path&gt;" class="s3" d="m321.25 692.38l386.17-104.44c-3.86-8.51-7.94-16.91-12.24-25.06l-375.99 101.69c0.39 9.2 1.11 18.51 2.06 27.81z"/>
	<path id="&lt;Path&gt;" class="s2" d="m405.59 760.54c-19.44-18.54-47.47-26.85-74.91-19.42-0.64 0.17-1.23 0.33-1.85 0.54 5.68 29.13 13.22 57.9 20.74 84.97l401.06-108.47c-7.14-27.12-15.1-55.68-24.88-83.7-1.8 0.34-3.59 0.78-5.41 1.27-27.43 7.42-47.46 28.73-54.91 54.53-19.49-18.52-47.52-26.83-74.96-19.41-27.44 7.42-47.51 28.75-54.96 54.55-19.44-18.53-47.52-26.83-74.96-19.41-27.43 7.42-47.46 28.73-54.96 54.55z"/>
	<path id="&lt;Path&gt;" class="s4" d="m407.96 944.31c7.95-2.15 12.64-10.39 10.51-18.29-2.15-7.95-10.36-12.7-18.31-10.55-7.95 2.15-12.69 10.4-10.54 18.35 2.14 7.9 10.39 12.64 18.34 10.49z"/>
	<path id="&lt;Path&gt;" class="s4" d="m478.28 925.29c7.95-2.15 12.64-10.39 10.51-18.29-2.15-7.95-10.36-12.7-18.31-10.55-7.95 2.15-12.69 10.4-10.54 18.35 2.14 7.91 10.39 12.64 18.34 10.49z"/>
	<path id="&lt;Path&gt;" class="s4" d="m548.6 906.28c7.9-2.14 12.64-10.39 10.51-18.3-2.15-7.95-10.41-12.69-18.31-10.55-7.95 2.15-12.69 10.4-10.54 18.35 2.14 7.91 10.39 12.65 18.34 10.5z"/>
	<path id="&lt;Path&gt;" class="s4" d="m618.87 887.27c7.95-2.15 12.69-10.4 10.56-18.31-2.15-7.95-10.41-12.69-18.36-10.54-7.9 2.14-12.64 10.4-10.49 18.35 2.14 7.9 10.39 12.64 18.29 10.5z"/>
	<path id="&lt;Path&gt;" class="s4" d="m689.19 868.25c7.95-2.15 12.69-10.4 10.56-18.3-2.15-7.95-10.41-12.69-18.36-10.54-7.95 2.15-12.64 10.39-10.49 18.34 2.14 7.9 10.34 12.65 18.29 10.5z"/>
	<path id="&lt;Path&gt;" class="s4" d="m759.51 849.23c7.95-2.15 12.65-10.39 10.51-18.29-2.15-7.95-10.36-12.7-18.31-10.55-7.95 2.15-12.69 10.4-10.54 18.35 2.14 7.91 10.39 12.64 18.34 10.49z"/>
	<path id="&lt;Compound Path&gt;" fill-rule="evenodd" class="s2" d="m424.79 309.68c45.61-12.33 92.58 14.65 104.92 60.25 12.33 45.61-14.64 92.59-60.25 104.92-45.61 12.34-92.59-14.64-104.92-60.25-12.34-45.6 14.64-92.58 60.25-104.92zm-33.81 97.77c8.39 31.03 40.3 49.36 71.33 40.97 31.02-8.4 49.35-40.31 40.96-71.34-8.38-30.98-40.31-49.35-71.33-40.96-31.03 8.39-49.34 40.35-40.96 71.33z"/>
	<path id="&lt;Path&gt;" class="s5" d="m459.42 351.34c-1.92-5.44 51.33-93.86 100.2-125.14 48.87-31.29 134.92 47.61 210.92 46.25 75.99-1.36 111.36-107.46 111.36-107.46l-38.94-8.16c0 0-20.91 78.89-59 87.05-38.09 8.16-153.71-78.89-213.56-57.13-59.85 21.77-113.25 110.18-123.28 140.11-10.03 29.92 12.3 24.48 12.3 24.48z"/>
	<path id="&lt;Path&gt;" class="s5" d="m467.02 351.73c13.34-7.19 24.69-61.6 92.6-52.08 67.91 9.52 78.7 65.29 140.64 77.54 61.93 12.24 75.54-33.15 112.26-43.1 36.73-9.95 78.9 33.58 78.9 33.58v-33.58c0 0-44.89-33.95-87.06-27.39-42.17 6.56-55.77 58.24-87.05 51.44-31.29-6.8-92.07-80.25-134.45-84.33-42.39-4.08-62.68-4.67-88.58 19.43-25.9 24.1-47.09 45.86-45.34 56.74 1.76 10.88 18.08 1.75 18.08 1.75z"/>
	<path id="&lt;Path&gt;" class="s5" d="m468.66 327.43c0 0 67.73-97.15 60.93-208.69-6.8-111.54-108.82-93.86-153.71-21.77-44.88 72.1 69.38 242.13 69.38 242.13l10.66-21.31c0 0-67.79-117.44-69.15-162.32-1.36-44.89 25.84-87.06 53.05-89.78 27.2-2.72 50.32-10.88 59.85 31.28 9.52 42.17-43.13 214.61-43.13 214.61z"/>
	<path id="&lt;Path&gt;" class="s5" d="m461.38 325.49c0 0-63.81-99.77-169.45-136.2-105.65-36.42-128.38 64.59-78.96 133.67 49.41 69.07 250.23 28.62 250.23 28.62l-15.6-18.01c0 0-134.45 17.66-176.43 1.73-41.99-15.93-70.53-57.21-62.63-83.38 7.91-26.18 9.22-50.66 51.82-43.31 42.6 7.35 181.74 122.01 181.74 122.01z"/>
</svg>