<svg version="1.2" xmlns="http://www.w3.org/2000/svg" viewBox="0 0 1080 1080" width="1080" height="1080">
	<style>
		.s0 { fill: #e04a3e } 
		.s1 { fill: #f05042 } 
		.s2 { fill: #f3d7b0 } 
		.s3 { fill: #e3c396 } 
		.s4 { fill: #004524 } 
		.s5 { fill: #006837 } 
		.s6 { fill: #008044 } 
		.s7 { fill: #ffba54 } 
		.s8 { mix-blend-mode: multiply;fill: #cccccc } 
		.s9 { fill: #c9bf84 } 
		.s10 { fill: #ffffad } 
		.s11 { fill: #ffffc6 } 
		.s12 { mix-blend-mode: color-burn;fill: #f2f2f2 } 
		.s13 { fill: #eab96b } 
		.s14 { fill: #00542d } 
	</style>
	<path id="&lt;Path&gt;" class="s0" d="m690.9 123.34q-0.01 1.8-0.44 2.58c-2.95 5.36 2.87 40.19-25.62 74.96-28.49 34.72-48.85 53.31-41.85 45.98 6.96-7.34 41.26-96.25 39.92-119.91 0 0 12.83-3.71 27.99-3.61z"/>
	<path id="&lt;Path&gt;" class="s0" d="m586.92 191.41c-5.95 39.69-14.82 51.94-14.82 51.94 0 0 0.27-84.33-11.07-113.77-5.46-14.14-14.18-22.97-20.75-30.53 12.58 1.89 21.63 2.74 22.6-5.47 0.8-6.71 7.12-10.75 15.94-12.84-0.96 1.87-1.67 3.93-2.04 6.23-3.45 21.59 16.09 64.74 10.14 104.44z"/>
	<path id="&lt;Path&gt;" class="s0" d="m985.5 897.51c-54 68.91-107.48 89.54-254.1 91.42-146.59 1.92-379.99 21.19-522.2-24.32-142.22-45.52-186.06-127.07-118.62-338.52 8.5-26.7 20.69-49.95 35.62-70.45-1.68 3.3-41.6 82.19 19.08 182.55 62.03 102.54 217.33 155.9 441.49 159.96 180.4 3.26 365.14-91.85 430.31-121.44 6.3 49.53-7.87 90.55-31.58 120.8z"/>
	<path id="&lt;Path&gt;" class="s1" d="m1017.08 776.71c-65.17 29.59-249.91 124.7-430.31 121.44-224.16-4.06-379.46-57.42-441.49-159.96-60.68-100.36-20.76-179.25-19.08-182.55l0.04-0.04c0-0.04 0-0.04 0.04-0.08 93.61-128.5 294.53-147.32 367.15-214.09 84.23-77.46-3.52-117.32-28.87-153.78-25.3-36.49-14.45-64.26 18.7-84.05 18.64-11.17 40.78-7 57.02-4.55 6.57 7.56 15.29 16.39 20.75 30.53 11.34 29.44 11.07 113.77 11.07 113.77 0 0 8.87-12.25 14.82-51.94 5.95-39.7-13.59-82.85-10.14-104.44 0.37-2.3 1.08-4.36 2.04-6.23 15.85-3.66 39.7-0.84 53.87 4.98 22.53 9.25 30.22 41.23 30.22 41.23 1.34 23.66-32.96 112.57-39.92 119.91-7 7.33 13.36-11.26 41.85-45.98 28.49-34.77 22.67-69.6 25.62-74.96q0.43-0.78 0.44-2.58c10.84 0.1 22.95 2.23 32.34 9.15 17.45 12.82 38.27 48.47-15.59 84.26-53.86 35.76-84.32 84.02-84.32 84.02 0 0-5.55 16.55 27.46 75.92 33 59.38 44.59 20.21 218.92 173.58 97.79 86.05 139.3 163.14 147.37 226.44z"/>
	<path id="&lt;Compound Path&gt;" fill-rule="evenodd" class="s0" d="m935.86 795.65l-4.24 50.87h1.19l-3.97 47.15h-1.16l-6.72 80.65-92.55-0.18-7.32-0.02-16.07-0.03-24.46-0.05-57.21-0.11-110.4 2.96-12.73 0.34-62.09 1.66-140.29 3.76-13.49-127.71-1.78 0.05-7.94-74.66 1.83-0.05-8.12-76.9-0.39-3.65-8.44 0.23-1.61-59.86 149.36-4-137.93-53.05 13.7-44.01 45.79-39.81 114.9 111.75 27.75 5.31 11.28-3.56 116.62-126.27 47.86 37.31 16.03 43.21-148 66.23 159.52-4.28 1.61 59.86-8.45 0.22-1.5 28.91 24.65 24.52 17.99 3.84 7.43-2.03 78.42-77.41 30.51 24.37 9.65 27.5-97.76 39.02 104.12 0.21-0.08 37.72zm-169.02-38.05l-2.4-0.97-0.05 0.96zm102.21-32.59l42.18-20.84-8.82-5.37zm-206.69-145.13l63.67-34.91-13.76-8.14zm-257.03-20.81l65.45 31.46-52.15-40.32z"/>
	<path id="&lt;Path&gt;" class="s2" d="m635.4 284.14c-7.71-6.77-113.53-31.85-113.53-31.85-7.07 17.8-10.09 35.91-0.43 55.02l106.01 18.77c0 0 15.65-35.18 7.95-41.94z"/>
	<path id="&lt;Path&gt;" class="s3" d="m637.5 305.59l-122.19-18.98c-11.36 16.92-12.8 31.21-11.79 44.86l131.59 14.16c6.91-11.59 6.99-25.14 2.39-40.04z"/>
	<path id="&lt;Path&gt;" class="s3" d="m628.59 342.52c22.2 30.8 25.68 50.5 14.38 86.56-6.52 20.8-18.91 40.39-20.31 62.55-0.75 11.77 1.68 23.52 5.05 34.74 1.34 4.43 2.43 9.84 4.79 13.87 0.49 0.85 4.06 1.17 4.95 1.31 4.81 0.76 9.99 1.02 14.82 0.32 1.84-0.26 4.49-0.29 6.16-1.14 0.44-0.22 0.38-3.38 0.4-3.84 0.17-4.39-0.47-8.95-1.37-13.24-3.86-18.4-11.82-35.43-9.84-54.72 3.74-36.51 38.77-64.63 30.53-103.12-3.7-17.29-20.93-45.94-38.64-52.34-6.23-2.26-10.92 29.05-10.92 29.05z"/>
	<path id="&lt;Path&gt;" class="s2" d="m623.01 303.34c4.56 6.56 14.85 30.53 17.19 38.28 1.51 4.96 2.45 10.19 2.53 15.39 0.59 39.1-34.38 61.71-52.65 92.09-6.01 10-10.36 21.14-13.19 32.45-1.12 4.45-2.79 9.88-2.61 14.5 0.03 0.75 4.44 2.27 5.12 2.53 5.6 2.15 12.16 3.68 18.14 4.19 0.45 0.03 1.65-2.75 1.88-3.22 1.82-3.81 3.09-7.86 4.23-11.93 4.55-16.15 5.79-34.75 13.82-49.63 15.68-29.06 59.27-49.69 51.89-87.77-2.77-14.3-7.31-30.25-15.78-41.78-2.3-3.13-13.06-19.75-16.58-21.61-1.08-0.58-13.99 16.51-13.99 16.51z"/>
	<path id="&lt;Path&gt;" class="s4" d="m452.94 568.01l-15.25 33.95 182.63 70.24 21.44-13.45z"/>
	<path id="&lt;Path&gt;" class="s5" d="m641.76 658.75l-144.58-140.61-45.79 39.81-13.7 44.01 49.3-32.85 133.33 103.09z"/>
	<path id="&lt;Path&gt;" class="s6" d="m497.18 518.14l-45.79 39.81-13.7 44.01 49.3-32.85z"/>
	<path id="&lt;Path&gt;" class="s4" d="m814.58 552.8l17.04 33.09-178.6 79.92-22.13-12.28z"/>
	<path id="&lt;Path&gt;" class="s5" d="m630.89 653.53l136.84-148.16 47.86 37.31 16.03 43.21-50.98-30.16-127.62 110.08z"/>
	<path id="&lt;Path&gt;" class="s6" d="m767.73 505.37l47.86 37.31 16.03 43.21-50.98-30.16z"/>
	<path id="&lt;Path&gt;" class="s4" d="m602.18 661.79l9.9-31.9 27.75 5.3 11.28-3.55 18.3 29.27z"/>
	<path id="&lt;Path&gt;" class="s7" d="m635.58 685.98l202.14-5.42-16.12 311.48-177.7 4.76-177.69 4.76-32.77-310.17z"/>
	<path id="&lt;Path&gt;" class="s8" d="m681.31 995.8l-12.72 0.34-69.11-260.17-160.88 4.31-2.28-21.64 7.18-27.52 133.43-3.57 259.88 10.48-1.72 33.35-150.39 3.33z"/>
	<path id="&lt;Path&gt;" class="s5" d="m833.95 788.77l-3.94 74.98-379.07 10.15-7.95-74.66z"/>
	<path id="&lt;Path&gt;" class="s8" d="m682.98 867.68l-48.17 1.3-19.75-74.35 68.89-1.84z"/>
	<path id="&lt;Path&gt;" class="s7" d="m427.87 718.87l416.88-11.17-1.61-59.86-416.87 11.17z"/>
	<path id="&lt;Path&gt;" class="s5" d="m606.49 997.8l74.82-2-9.24-345.08-74.82 2z"/>
	<path id="&lt;Path&gt;" class="s9" d="m756.82 719.49l-10.58 21.1 117.79 47.55 14.24-8.08z"/>
	<path id="&lt;Path&gt;" class="s10" d="m878.27 780.06l-91.66-91.18-30.61 24.24-9.76 27.47 32.77-19.79 85.02 67.34z"/>
	<path id="&lt;Path&gt;" class="s11" d="m786.61 688.88l-30.61 24.24-9.76 27.47 32.77-19.79z"/>
	<path id="&lt;Path&gt;" class="s9" d="m992.96 716.47l10.49 21.15-117.97 47.09-14.21-8.13z"/>
	<path id="&lt;Path&gt;" class="s10" d="m871.27 776.58l92.02-90.83 30.51 24.36 9.65 27.51-32.68-19.92-85.29 67.01z"/>
	<path id="&lt;Path&gt;" class="s11" d="m963.29 685.75l30.51 24.36 9.65 27.51-32.68-19.92z"/>
	<path id="&lt;Path&gt;" class="s10" d="m852.4 781.26l7.05-19.91 18 3.84 7.42-2.04 11.39 18.77z"/>
	<path id="&lt;Path&gt;" class="s5" d="m873.72 797.1l131.94 0.25-16.34 195.88-115.98-0.23-115.98-0.23-15.57-195.93z"/>
	<path id="&lt;Path&gt;" class="s12" d="m897.76 993.05l-8.31-0.02-40.2-165.11-105-0.2-1.09-13.67 5.2-17.2 87.09 0.17 169.29 11.32-1.75 20.97-98.14-0.63z"/>
	<path id="&lt;Path&gt;" class="s10" d="m1001.17 865.43l-3.96 47.15-247.42-0.48-3.78-47.17z"/>
	<path id="&lt;Path&gt;" class="s13" d="m901.24 912.39l-31.44-0.06-11.49-47.18 44.96 0.09z"/>
	<path id="&lt;Path&gt;" class="s14" d="m737.65 814.04l272.08 0.53 0.08-37.72-272.09-0.54z"/>
	<path id="&lt;Path&gt;" class="s10" d="m848.93 992.95l48.83 0.1 0.42-217.5-48.83-0.09z"/>
</svg>