<svg version="1.2" xmlns="http://www.w3.org/2000/svg" viewBox="0 0 1080 1080" width="1080" height="1080">
	<style>
		.s0 { fill: #ffebe0 } 
		.s1 { fill: #f05042 } 
		.s2 { fill: #e04a3e } 
		.s3 { fill: #c44136 } 
		.s4 { fill: #ffdfce } 
	</style>
	<path id="&lt;Path&gt;" class="s0" d="m194.9 768.63c0.41 2.11 0.72 4.25 0.9 6.3-6 32.77-32.96 60.43-69.43 67.56-46.82 9.15-91.85-19.14-100.47-63.22-0.41-2.11-0.72-4.24-0.9-6.29 5.99-32.78 32.96-60.43 69.43-67.56 46.82-9.15 91.85 19.13 100.47 63.21z"/>
	<path id="&lt;Path&gt;" class="s1" d="m901.86 514.02c11.59 14.96 21.69 27.91 30.58 39.12-35.97-24.57-426.38 78.29-521.02 77.48-94.64-0.82-37.12-101.99-113.8-85.03-48.08 10.61-176.16 145.44-216.78 203.19-20.63-39.31 20.53-125.16 88-267.83 82.4-174.12 207.26-303.32 381.3-285.33 174.03 17.89 296 246.11 351.72 318.4z"/>
	<path id="&lt;Path&gt;" class="s2" d="m971.03 614.82l-590.16 113.07c-20.53-8.63-47.09-24.06-63.22-50.8-30.96-51.31 23.46-226.56 27.77-236.13 4.31-9.66-159.2 246.83-203.02 289.52-17.25 16.81-32.6 27.51-45.53 34.32-7.25-4.05-12.51-9.31-16.04-16.04 40.62-57.7 231.13-334.19 279.17-344.8 76.67-16.99 34.58 190.6 129.28 191.37 94.6 0.86 407.15-66.75 443.11-42.17 14.49 18.2 25.45 31.74 33.38 41.22 2.85 6.99 4.74 13.98 5.26 20.44z"/>
	<path id="&lt;Path&gt;" class="s3" d="m269.53 749.19c0 0 19.4-124.1 24.23-173.52 1.21-12.33-129.02 215.95-189.82 192.41-2.5-0.95-4.92-2.07-7.07-3.28 12.93-6.81 28.28-17.51 45.53-34.32 43.82-42.69 207.33-299.18 203.02-289.52-4.31 9.57-58.73 184.82-27.77 236.13 16.13 26.74 42.69 42.17 63.22 50.8z"/>
	<path id="&lt;Path&gt;" class="s0" d="m1031.67 647.65c-22.14 31.54-69.6 73.95-174.67 92.19-170.03 29.5-544.73 91.44-570.17 93.78-12.3 1.08-24.89-2.71-36.39-5.4-5.19-40.57-1.57-86.6 14.65-109.19 23.52-32.91 692.56-150.3 706.84-154.74 10.53-3.37 38.65 43.37 59.74 83.36z"/>
	<path id="&lt;Path&gt;" class="s4" d="m970.19 759.19c-62.36 12.19-688.98 161.34-707.38 118.3-5.81-13.46-9.98-30.86-12.37-49.27 11.5 2.69 24.09 6.48 36.39 5.4 25.44-2.34 400.14-64.28 570.17-93.78 105.07-18.24 152.53-60.65 174.67-92.19 7.52 14.33 14.08 27.64 18.68 37.72 17.45 38.17-17.91 61.65-80.16 73.82z"/>
</svg>