<svg version="1.2" xmlns="http://www.w3.org/2000/svg" viewBox="0 0 1080 1080" width="1080" height="1080">
	<style>
		.s0 { fill: #006837 } 
		.s1 { mix-blend-mode: multiply;fill: #cccccc } 
		.s2 { fill: #42210b } 
		.s3 { fill: #e04a3e } 
		.s4 { fill: #f05042 } 
		.s5 { opacity: .15;fill: #f2f2f2 } 
	</style>
	<path id="&lt;Path&gt;" class="s0" d="m573.02 449.27c-55.53-24.32-71.28-95.68-31.14-141.11l-65.7-26.17c-39.37-16.94-41.12-59.96-21.05-83.47l-24.54-2.11c-33.01-2.84-62.82-20.84-80.71-48.72l-32.52-50.69 1.13 60.21c0.63 33.12-14.16 64.66-40.02 85.36l-19.23 15.4c29.75 8.38 52.2 45.12 28.88 81.08l-40.08 58.27c58.62 15.46 85.19 83.54 52.53 134.62l-23.88 37.34 150.16 53.99c33.44 12.02 70.82 0.68 91.94-27.9l94.83-128.33z"/>
	<path id="&lt;Path&gt;" class="s1" d="m518.79 595.37l94.83-128.33-40.6-17.77c-55.53-24.32-71.28-95.68-31.14-141.11l-65.7-26.17c-39.37-16.94-41.12-59.96-21.05-83.47l-24.54-2.11c-33.01-2.84-62.82-20.84-80.71-48.72l-32.52-50.69 160.22 527.5c16.11-4.92 30.68-14.88 41.21-29.13z"/>
	<path id="&lt;Path&gt;" class="s2" d="m323.97 125.84l144.85 477.35q1.81-0.5 3.59-1.09l-144.85-477.34-3.72-5.81z"/>
	<path id="&lt;Path&gt;" class="s2" d="m458.64 563.29l-106.13-35.37 1.33-3.97 103.37 34.44 70.37-87.19 3.26 2.63z"/>
	<path id="&lt;Path&gt;" class="s2" d="m416.49 424.36l-106.14-35.38 1.33-3.97 103.37 34.45 70.37-87.2 3.26 2.64z"/>
	<path id="&lt;Path&gt;" class="s2" d="m370.69 270.31l-55.2-18.4 1.33-3.98 52.44 17.48 35.71-44.25 3.26 2.63z"/>
	<path id="&lt;Path&gt;" class="s0" d="m284.53 601.07c1.86 60.59-55.85 105.44-114.11 88.67l4.55 70.57c1.59 42.83-36.52 62.87-66.36 54.82l8.62 23.08c11.59 31.03 8.12 65.68-9.39 93.8l-31.84 51.12 53.9-26.85c29.66-14.77 64.48-14.94 94.28-0.47l22.15 10.77c-5.18-30.47 18.38-66.52 60.86-60.88l69.83 11.21c-11.18-59.59 38.92-112.79 99.07-105.2l43.97 5.55-15.65-158.8c-3.48-35.37-29.76-64.26-64.64-71.08l-156.6-30.61z"/>
	<path id="&lt;Path&gt;" class="s1" d="m439.77 587.38l-156.6-30.61 1.36 44.3c1.86 60.59-55.85 105.44-114.11 88.67l4.55 70.57c1.59 42.83-36.52 62.87-66.36 54.82l8.62 23.08c11.59 31.03 8.12 65.68-9.39 93.8l-31.84 51.12 407.76-371.02c-11.36-12.44-26.6-21.33-43.99-24.73z"/>
	<path id="&lt;Path&gt;" class="s2" d="m99.22 964.79l369.05-335.62q-1.23-1.42-2.53-2.78l-369.04 335.62-3.65 5.85z"/>
	<path id="&lt;Path&gt;" class="s2" d="m436.59 655.47l13.58 111.05-4.15 0.5-13.24-108.15-108.95-26.16 0.98-4.08z"/>
	<path id="&lt;Path&gt;" class="s2" d="m329.18 753.16l13.58 111.04-4.16 0.51-13.23-108.16-108.95-26.16 0.98-4.07z"/>
	<path id="&lt;Path&gt;" class="s2" d="m209.67 860.61l7.06 57.76-4.16 0.5-6.71-54.87-55.29-13.27 0.98-4.08z"/>
	<path id="&lt;Path&gt;" class="s0" d="m570.29 776.88c48.98-35.73 118.56-13.38 137.59 44.18l55.7-43.57c34.46-25.48 72.51-5.32 82.7 23.86l14.19-20.14c19.08-27.07 49.65-43.76 82.75-45.17l60.16-2.56-52.58-29.35c-28.92-16.15-48.71-44.8-53.57-77.57l-3.62-24.37c-22.23 21.48-65.28 22.36-84.59-15.9l-30.14-63.97c-42.89 42.84-115.09 31.49-142.76-22.45l-20.22-39.43-122.28 102.51c-27.24 22.83-36.27 60.83-22.22 93.48l63.08 146.56z"/>
	<path id="&lt;Path&gt;" class="s1" d="m471.4 656.43l63.08 146.56 35.81-26.11c48.98-35.73 118.56-13.38 137.59 44.18l55.7-43.57c34.46-25.48 72.51-5.32 82.7 23.86l14.19-20.14c19.08-27.07 49.65-43.76 82.75-45.17l60.16-2.56-536.38-127.33c-3.87 16.4-2.6 34 4.4 50.28z"/>
	<path id="&lt;Path&gt;" class="s2" d="m975.14 724.66l-485.32-115.34q-0.48 1.81-0.87 3.65l485.32 115.35 6.89-0.3z"/>
	<path id="&lt;Path&gt;" class="s2" d="m529.41 620.63l84.02-73.86 2.77 3.14-81.84 71.95 39.88 104.71-3.92 1.49z"/>
	<path id="&lt;Path&gt;" class="s2" d="m670.67 654.2l84.02-73.86 2.76 3.15-81.83 71.94 39.87 104.72-3.92 1.49z"/>
	<path id="&lt;Path&gt;" class="s3" d="m463.09 607.1c49.22 36.45 59.58 105.89 23.08 155.17-8.79 11.87-19.5 21.5-31.37 28.71 33.9-49 23.05-116.42-25.22-152.16-37.4-27.7-86.42-28.42-123.79-5.63 0.64-0.99 1.34-1.94 2.09-2.95 36.49-49.28 105.93-59.63 155.21-23.14z"/>
	<path id="&lt;Path&gt;" class="s4" d="m429.58 638.82c48.27 35.74 59.12 103.16 25.22 152.16-37.37 22.79-86.39 22.07-123.73-5.59-48.27-35.74-59.18-103.2-25.28-152.2 37.37-22.79 86.39-22.07 123.79 5.63z"/>
	<path id="&lt;Path&gt;" class="s3" d="m583.78 562.8c-2.66 4.84-5.66 9.51-9.05 14.08-41.02 55.39-119.18 67.1-174.58 26.08-55.39-41.02-66.99-119.2-25.97-174.59 3.38-4.57 6.97-8.81 10.82-12.76-29.72 53.92-15.75 122.82 35.07 160.46 50.82 37.63 120.8 30.89 163.71-13.27z"/>
	<path id="&lt;Path&gt;" class="s4" d="m548.71 402.35c50.82 37.63 64.79 106.53 35.07 160.45-42.91 44.16-112.89 50.9-163.71 13.27-50.82-37.64-64.79-106.54-35.07-160.46 42.91-44.16 112.89-50.9 163.71-13.26z"/>
	<path id="&lt;Path&gt;" class="s3" d="m594.09 531.37c-31.71 2.35-62.23 17.99-82.63 45.54-37.28 50.35-26.68 121.44 23.67 158.73 14.54 10.77 30.87 17.52 47.58 20.53-26.13 1.88-53.06-5.19-75.74-21.99-50.35-37.28-60.93-108.27-23.65-158.62 26.42-35.68 69.87-51.4 110.77-44.19z"/>
	<path id="&lt;Path&gt;" class="s4" d="m641.94 551.91c50.35 37.29 60.93 108.28 23.65 158.63-20.49 27.66-51.11 43.32-82.88 45.63-16.71-3.01-33.04-9.76-47.58-20.53-50.35-37.29-60.95-108.38-23.67-158.73 20.4-27.55 50.92-43.19 82.63-45.54 16.8 2.88 33.19 9.68 47.85 20.54z"/>
	<path id="&lt;Path&gt;" class="s4" d="m670.14 553.31c50.35 37.28 60.93 108.27 23.65 158.62-26.51 35.8-70.06 51.54-111.08 44.24-16.71-3.01-33.04-9.76-47.58-20.53-50.35-37.29-60.95-108.38-23.67-158.73 20.4-27.55 50.92-43.19 82.63-45.54 26.22-2 53.25 5.06 76.05 21.94z"/>
	<path id="&lt;Path&gt;" class="s5" d="m404.75 666.14c24.78 18.35 33.67 48.35 19.85 67-13.81 18.66-45.1 18.91-69.88 0.56-24.78-18.35-33.66-48.35-19.85-67 13.82-18.66 45.11-18.91 69.88-0.56z"/>
	<path id="&lt;Path&gt;" class="s5" d="m487.71 392.37c30.63 3.5 53.33 25.04 50.69 48.11-2.63 23.06-29.6 38.92-60.24 35.42-30.63-3.5-53.32-25.04-50.69-48.1 2.64-23.07 29.61-38.93 60.24-35.43z"/>
	<path id="&lt;Path&gt;" class="s5" d="m614.38 540.16c30.63 3.51 53.33 25.04 50.69 48.11-2.64 23.06-29.61 38.92-60.24 35.42-30.63-3.5-53.33-25.04-50.69-48.1 2.64-23.07 29.6-38.93 60.24-35.43z"/>
</svg>