<svg version="1.2" xmlns="http://www.w3.org/2000/svg" viewBox="0 0 1080 1080" width="1080" height="1080">
	<style>
		.s0 { fill: #683714 } 
		.s1 { fill: #ffeeff } 
		.s2 { fill: #ffffff } 
		.s3 { fill: #3c7031 } 
		.s4 { fill: #428736 } 
		.s5 { fill: #529e45 } 
		.s6 { fill: #dbcf1d } 
		.s7 { fill: #fcee21 } 
		.s8 { fill: #49193e } 
		.s9 { fill: #fcf592 } 
		.s10 { fill: #ff5a2e } 
		.s11 { fill: #4a1f46 } 
		.s12 { fill: #562b52 } 
		.s13 { fill: #ef512f } 
		.s14 { fill: none;stroke: #49193e;stroke-linecap: round;stroke-linejoin: round;stroke-width: 2.5 } 
	</style>
	<path id="&lt;Path&gt;" class="s0" d="m755.66 534.6c5.36-3.86 116.82-104.77 116.82-104.77 3.32-13.66 3.3-28.02 7.58-41.54 0.95-3.09 32.4-70.69 32.4-70.69l4.89 2.4c0 0-28.16 65.57-29.69 70.05-1.07 3.25-0.97 17.24-0.56 25.36l72.94-68.48-0.71 4.13-75.54 80.87c8.04 0.9 19.97 1.91 23 1.08 4.48-1.21 69.48-22.71 69.48-22.71l3.37 3.21c0 0-68.56 26.73-71.68 27.43-2.35 0.58-26.58 7.24-36.04 6.42l-102.38 103.88z"/>
	<path id="&lt;Path&gt;" class="s1" d="m641.09 1022.21c-165.48 25.86-321.23-86.37-346.77-249.81-25.53-163.38 88.56-317.77 254.04-343.62 165.48-25.86 321.22 86.36 346.75 249.74 25.54 163.44-88.55 317.83-254.02 343.69z"/>
	<path id="&lt;Path&gt;" class="s2" d="m548.36 428.78c-49.13 7.67-93.64 26.55-131.36 53.55-52.13 63.79-78.01 148.18-64.38 235.37 25.6 163.86 180.87 275.73 346.76 249.81 49.14-7.68 93.65-26.55 131.35-53.62 52.15-63.73 78.02-148.11 64.38-235.37-25.6-163.87-180.85-275.67-346.75-249.74z"/>
	<path id="&lt;Path&gt;" class="s1" d="m564.08 515.64c-102.18 15.96-197.56-48.54-212.4-143.51-14.84-94.97 56.31-185.5 158.5-201.47 102.12-15.95 197.49 48.55 212.33 143.52 14.84 94.97-56.31 185.5-158.43 201.46z"/>
	<path id="&lt;Path&gt;" class="s2" d="m510.18 170.66c102.4-16 197.45 48.27 212.33 143.52 7.93 50.75-8.49 100.05-41.05 137.45-21.56 13.21-46.25 22.45-73.1 26.65-102.4 16-197.51-48.19-212.39-143.44-7.93-50.75 8.56-100.06 41.13-137.46 21.49-13.2 46.17-22.51 73.08-26.72z"/>
	<path id="&lt;Path&gt;" class="s3" d="m553.9 479.89c28.88 61.19 23.84 188.41 22.75 193.82-1.03 5.34-81.47-5.86-81.7-9.13-4.66-79.47-5.31-106.58-12.94-186.23-2.01-21.59 42.94-59.7 71.89 1.54z"/>
	<path id="&lt;Path&gt;" class="s4" d="m709.97 407.11c27.43-13.76 47.33 44.66 45.07 62.39-6.31 50.6-281.22 131.04-388.66 63.32-12.19-7.72-3.55-76.92 30.54-77.51 34.15-0.6 313.05-48.2 313.05-48.2z"/>
	<path id="&lt;Path&gt;" class="s5" d="m678.63 657.78c-1.03 5.33-86.44 11.06-86.59 7.79-4.74-79.46-9.33-144.66-65.14-228.49-9.46-14.1 61.48-30.14 86.72-13.4 34.04 22.61 70.91 204.31 65.01 234.1z"/>
	<path id="&lt;Path&gt;" class="s5" d="m659.65 642.44c6.68 4.62 18.98 15.34 18.98 15.34l-0.46 43.94-9.74 0.16-1.93-35.31-3.22 37.26-10.41 1.84-2.21-37.13-2.55 38.38-11.43-0.08-2.95-35.87-3.18 37.54-10.21-0.12-3.34-37.89-1.5 35.84-11.47 1.08c0 0 0.47-39.28 0.06-37.78-0.48 1.51-3.98 38.39-3.98 38.39l-9.68 0.58 1.61-43.04z"/>
	<path id="&lt;Path&gt;" class="s3" d="m567.32 658.08l9.33 15.63-1.32 38.41-11.26-0.4 1.31-31.08-6.94 34.62-10.17 0.15 0.76-36.02-5.37 32.22-11.13-1.35 2.86-33.19-10.07 35.75-10.56-2.37 5.96-34.46-12.31 35.17-7.67-5.41 3.97-33.43-10.3 37.01-8.87-4.79 9.41-39.96z"/>
	<path id="&lt;Path&gt;" class="s6" d="m552.12 163.39c-4.75-6.51-75.13-98.97-75.13-98.97-22.41-27.66-147.13 34.33-140.37 59.7 12.12 45.42 19.54 70.4 43.13 128.96 23.26 54.67 203.49-38.48 172.37-89.69z"/>
	<path id="&lt;Path&gt;" class="s7" d="m552.12 163.39c-4.75-6.51-75.13-98.97-75.13-98.97-18.24-22.57-104.36 14.44-132.06 42.6 11.89 64.13 73.38 107.51 139.05 97.25 27.9-4.36 52.15-17.77 70.16-36.67-0.51-1.43-1.16-2.83-2.02-4.21z"/>
	<path id="&lt;Path&gt;" class="s8" d="m524.69 201.5c0.63-1.97 2.76-3.02 4.72-2.39 1.97 0.62 3.09 2.75 2.46 4.71-11.86 36.17-33.95 64.4-58.55 83.39-29.14 22.58-61.87 32.29-85.3 27.11-5.06-1.14-9.41-2.83-13.12-4.98-9-5.2-14.03-13.03-16.3-22.01-2.21-8.63-1.71-18.33 0.34-27.7 2.12-9.44 7.61-21.15 11.97-28.65l3.64 9.06c-3.37 6.48-6.78 14.48-8.31 21.25-1.8 8.26-2.26 16.8-0.39 24.19 1.83 7.11 5.82 13.31 12.77 17.39 3.08 1.75 6.68 3.19 10.98 4.1 21.43 4.77 51.8-4.43 79.14-25.65 23.51-18.18 44.64-45.17 55.95-79.82z"/>
	<path id="&lt;Path&gt;" class="s9" d="m396.73 65.4c39.21-15.6 75.68-15.13 81.51 1.05 5.76 16.19-21.37 41.97-60.57 57.57-39.21 15.6-75.76 15.14-81.52-1.05-5.77-16.26 21.31-41.95 60.58-57.57z"/>
	<path id="&lt;Path&gt;" class="s10" d="m561.82 292.98c38.66-1.59 115.89-13.29 133.38-13.01 2.59 0.02 4.74 0.48 5.05 1.08 0.41 0.79-0.16 2.17-3.05 4.85-5.76 5.42-96.96 53.56-112.52 60.09-24.88 10.35-40.96-46.59-22.86-53.01z"/>
	<path id="&lt;Path&gt;" class="s11" d="m508.9 299.39c8.62-1.35 14.56-9.75 13.16-18.72-1.42-9.04-9.63-15.22-18.26-13.87-8.62 1.34-14.49 9.73-13.07 18.77 1.4 8.97 9.55 15.16 18.17 13.82z"/>
	<path id="&lt;Path&gt;" class="s12" d="m510.3 294.57c7.15-1.12 12.01-8.12 10.85-15.55-1.16-7.43-7.93-12.62-15.08-11.5-7.15 1.11-12.01 8.12-10.85 15.55 1.16 7.43 7.93 12.62 15.08 11.5z"/>
	<path id="&lt;Path&gt;" class="s11" d="m610.67 278.03c8.62-1.35 14.48-9.81 13.08-18.78-1.4-8.97-9.55-15.16-18.17-13.82-8.69 1.36-14.56 9.75-13.16 18.72 1.4 8.97 9.56 15.23 18.25 13.88z"/>
	<path id="&lt;Path&gt;" class="s12" d="m612 273.22c7.22-1.13 12.09-8.13 10.93-15.56-1.16-7.43-7.93-12.62-15.15-11.49-7.15 1.12-12.02 8.12-10.85 15.55 1.16 7.43 7.93 12.62 15.07 11.5z"/>
	<path id="&lt;Path&gt;" class="s13" d="m697.2 285.9c-5.76 5.42-96.96 53.56-112.52 60.09-14.63 6.09-26.23-11.12-29.59-27.62 8.04 4.64 21.89 12.81 28.99 11.41 10.67-2.02 116.17-48.73 116.17-48.73 0.41 0.79-0.16 2.17-3.05 4.85z"/>
	<path id="&lt;Path&gt;" class="s14" d="m550.6 365.03c10.15 21.75 68.8 14.31 70.18-9.46"/>
	<path id="&lt;Path&gt;" class="s11" d="m666.92 757.9c8.62-1.34 14.56-9.74 13.16-18.71-1.4-8.97-9.63-15.23-18.25-13.88-8.62 1.35-14.55 9.81-13.15 18.78 1.4 8.98 9.62 15.16 18.24 13.81z"/>
	<path id="&lt;Path&gt;" class="s12" d="m668.32 753.09c7.15-1.12 12.03-8.06 10.85-15.56-1.16-7.42-7.92-12.54-15.07-11.43-7.15 1.12-12.09 8.07-10.93 15.5 1.17 7.5 8 12.6 15.15 11.49z"/>
	<path id="&lt;Path&gt;" class="s11" d="m662.71 871.14c8.63-1.35 14.55-9.81 13.15-18.78-1.4-8.97-9.63-15.23-18.25-13.88-8.62 1.35-14.55 9.81-13.15 18.78 1.41 8.97 9.63 15.23 18.25 13.88z"/>
	<path id="&lt;Path&gt;" class="s12" d="m664.12 866.33c7.15-1.12 12.01-8.13 10.85-15.56-1.17-7.5-7.93-12.62-15.08-11.5-7.15 1.12-12.1 8.07-10.92 15.57 1.16 7.42 8 12.6 15.15 11.49z"/>
	<path id="&lt;Path&gt;" class="s0" d="m359.56 588.45c-6.5-2.07-148.54-66.54-148.54-66.54l-8.49-4.27c-2.29-7.76-10.47-32.11-12.12-34.37-1.94-2.78-56.39-57.6-56.39-57.6l-2.06 1.97c0 0 48.51 55.89 51.49 59.81 2.11 2.9 1.5 14.19 3.71 22.32l-69.51-35.38-0.86 4.59 83.7 48.6c-7.64 3.49-19.1 8.22-22.31 8.37-4.86 0.18-77.85-1.98-77.85-1.98l-0.33 5.72c0 0 76.19 4.68 79.53 4.45 2.49-0.18 25.52-2.56 34.55-6.34q67.88 34.63 135.75 69.26c10.21 3.72 19.08-13.03 9.73-18.61z"/>
</svg>