<svg version="1.2" xmlns="http://www.w3.org/2000/svg" viewBox="0 0 1080 1080" width="1080" height="1080">
	<style>
		.s0 { fill: #e6e6e6 } 
	</style>
	<path id="&lt;Path&gt;" class="s0" d="m521.14 203.04l4.32 36.64 59.31-47.23 23.76 32.6-77.54 61.57 6.03 51.25 61.56-48.21 24.13 32.54-67.38 52.83 39.17 17.11 40.08 17.14-11.59-86.31 39.07-5.36 10.86 76.68 38.34-30.96-15.16-101.33 38.6-5.96 12.24 77.87 27.58-23.1-16.49-101.12 38.23-6.35 18.99 111.28 103.51 38.76-13.21 38.48-94.8-35.43-27.75 23.27 72.95 27.82-13.86 38.41-94.99-36.62-39.63 32.08 74.41 29.41-14.64 38.14-81.35-32.21 6.14 43.21 6.23 43.9 68.48-54.25 25.81 31.87-61.09 48.5 47.43 18.21 80.48-65.03 26.46 31.37-62 50.46 35.3 12.88 80.28-66.26 27.03 31.07-88.9 73.3 19 111.28-42.53 7.07-16.56-101.5-35.5-12.98 12.3 78.24-42.29 6.53-15.24-101.71-49.03-18.92 11.3 79.79-42.05 5.76-11.66-86.99-35.53 26.64-36.41 26.87 82.76 33.36-16.45 37.95-73.98-29.87 5.89 49.87 98.83 39.18-16.8 38.01-76.49-30.25 4.33 36.64 100.15 39.01-17.1 38.05-110.73-43.38-98.3 66.93-25.14-33.28 89.28-60.55-3.93-36.69-68.16 46.74-24.84-33.31 87.95-60.42-5.51-51.31-68.13 47.43-24.47-33.36 73.86-51.31-40.83-17.82-41.19-18.37 7.89 86.72-42.27 3.73-6.45-77.18-42.45 28.57 7.75 102.17-42.7 3.04-5.38-78.64-31.73 20.57 6.4 102.25-43.03 2.57-6.23-112.72-103.01-51.69 19.45-36.3 93.37 46.9 31.55-20.4-72.02-35.58 18.82-36.46 93.3 45.66 43.35-29.1-73.2-35.06 18.08-36.8 79.43 37.97-3.62-43.5-3.69-44.19-71.56 49.11-22.75-33.93 63.43-43.44-44.55-21.87-84.18 56.59-22.05-34.36 64.64-43.14-32.24-16.52-84.25 55.41-21.44-34.58 92.33-60.8-6.22-112.72 38.69-2.3 6.42 102.64 32.04 16.39-5.4-79.02 38.97-2.78 7.76 102.55 45.5 22.26-6.73-80.31 39.27-3.47 7.97 87.41 34.71-25.21 34.93-25.81-76.83-36.22 16.28-37.09 67.96 32.01-5.35-49.92-88.94-42.66 15.92-37.06 67.99 32.72-3.93-36.69-87.62-42.78 15.62-37.03 96.18 46.8 83.37-67 23.46 32.64z"/>
</svg>