<svg version="1.2" xmlns="http://www.w3.org/2000/svg" viewBox="0 0 1080 1080" width="1080" height="1080">
	<style>
		.s0 { fill: #ffebe0 } 
		.s1 { fill: #f05042 } 
		.s2 { mix-blend-mode: overlay;fill: #b4d7db } 
		.s3 { mix-blend-mode: multiply;fill: #e6e6e6 } 
		.s4 { fill: #ffdfce } 
	</style>
	<path id="&lt;Path&gt;" class="s0" d="m625.66 646.17c23.3 22.36 24.06 59.29 1.71 82.59-22.35 23.3-59.29 24.06-82.59 1.71l-349.47-335.28c-39.16-37.57-59.39-87.7-60.44-138.16-1.04-50.46 17.09-101.39 54.67-140.55 37.57-39.16 87.7-59.39 138.16-60.44 50.46-1.04 101.39 17.09 140.55 54.66 23.3 22.36 24.06 59.29 1.71 82.59-22.29 23.23-59.29 24.06-82.59 1.71-15.86-15.22-36.57-22.59-57.25-22.17-20.55 0.43-41 8.6-56.29 24.53-15.22 15.86-22.53 36.63-22.16 57.25 0.49 20.61 8.65 41.07 24.52 56.28z"/>
	<path id="&lt;Path&gt;" class="s1" d="m444.56 634.31l56.61 54.32 91.17-74.42-56.62-54.32z"/>
	<path id="&lt;Path&gt;" class="s1" d="m387.47 579.55l91.1-74.49-56.62-54.32-91.1 74.49z"/>
	<path id="&lt;Path&gt;" class="s1" d="m281.67 478.04l88.37-77.1-56.42-54.13-88.37 77.1z"/>
	<path id="&lt;Path&gt;" class="s1" d="m150.71 330.74l126.21-19.14-0.73-0.71c-15.87-15.21-24.03-35.67-24.52-56.28-0.13-6.11 0.46-12.18 1.64-18.19l-118.43 17.94c0.02 0.91-0.02 1.76-0.01 2.67 0.59 25.16 5.86 50.23 15.84 73.71z"/>
	<path id="&lt;Path&gt;" class="s1" d="m169.93 140.5l87.02 83.49c3.7-9.71 9.31-18.74 16.88-26.63 12.1-12.62 27.49-20.42 43.63-23.29l-91.27-87.56c-13.16 8.28-25.45 18.29-36.65 29.97q-10.89 11.35-19.61 24.02z"/>
	<path id="&lt;Path&gt;" class="s1" d="m337.2 56.11l-15.2 117.22c2.66-0.25 5.39-0.44 8.12-0.5 20.68-0.42 41.39 6.95 57.25 22.17 2.92 2.8 6.1 5.21 9.39 7.35l16.66-128.83c-24.17-10.95-50.19-16.78-76.22-17.41z"/>
	<path id="&lt;Path&gt;" class="s2" d="m596.18 669.23l-349.47-335.28c-20.64-19.8-32.26-46.89-32.92-75.43-0.52-28.55 9.96-56.09 29.77-76.74 19.8-20.64 46.95-32.33 75.43-32.92 28.62-0.59 56.09 9.96 76.74 29.77 12.41 11.91 32.11 11.56 44.02-0.85 11.91-12.41 11.5-32.18-0.91-44.09-32.59-31.26-75.94-48-121.07-47.06-45.2 1-87.81 19.51-119.08 52.11-31.27 32.59-48 75.93-47.07 121.06 0.94 45.13 19.45 87.75 52.04 119.02l349.48 335.28c12.41 11.91 32.11 11.56 44.02-0.85 11.91-12.41 11.44-32.11-0.98-44.02z"/>
	<path id="&lt;Path&gt;" class="s1" d="m233.33 602.35c0 0 229.31 346.36 305.82 406.56 76.51 60.2 321.28-65.14 436.29-185.66 123.46-129.37 36.4-225.7-53.52-258.74-89.92-33.04-227.23 64.32-227.23 64.32l-141.42-242.04z"/>
	<path id="&lt;Path&gt;" class="s0" d="m453.06 912.29c12.4-22.95 30.61-42.71 54.11-56.83 74.5-44.75 174.13-15.93 222.34 64.32 11.44 19.05 18.97 39.29 22.79 59.68-88.57 42-173.48 60.67-213.15 29.45-20.31-15.98-51.39-52.14-86.09-96.62z"/>
	<path id="&lt;Path&gt;" class="s3" d="m1022.59 644.85c-34.68 48.92-130.15 179.62-194.29 229.21-79.6 61.53-187.44 98.89-254.99 77.76-67.55-21.14-237.06-303.29-237.06-303.29 0 0-21.47 15-48.78 33.96 72.67 106.13 198.74 284.76 251.68 326.42 76.51 60.2 321.28-65.14 436.29-185.66 67.9-71.15 72.05-132.27 47.15-178.4z"/>
	<path id="&lt;Path&gt;" class="s4" d="m247.49 583.98c-5.57-5.56-118.77-63.35-160.98-39.1-42.21 24.24-65.33 82.1-14.51 105.56 50.83 23.46 170.26-48.29 170.26-48.29l-7.37-15.05c0 0-111.51 55.6-137.54 29.93-19.12-18.86 0.02-34.82 14.78-39.9 23.47-8.08 102 9.59 102 9.59 0 0 38.93 2.82 33.36-2.74z"/>
	<path id="&lt;Path&gt;" class="s0" d="m548.96 355.72c-154.19 74.25-239.14 129.92-343.38 239.95-2.79 36.21 46.38 148.32 118.3 157.4 140.74-69.28 201.61-123.1 319.68-237.64 11.3-40.54-55.63-153.71-94.6-159.71z"/>
	<path id="&lt;Path&gt;" class="s4" d="m627.73 446.24c12.87 26.99 20.2 53.52 15.83 69.19-118.07 114.54-178.94 168.36-319.68 237.64-24.79-3.14-46.88-18.51-65.06-38.78 33.93-3.73 87.81-14.18 127.5-33.83 57.65-28.54 155.67-101.35 199.87-165.3 22.26-32.2 34.48-55.04 41.54-68.92z"/>
</svg>