<svg version="1.2" xmlns="http://www.w3.org/2000/svg" viewBox="0 0 1080 1080" width="1080" height="1080">
	<defs>
		<clipPath clipPathUnits="userSpaceOnUse" id="cp1">
			<path d="m746.72 564.04l-79.03-150.08-127.28-241.57-127.24 241.57-77.35 146.89c-21.47 41.58-88.76 140.1 12.81 140.1 18.29 0 34.81-7.96 46.78-20.77 12.11 13.08 28.98 21.16 47.63 21.16 18.51 0 35.25-7.95 47.36-20.85 12.1 13.12 28.98 21.25 47.71 21.25 18.51 0 35.26-7.95 47.32-20.85 12.1 13.12 29.02 21.29 47.71 21.29 18.51 0 35.25-7.99 47.36-20.89 12.1 13.12 29.02 21.29 47.71 21.29 101.92 0 41.62-94.63 18.51-138.54z"/>
		</clipPath>
		<clipPath clipPathUnits="userSpaceOnUse" id="cp2">
			<path d="m776.23 804.59l-90.31-171.46-145.43-276.07-145.39 276.07-88.41 167.84c-24.52 47.53-101.39 160.1 14.67 160.1 20.85 0 39.76-9.1 53.46-23.72l-0.05-0.05c13.88 14.98 33.14 24.21 54.43 24.21 21.16 0 40.29-9.1 54.12-23.86 13.83 15.03 33.13 24.35 54.52 24.35 21.16 0 40.29-9.15 54.12-23.86 13.82 14.98 33.13 24.3 54.51 24.3 21.12 0 40.29-9.1 54.08-23.86 13.87 15.02 33.18 24.3 54.51 24.3 116.5 0 47.58-108.1 21.17-158.29z"/>
		</clipPath>
		<clipPath clipPathUnits="userSpaceOnUse" id="cp3">
			<path d="m694.36 353.21l-59.07-112.08-95.02-180.47-95.08 180.47-57.78 109.7c-16.04 31.1-66.27 104.66 9.58 104.66 13.66 0 26.03-5.92 34.95-15.51 9.06 9.76 21.65 15.82 35.56 15.82 13.83 0 26.33-5.97 35.39-15.6 9.01 9.81 21.65 15.91 35.61 15.91 13.83 0 26.37-5.97 35.39-15.6 9.05 9.81 21.69 15.91 35.65 15.91 13.83 0 26.33-5.97 35.34-15.6 9.06 9.81 21.69 15.91 35.65 15.91 76.12 0 31.11-70.69 13.83-103.52z"/>
		</clipPath>
	</defs>
	<style>
		.s0 { fill: #683714 } 
		.s1 { fill: #592f11 } 
		.s2 { fill: #005c31 } 
		.s3 { fill: #e6e6e6 } 
		.s4 { fill: #006837 } 
		.s5 { fill: #f2f2f2 } 
		.s6 { fill: #c1272d } 
		.s7 { fill: #fcee21 } 
		.s8 { fill: #00ffff } 
		.s9 { fill: #008043 } 
		.s10 { opacity: .11;mix-blend-mode: overlay;fill: #e6e6e6 } 
		.s11 { fill: #e04a3e } 
		.s12 { fill: #f05042 } 
		.s13 { fill: #f0695e } 
		.s14 { fill: #f7931e } 
		.s15 { fill: #c9bf1a } 
		.s16 { fill: #fcf48d } 
		.s17 { fill: #00c7c7 } 
		.s18 { fill: #96ffff } 
	</style>
	<g id="&lt;Group&gt;">
		<g id="&lt;Group&gt;">
			<path id="&lt;Path&gt;" fill-rule="evenodd" class="s0" d="m581 839.59v217.4h-84.16v-217.4z"/>
			<path id="&lt;Path&gt;" class="s1" d="m581 937.85c-3.8-6.32-6.99-11.48-7.35-11.6-0.68-0.23-50.92-6.59-76.81-10.47v141.21h11.48c1.12-23.55 1.52-82.65 1.52-82.65 0 0 11.71 1.23 37.61 0 13.24-0.63 25.02-3.92 33.55-7.03z"/>
			<g id="&lt;Group&gt;">
				<path id="&lt;Path&gt;" class="s2" d="m776.23 804.59l-90.31-171.46-145.43-276.07-145.39 276.07-88.41 167.84c-24.52 47.53-101.39 160.1 14.67 160.1 20.85 0 39.76-9.1 53.46-23.72l-0.05-0.05c13.88 14.98 33.14 24.21 54.43 24.21 21.16 0 40.29-9.1 54.12-23.86 13.83 15.03 33.13 24.35 54.52 24.35 21.16 0 40.29-9.15 54.12-23.86 13.82 14.98 33.13 24.3 54.51 24.3 21.12 0 40.29-9.1 54.08-23.86 13.87 15.02 33.18 24.3 54.51 24.3 116.5 0 47.58-108.1 21.17-158.29z"/>
			</g>
			<g id="&lt;Group&gt;" style="mix-blend-mode: multiply">
				<path id="&lt;Path&gt;" class="s3" d="m744.07 743.53l-58.15-110.4-145.43-276.07-145.39 276.07-57.53 109.22c3.45 0.28 7.11 0.45 11.06 0.45 18.29 0 34.81-7.95 46.78-20.76 12.11 13.07 28.98 21.16 47.63 21.16 18.51 0 35.25-7.95 47.36-20.85 12.1 13.12 28.98 21.25 47.71 21.25 18.51 0 35.26-7.96 47.32-20.86 12.1 13.12 29.02 21.3 47.71 21.3 18.51 0 35.25-8 47.36-20.9 12.1 13.12 29.02 21.29 47.71 21.29 5.81 0 11.06-0.32 15.86-0.9z"/>
			</g>
			<g id="&lt;Group&gt;">
				<path id="&lt;Path&gt;" class="s4" d="m746.72 564.04l-79.03-150.08-127.28-241.57-127.24 241.57-77.35 146.89c-21.47 41.58-88.76 140.1 12.81 140.1 18.29 0 34.81-7.96 46.78-20.77 12.11 13.08 28.98 21.16 47.63 21.16 18.51 0 35.25-7.95 47.36-20.85 12.1 13.12 28.98 21.25 47.71 21.25 18.51 0 35.26-7.95 47.32-20.85 12.1 13.12 29.02 21.29 47.71 21.29 18.51 0 35.25-7.99 47.36-20.89 12.1 13.12 29.02 21.29 47.71 21.29 101.92 0 41.62-94.63 18.51-138.54z"/>
			</g>
			<g id="&lt;Clip Group&gt;" clip-path="url(#cp1)">
				<g id="&lt;Group&gt;">
					<g id="&lt;Group&gt;">
						<g id="&lt;Group&gt;">
							<g id="&lt;Group&gt;">
								<path id="&lt;Path&gt;" class="s5" d="m328.33 598.53l-0.9-0.54 3.43-5.52 0.86 0.51z"/>
								<path id="&lt;Path&gt;" class="s5" d="m340.5 597.88c-6.33-3.24-12.34-6.86-17.7-10.95l0.66-0.86c5.29 4.04 11.25 7.63 17.53 10.84z"/>
								<path id="&lt;Path&gt;" class="s6" d="m327.73 607.55c-1.9 3.39-5.66 5.02-7.81 5.66-0.89 0.27-1.66-0.2-1.83-1.1-0.41-2.22-0.62-6.37 1.55-9.56 3.11-4.55 7.17-7.12 9.22-5.88 2.06 1.22 1.54 6.12-1.13 10.88z"/>
							</g>
							<g id="&lt;Group&gt;">
								<path id="&lt;Path&gt;" class="s5" d="m348.1 608.63l-0.98-0.42 2.61-5.95 0.95 0.4z"/>
								<path id="&lt;Path&gt;" class="s5" d="m360.29 606.55c-6.82-2.57-13.47-5.44-19.8-8.68l0.5-0.96c6.28 3.21 12.89 6.06 19.68 8.62z"/>
								<path id="&lt;Path&gt;" class="s7" d="m348.73 617.65c-1.45 3.58-4.93 5.74-6.92 6.68-0.82 0.4-1.63 0.06-1.91-0.81-0.66-2.11-1.44-6.15 0.2-9.65 2.33-4.97 6-8.13 8.26-7.16 2.26 0.96 2.43 5.86 0.37 10.94z"/>
							</g>
							<g id="&lt;Group&gt;">
								<path id="&lt;Path&gt;" class="s5" d="m369.12 616.52l-1.01-0.34 2.04-6.18 0.99 0.33z"/>
								<path id="&lt;Path&gt;" class="s5" d="m381.19 613.41c-7.08-2.05-14.08-4.31-20.91-6.86l0.39-1.02c6.79 2.54 13.76 4.8 20.83 6.84z"/>
								<path id="&lt;Path&gt;" class="s8" d="m370.56 625.43c-1.13 3.68-4.4 6.21-6.25 7.31-0.78 0.47-1.6 0.2-1.94-0.65-0.84-2.01-2-5.92-0.72-9.57 1.81-5.17 5.19-8.73 7.55-7.95 2.35 0.81 2.99 5.61 1.36 10.86z"/>
							</g>
						</g>
						<g id="&lt;Group&gt;">
							<g id="&lt;Group&gt;">
								<path id="&lt;Path&gt;" class="s5" d="m390.82 622.76l-1.04-0.27 1.61-6.3 1.02 0.27z"/>
								<path id="&lt;Path&gt;" class="s5" d="m402.73 618.9c-7.25-1.62-14.45-3.42-21.54-5.48l0.3-1.05c7.06 2.06 14.24 3.85 21.48 5.47z"/>
								<path id="&lt;Path&gt;" class="s6" d="m392.85 631.56c-0.9 3.75-3.97 6.45-5.74 7.71-0.74 0.54-1.56 0.31-1.96-0.51-0.96-1.95-2.37-5.78-1.37-9.51 1.43-5.29 4.55-9.07 6.98-8.43 2.43 0.61 3.37 5.4 2.09 10.74z"/>
							</g>
							<g id="&lt;Group&gt;">
								<path id="&lt;Path&gt;" class="s5" d="m412.92 627.69l-1.06-0.21 1.27-6.38 1.04 0.21z"/>
								<path id="&lt;Path&gt;" class="s5" d="m424.66 623.23q-11.05-1.88-21.93-4.33l0.23-1.06q10.86 2.44 21.88 4.32z"/>
								<path id="&lt;Path&gt;" class="s7" d="m415.42 636.37c-0.71 3.79-3.62 6.65-5.31 8-0.71 0.58-1.54 0.41-1.98-0.39-1.05-1.89-2.67-5.64-1.88-9.42 1.13-5.37 4.04-9.31 6.5-8.8 2.47 0.47 3.67 5.21 2.67 10.61z"/>
							</g>
							<g id="&lt;Group&gt;">
								<path id="&lt;Path&gt;" class="s5" d="m435.28 631.54l-1.07-0.17 0.98-6.42 1.06 0.16z"/>
								<path id="&lt;Path&gt;" class="s5" d="m446.84 626.58c-7.43-0.97-14.83-2.05-22.19-3.35l0.19-1.07c7.34 1.3 14.73 2.37 22.14 3.35z"/>
								<path id="&lt;Path&gt;" class="s8" d="m438.17 640.1c-0.54 3.82-3.33 6.81-4.95 8.24-0.68 0.59-1.51 0.46-1.98-0.31-1.14-1.84-2.92-5.51-2.3-9.32 0.87-5.41 3.6-9.49 6.09-9.1 2.49 0.39 3.9 5.05 3.14 10.49z"/>
							</g>
						</g>
						<g id="&lt;Group&gt;">
							<g id="&lt;Group&gt;">
								<path id="&lt;Path&gt;" class="s5" d="m457.82 634.44l-1.08-0.12 0.72-6.46 1.07 0.12z"/>
								<path id="&lt;Path&gt;" class="s5" d="m469.18 629.07c-7.46-0.73-14.92-1.5-22.34-2.49l0.14-1.07c7.4 0.99 14.85 1.75 22.3 2.48z"/>
								<path id="&lt;Path&gt;" class="s6" d="m461.03 642.9c-0.39 3.84-3.05 6.94-4.61 8.41-0.66 0.62-1.49 0.52-1.99-0.23-1.2-1.79-3.13-5.37-2.67-9.2 0.65-5.45 3.21-9.63 5.72-9.35 2.51 0.29 4.1 4.91 3.55 10.37z"/>
							</g>
							<g id="&lt;Group&gt;">
								<path id="&lt;Path&gt;" class="s5" d="m480.46 636.51l-1.08-0.08 0.48-6.49 1.07 0.08z"/>
								<path id="&lt;Path&gt;" class="s5" d="m491.64 630.72c-7.5-0.4-14.98-1.01-22.46-1.66l0.1-1.08c7.46 0.65 14.93 1.26 22.42 1.66z"/>
								<path id="&lt;Path&gt;" class="s7" d="m483.97 644.85c-0.25 3.85-2.8 7.02-4.31 8.56-0.63 0.64-1.46 0.58-1.99-0.15-1.26-1.73-3.32-5.26-3-9.11 0.45-5.46 2.86-9.72 5.39-9.54 2.52 0.18 4.27 4.76 3.91 10.24z"/>
							</g>
							<g id="&lt;Group&gt;">
								<path id="&lt;Path&gt;" class="s5" d="m503.17 637.79l-1.08-0.04 0.26-6.5 1.08 0.05z"/>
								<path id="&lt;Path&gt;" class="s5" d="m514.15 631.63q-11.27-0.26-22.51-0.91l0.06-1.08q11.23 0.65 22.48 0.9z"/>
								<path id="&lt;Path&gt;" class="s8" d="m506.96 645.99c-0.12 3.86-2.56 7.12-4.01 8.72-0.61 0.67-1.45 0.64-2-0.08-1.32-1.71-3.49-5.16-3.3-9.01 0.26-5.48 2.52-9.83 5.05-9.71 2.53 0.09 4.44 4.6 4.26 10.08z"/>
							</g>
						</g>
						<g id="&lt;Group&gt;">
							<g id="&lt;Group&gt;">
								<path id="&lt;Path&gt;" class="s5" d="m525.92 638.31l-1.09-0.01 0.06-6.5 1.07 0.01z"/>
								<path id="&lt;Path&gt;" class="s5" d="m536.7 631.8c-7.52 0.04-15.03 0.03-22.55-0.17l0.03-1.09c7.5 0.21 15 0.22 22.51 0.18z"/>
								<path id="&lt;Path&gt;" class="s6" d="m529.98 646.39c0 3.87-2.33 7.21-3.73 8.84-0.59 0.68-1.42 0.67-2-0.02-1.37-1.66-3.65-5.02-3.6-8.88 0.09-5.49 2.21-9.92 4.74-9.89 2.53 0.03 4.58 4.48 4.59 9.95z"/>
							</g>
							<g id="&lt;Group&gt;">
								<path id="&lt;Path&gt;" class="s5" d="m548.67 638.09l-1.09 0.03-0.15-6.5 1.07-0.03z"/>
								<path id="&lt;Path&gt;" class="s5" d="m559.22 631.22c-7.5 0.34-15.01 0.49-22.53 0.58l-0.01-1.08c7.5-0.09 15.01-0.24 22.5-0.58z"/>
								<path id="&lt;Path&gt;" class="s7" d="m552.99 646.03c0.13 3.86-2.1 7.27-3.44 8.96-0.56 0.7-1.4 0.73-2 0.05-1.42-1.59-3.81-4.92-3.88-8.77-0.1-5.5 1.88-9.95 4.41-10.03 2.53-0.07 4.73 4.31 4.91 9.79z"/>
							</g>
							<g id="&lt;Group&gt;">
								<path id="&lt;Path&gt;" class="s5" d="m571.4 637.13l-1.09 0.06-0.37-6.49 1.07-0.06z"/>
								<path id="&lt;Path&gt;" class="s5" d="m581.71 629.91c-7.48 0.55-14.98 1.02-22.49 1.31l-0.04-1.08c7.49-0.29 14.98-0.76 22.45-1.31z"/>
								<path id="&lt;Path&gt;" class="s8" d="m575.98 644.92c0.26 3.84-1.85 7.35-3.14 9.07-0.54 0.72-1.37 0.76-1.99 0.11-1.48-1.57-3.98-4.78-4.18-8.64-0.27-5.48 1.55-10.03 4.08-10.17 2.52-0.13 4.86 4.14 5.23 9.63z"/>
							</g>
						</g>
						<g id="&lt;Group&gt;">
							<g id="&lt;Group&gt;">
								<path id="&lt;Path&gt;" class="s5" d="m594.07 635.38l-1.08 0.1-0.6-6.47 1.07-0.1z"/>
								<path id="&lt;Path&gt;" class="s5" d="m604.11 627.81c-7.44 0.84-14.92 1.52-22.4 2.1l-0.08-1.08c7.47-0.58 14.93-1.26 22.36-2.1z"/>
								<path id="&lt;Path&gt;" class="s6" d="m598.93 643.02c0.39 3.84-1.59 7.39-2.82 9.16-0.52 0.74-1.35 0.82-1.99 0.18-1.54-1.5-4.15-4.62-4.48-8.47-0.46-5.46 1.2-10.08 3.72-10.32 2.52-0.24 5.01 3.99 5.57 9.45z"/>
							</g>
							<g id="&lt;Group&gt;">
								<path id="&lt;Path&gt;" class="s5" d="m616.65 632.82l-1.07 0.15-0.84-6.45 1.06-0.14z"/>
								<path id="&lt;Path&gt;" class="s5" d="m626.38 624.86c-7.39 1.15-14.82 2.1-22.27 2.95l-0.12-1.08c7.43-0.84 14.85-1.8 22.23-2.94z"/>
								<path id="&lt;Path&gt;" class="s7" d="m621.79 640.25c0.55 3.83-1.3 7.46-2.47 9.28-0.48 0.76-1.32 0.88-1.98 0.27-1.6-1.46-4.33-4.5-4.8-8.33-0.66-5.45 0.83-10.09 3.33-10.43 2.5-0.34 5.15 3.78 5.92 9.21z"/>
							</g>
							<g id="&lt;Group&gt;">
								<path id="&lt;Path&gt;" class="s5" d="m639.1 629.37l-1.07 0.18-1.11-6.4 1.05-0.18z"/>
								<path id="&lt;Path&gt;" class="s5" d="m648.45 621c-7.32 1.44-14.67 2.76-22.07 3.86l-0.17-1.07c7.39-1.1 14.73-2.42 22.03-3.85z"/>
								<path id="&lt;Path&gt;" class="s8" d="m644.55 636.58c0.7 3.79-0.99 7.52-2.09 9.38-0.45 0.77-1.28 0.91-1.98 0.33-1.65-1.39-4.51-4.29-5.13-8.1-0.89-5.42 0.41-10.15 2.89-10.57 2.49-0.41 5.3 3.55 6.31 8.96z"/>
							</g>
						</g>
						<g id="&lt;Group&gt;">
							<g id="&lt;Group&gt;">
								<path id="&lt;Path&gt;" class="s5" d="m661.33 624.92l-1.05 0.23-1.42-6.34 1.04-0.23z"/>
								<path id="&lt;Path&gt;" class="s5" d="m670.24 616.12c-7.22 1.78-14.47 3.45-21.79 4.89l-0.21-1.07c7.3-1.43 14.54-3.09 21.73-4.87z"/>
								<path id="&lt;Path&gt;" class="s6" d="m667.13 631.87c0.89 3.76-0.63 7.56-1.64 9.45-0.42 0.8-1.24 0.99-1.97 0.44-1.72-1.3-4.71-4.07-5.51-7.84-1.13-5.37-0.07-10.16 2.39-10.71 2.46-0.53 5.46 3.33 6.73 8.66z"/>
							</g>
							<g id="&lt;Group&gt;">
								<path id="&lt;Path&gt;" class="s5" d="m683.27 619.34l-1.04 0.29-1.77-6.26 1.02-0.29z"/>
								<path id="&lt;Path&gt;" class="s5" d="m691.6 610.05q-10.57 3.32-21.37 6.07l-0.26-1.05q10.76-2.74 21.3-6.05z"/>
								<path id="&lt;Path&gt;" class="s7" d="m689.45 625.95c1.11 3.71-0.2 7.56-1.11 9.53-0.37 0.82-1.19 1.05-1.95 0.55-1.8-1.19-4.94-3.78-5.94-7.52-1.42-5.29-0.62-10.14 1.79-10.82 2.41-0.68 5.64 3.02 7.21 8.26z"/>
							</g>
							<g id="&lt;Group&gt;">
								<path id="&lt;Path&gt;" class="s5" d="m704.75 612.42l-1.01 0.37-2.19-6.13 0.99-0.35z"/>
								<path id="&lt;Path&gt;" class="s5" d="m712.32 602.57c-6.78 2.74-13.71 5.21-20.73 7.48l-0.32-1.03c6.99-2.26 13.89-4.73 20.64-7.45z"/>
								<path id="&lt;Path&gt;" class="s8" d="m711.38 618.58c1.38 3.62 0.34 7.58-0.45 9.6-0.32 0.85-1.13 1.13-1.92 0.69-1.89-1.07-5.21-3.44-6.45-7.11-1.76-5.18-1.29-10.07 1.05-10.91 2.35-0.83 5.82 2.62 7.77 7.73z"/>
							</g>
						</g>
						<g id="&lt;Group&gt;">
							<g id="&lt;Group&gt;">
								<path id="&lt;Path&gt;" class="s5" d="m725.55 603.91l-0.97 0.44-2.72-5.91 0.95-0.43z"/>
								<path id="&lt;Path&gt;" class="s5" d="m732.05 593.42q-9.56 5.04-19.73 9.15l-0.41-1q10.13-4.1 19.63-9.11z"/>
								<path id="&lt;Path&gt;" class="s6" d="m732.7 609.43c1.7 3.45 1.02 7.54 0.4 9.63-0.26 0.87-1.05 1.23-1.88 0.85-2-0.9-5.52-2.98-7.06-6.52-2.18-5.03-2.13-9.94 0.12-10.96 2.26-0.99 5.98 2.05 8.42 7z"/>
							</g>
							<g id="&lt;Group&gt;">
								<path id="&lt;Path&gt;" class="s5" d="m745.22 593.38l-0.89 0.56-3.38-5.56 0.86-0.54z"/>
								<path id="&lt;Path&gt;" class="s5" d="m750.22 582.26c-5.7 4.1-11.82 7.79-18.18 11.16l-0.5-0.96c6.32-3.34 12.39-7.01 18.04-11.08z"/>
								<path id="&lt;Path&gt;" class="s7" d="m753 598.02c2.13 3.22 1.9 7.31 1.51 9.49-0.15 0.92-0.91 1.39-1.78 1.12-2.11-0.64-5.89-2.35-7.8-5.69-2.73-4.78-3.18-9.57-1.13-10.87 2.06-1.3 6.17 1.37 9.2 5.95z"/>
							</g>
							<g id="&lt;Group&gt;">
								<path id="&lt;Path&gt;" class="s5" d="m763.05 580.37q-0.38 0.35-0.79 0.68l-4.24-4.93q0.39-0.31 0.75-0.64z"/>
								<path id="&lt;Path&gt;" class="s5" d="m765.77 568.71c-4.6 4.94-9.86 9.46-15.55 13.55l-0.64-0.88c5.65-4.06 10.86-8.53 15.4-13.4z"/>
								<path id="&lt;Path&gt;" class="s8" d="m771.48 583.59c2.67 2.79 3.12 6.91 3.08 9.17-0.01 0.96-0.7 1.55-1.64 1.42-2.23-0.28-6.24-1.31-8.64-4.34-3.4-4.3-4.68-9.02-2.84-10.54 1.75-1.59 6.24 0.33 10.04 4.29z"/>
							</g>
						</g>
					</g>
					<g id="&lt;Group&gt;">
						<g id="&lt;Group&gt;">
							<g id="&lt;Group&gt;">
								<path id="&lt;Path&gt;" class="s5" d="m328.81 432.58l-0.72-0.69 4.36-4.35 0.68 0.65z"/>
								<path id="&lt;Path&gt;" class="s5" d="m340.17 434.61c-5.13-4.35-9.9-9-13.96-13.92l0.79-0.65c4.02 4.86 8.74 9.46 13.84 13.79z"/>
								<path id="&lt;Path&gt;" class="s6" d="m326.3 440.78c-2.48 2.72-6.3 3.41-8.42 3.53-0.88 0.06-1.5-0.54-1.46-1.41 0.11-2.13 0.81-6.01 3.5-8.48 3.85-3.53 8.16-5.02 9.77-3.44 1.64 1.58 0.11 5.98-3.39 9.8z"/>
							</g>
							<g id="&lt;Group&gt;">
								<path id="&lt;Path&gt;" class="s5" d="m344.87 446.17l-0.81-0.59 3.69-4.93 0.79 0.57z"/>
								<path id="&lt;Path&gt;" class="s5" d="m356.56 446.88c-5.73-3.84-11.25-7.92-16.39-12.27l0.67-0.79c5.1 4.33 10.59 8.38 16.29 12.21z"/>
								<path id="&lt;Path&gt;" class="s7" d="m343.5 454.63c-2.11 2.99-5.79 4.23-7.82 4.68-0.85 0.18-1.52-0.3-1.59-1.16-0.16-2.1-0.01-6 2.26-8.87 3.23-4.08 7.3-6.21 9.17-4.82 1.88 1.37 0.98 5.93-2.02 10.17z"/>
							</g>
							<g id="&lt;Group&gt;">
								<path id="&lt;Path&gt;" class="s5" d="m362.56 457.99l-0.86-0.53 3.21-5.26 0.85 0.52z"/>
								<path id="&lt;Path&gt;" class="s5" d="m374.37 457.74c-6.09-3.43-12.06-7.03-17.81-10.86l0.57-0.85c5.73 3.81 11.67 7.4 17.74 10.81z"/>
								<path id="&lt;Path&gt;" class="s8" d="m361.97 466.53c-1.85 3.15-5.4 4.78-7.36 5.39-0.81 0.26-1.51-0.16-1.65-1.02-0.33-2.03-0.56-5.89 1.41-8.98 2.79-4.39 6.67-6.94 8.68-5.71 1.99 1.26 1.55 5.82-1.08 10.32z"/>
							</g>
						</g>
						<g id="&lt;Group&gt;">
							<g id="&lt;Group&gt;">
								<path id="&lt;Path&gt;" class="s5" d="m381.23 468.44l-0.9-0.48 2.85-5.46 0.88 0.47z"/>
								<path id="&lt;Path&gt;" class="s5" d="m393.06 467.45c-6.34-3.07-12.6-6.28-18.69-9.71l0.5-0.9c6.07 3.42 12.31 6.63 18.64 9.68z"/>
								<path id="&lt;Path&gt;" class="s6" d="m381.21 476.99c-1.64 3.27-5.05 5.1-6.96 5.88-0.8 0.34-1.51-0.05-1.7-0.89-0.46-2.01-0.94-5.85 0.79-9.07 2.46-4.58 6.16-7.39 8.26-6.28 2.11 1.09 1.94 5.71-0.39 10.36z"/>
							</g>
							<g id="&lt;Group&gt;">
								<path id="&lt;Path&gt;" class="s5" d="m400.56 477.76l-0.93-0.42 2.55-5.61 0.91 0.41z"/>
								<path id="&lt;Path&gt;" class="s5" d="m412.35 476.18q-9.78-4.13-19.29-8.74l0.44-0.92q9.49 4.6 19.26 8.71z"/>
								<path id="&lt;Path&gt;" class="s7" d="m400.99 486.31c-1.47 3.35-4.77 5.35-6.63 6.23-0.77 0.38-1.5 0.05-1.74-0.78-0.56-1.98-1.24-5.79 0.31-9.1 2.2-4.71 5.73-7.72 7.89-6.72 2.18 0.97 2.26 5.61 0.17 10.37z"/>
							</g>
							<g id="&lt;Group&gt;">
								<path id="&lt;Path&gt;" class="s5" d="m420.37 486.14l-0.95-0.38 2.28-5.72 0.94 0.38z"/>
								<path id="&lt;Path&gt;" class="s5" d="m432.1 484.06c-6.64-2.5-13.24-5.1-19.75-7.88l0.4-0.95c6.49 2.78 13.08 5.37 19.71 7.87z"/>
								<path id="&lt;Path&gt;" class="s8" d="m421.18 494.66c-1.32 3.41-4.54 5.57-6.35 6.53-0.75 0.41-1.49 0.11-1.76-0.71-0.65-1.94-1.5-5.71-0.11-9.09 1.98-4.81 5.37-7.98 7.59-7.08 2.21 0.89 2.51 5.5 0.63 10.35z"/>
							</g>
						</g>
						<g id="&lt;Group&gt;">
							<g id="&lt;Group&gt;">
								<path id="&lt;Path&gt;" class="s5" d="m440.53 493.69l-0.96-0.35 2.06-5.8 0.95 0.34z"/>
								<path id="&lt;Path&gt;" class="s5" d="m452.18 491.18c-6.73-2.28-13.45-4.6-20.08-7.12l0.36-0.96c6.62 2.51 13.33 4.83 20.05 7.1z"/>
								<path id="&lt;Path&gt;" class="s6" d="m441.67 502.18c-1.19 3.47-4.31 5.75-6.07 6.77-0.74 0.43-1.49 0.16-1.79-0.64-0.72-1.91-1.72-5.63-0.47-9.07 1.77-4.89 5.04-8.19 7.3-7.39 2.25 0.81 2.72 5.42 1.03 10.33z"/>
							</g>
							<g id="&lt;Group&gt;">
								<path id="&lt;Path&gt;" class="s5" d="m460.98 500.48l-0.98-0.31 1.85-5.87 0.97 0.3z"/>
								<path id="&lt;Path&gt;" class="s5" d="m472.54 497.55c-6.83-1.98-13.6-4.16-20.36-6.37l0.32-0.98c6.75 2.21 13.51 4.39 20.33 6.37z"/>
								<path id="&lt;Path&gt;" class="s7" d="m462.42 508.93c-1.07 3.5-4.1 5.88-5.82 6.97-0.73 0.46-1.48 0.23-1.81-0.56-0.8-1.87-1.93-5.57-0.8-9.05 1.59-4.95 4.74-8.35 7.03-7.65 2.29 0.71 2.91 5.32 1.4 10.29z"/>
							</g>
							<g id="&lt;Group&gt;">
								<path id="&lt;Path&gt;" class="s5" d="m481.66 506.57l-0.99-0.27 1.65-5.94 0.98 0.27z"/>
								<path id="&lt;Path&gt;" class="s5" d="m493.12 503.25q-10.34-2.66-20.58-5.7l0.29-0.98q10.22 3.03 20.55 5.69z"/>
								<path id="&lt;Path&gt;" class="s8" d="m483.39 514.96c-0.95 3.53-3.91 6.01-5.59 7.17-0.71 0.49-1.47 0.28-1.83-0.5-0.85-1.86-2.1-5.51-1.1-9.03 1.43-5 4.46-8.52 6.76-7.87 2.32 0.63 3.1 5.21 1.76 10.23z"/>
							</g>
						</g>
						<g id="&lt;Group&gt;">
							<g id="&lt;Group&gt;">
								<path id="&lt;Path&gt;" class="s5" d="m502.54 511.96l-1-0.24 1.45-5.99 0.99 0.24z"/>
								<path id="&lt;Path&gt;" class="s5" d="m513.89 508.29c-6.95-1.59-13.88-3.23-20.77-5.03l0.26-1c6.88 1.81 13.8 3.44 20.73 5.02z"/>
								<path id="&lt;Path&gt;" class="s6" d="m504.53 520.3c-0.83 3.57-3.7 6.15-5.34 7.34-0.69 0.51-1.46 0.32-1.84-0.44-0.91-1.83-2.29-5.43-1.4-8.98 1.26-5.04 4.17-8.67 6.5-8.1 2.33 0.57 3.27 5.12 2.08 10.18z"/>
							</g>
							<g id="&lt;Group&gt;">
								<path id="&lt;Path&gt;" class="s5" d="m523.57 516.67l-1-0.2 1.26-6.04 0.99 0.21z"/>
								<path id="&lt;Path&gt;" class="s5" d="m534.8 512.62c-7-1.31-13.96-2.8-20.92-4.34l0.23-1c6.94 1.54 13.89 3.02 20.88 4.33z"/>
								<path id="&lt;Path&gt;" class="s7" d="m525.85 524.94c-0.72 3.58-3.51 6.25-5.11 7.51-0.67 0.53-1.45 0.37-1.85-0.38-0.98-1.78-2.46-5.36-1.69-8.93 1.09-5.09 3.88-8.77 6.23-8.3 2.35 0.48 3.43 5 2.42 10.1z"/>
							</g>
							<g id="&lt;Group&gt;">
								<path id="&lt;Path&gt;" class="s5" d="m544.75 520.69l-1.01-0.18 1.06-6.07 1 0.18z"/>
								<path id="&lt;Path&gt;" class="s5" d="m555.83 516.26c-7.03-1.11-14.04-2.29-21.03-3.64l0.19-1.01c6.98 1.35 13.98 2.53 21 3.64z"/>
								<path id="&lt;Path&gt;" class="s8" d="m547.3 528.87c-0.59 3.6-3.29 6.38-4.85 7.69-0.66 0.55-1.44 0.41-1.87-0.33-1.03-1.76-2.64-5.27-1.98-8.87 0.92-5.11 3.59-8.92 5.95-8.5 2.36 0.43 3.6 4.87 2.75 10.01z"/>
							</g>
						</g>
						<g id="&lt;Group&gt;">
							<g id="&lt;Group&gt;">
								<path id="&lt;Path&gt;" class="s5" d="m566.06 523.98l-1.02-0.14 0.84-6.11 1.01 0.14z"/>
								<path id="&lt;Path&gt;" class="s5" d="m576.96 519.16c-7.06-0.83-14.1-1.82-21.13-2.9l0.16-1.01c7.02 1.08 14.05 2.06 21.09 2.89z"/>
								<path id="&lt;Path&gt;" class="s6" d="m568.89 532.08c-0.47 3.62-3.07 6.47-4.58 7.83-0.64 0.58-1.42 0.47-1.88-0.25-1.09-1.72-2.83-5.16-2.3-8.79 0.75-5.13 3.28-9.04 5.66-8.72 2.37 0.33 3.76 4.77 3.1 9.93z"/>
							</g>
							<g id="&lt;Group&gt;">
								<path id="&lt;Path&gt;" class="s5" d="m587.44 526.49l-1.02-0.09 0.62-6.13 1.01 0.09z"/>
								<path id="&lt;Path&gt;" class="s5" d="m598.14 521.25c-7.07-0.54-14.13-1.27-21.19-2.09l0.12-1.02c7.05 0.82 14.1 1.55 21.15 2.08z"/>
								<path id="&lt;Path&gt;" class="s7" d="m590.58 534.46c-0.32 3.64-2.81 6.6-4.28 8.02-0.61 0.6-1.41 0.53-1.89-0.17-1.16-1.7-3.02-5.08-2.63-8.72 0.56-5.17 2.95-9.14 5.33-8.91 2.38 0.23 3.94 4.6 3.47 9.78z"/>
							</g>
							<g id="&lt;Group&gt;">
								<path id="&lt;Path&gt;" class="s5" d="m608.9 528.16l-1.02-0.07 0.35-6.15 1.01 0.06z"/>
								<path id="&lt;Path&gt;" class="s5" d="m619.34 522.46c-7.07-0.26-14.14-0.63-21.2-1.21l0.08-1.03c7.05 0.58 14.1 0.95 21.15 1.21z"/>
								<path id="&lt;Path&gt;" class="s8" d="m612.37 535.98c-0.17 3.65-2.54 6.73-3.95 8.21-0.58 0.62-1.38 0.57-1.89-0.12-1.24-1.64-3.24-4.94-2.99-8.59 0.35-5.19 2.56-9.27 4.95-9.12 2.38 0.15 4.12 4.42 3.88 9.62z"/>
							</g>
						</g>
						<g id="&lt;Group&gt;">
							<g id="&lt;Group&gt;">
								<path id="&lt;Path&gt;" class="s5" d="m630.38 528.85l-1.02-0.01 0.06-6.16 1.01 0.01z"/>
								<path id="&lt;Path&gt;" class="s5" d="m640.49 522.66c-7.04 0.08-14.09 0.05-21.15-0.2l0.03-1.03c7.05 0.26 14.09 0.29 21.11 0.2z"/>
								<path id="&lt;Path&gt;" class="s6" d="m634.23 536.51c0.01 3.67-2.22 6.84-3.56 8.37-0.56 0.65-1.36 0.64-1.91-0.02-1.31-1.57-3.47-4.77-3.39-8.42 0.11-5.2 2.13-9.39 4.51-9.36 2.39 0.04 4.33 4.24 4.35 9.43z"/>
							</g>
							<g id="&lt;Group&gt;">
								<path id="&lt;Path&gt;" class="s5" d="m651.82 528.44l-1.02 0.04-0.28-6.15 1-0.05z"/>
								<path id="&lt;Path&gt;" class="s5" d="m661.51 521.67q-10.46 0.78-21.02 0.99l-0.02-1.03q10.53-0.21 20.96-0.99z"/>
								<path id="&lt;Path&gt;" class="s7" d="m656.1 535.87c0.23 3.67-1.82 6.94-3.08 8.56-0.52 0.68-1.33 0.71-1.92 0.09-1.4-1.5-3.74-4.56-3.86-8.23-0.17-5.19 1.62-9.48 3.99-9.6 2.37-0.1 4.55 4.01 4.87 9.18z"/>
							</g>
							<g id="&lt;Group&gt;">
								<path id="&lt;Path&gt;" class="s5" d="m673.14 526.7l-1.01 0.11-0.7-6.12 0.99-0.11z"/>
								<path id="&lt;Path&gt;" class="s5" d="m682.25 519.24c-6.85 1.06-13.77 1.85-20.74 2.43l-0.08-1.03c6.94-0.57 13.84-1.36 20.66-2.41z"/>
								<path id="&lt;Path&gt;" class="s8" d="m677.93 533.81c0.49 3.64-1.33 7.07-2.49 8.76-0.48 0.71-1.29 0.8-1.92 0.22-1.52-1.39-4.06-4.29-4.42-7.95-0.5-5.16 0.99-9.57 3.33-9.84 2.35-0.26 4.8 3.67 5.5 8.81z"/>
							</g>
						</g>
						<g id="&lt;Group&gt;">
							<g id="&lt;Group&gt;">
								<path id="&lt;Path&gt;" class="s5" d="m694.17 523.33l-0.99 0.2-1.23-6.04 0.96-0.19z"/>
								<path id="&lt;Path&gt;" class="s5" d="m702.43 515.05q-9.9 2.59-20.18 4.19l-0.16-1.01q10.23-1.6 20.08-4.17z"/>
								<path id="&lt;Path&gt;" class="s6" d="m699.57 529.97c0.83 3.55-0.68 7.18-1.7 8.97-0.43 0.75-1.24 0.91-1.92 0.38-1.65-1.26-4.45-3.94-5.11-7.54-0.93-5.11 0.18-9.63 2.48-10.08 2.3-0.43 5.07 3.18 6.25 8.27z"/>
							</g>
							<g id="&lt;Group&gt;">
								<path id="&lt;Path&gt;" class="s5" d="m714.6 517.86l-0.95 0.33-1.92-5.86 0.91-0.31z"/>
								<path id="&lt;Path&gt;" class="s5" d="m721.61 508.68c-6.15 2.56-12.59 4.64-19.18 6.37l-0.26-0.99c6.55-1.72 12.95-3.79 19.04-6.32z"/>
								<path id="&lt;Path&gt;" class="s7" d="m720.77 523.82c1.27 3.43 0.17 7.16-0.65 9.09-0.34 0.81-1.14 1.09-1.89 0.65-1.81-1.05-4.93-3.44-5.97-6.94-1.49-5-0.87-9.52 1.31-10.27 2.17-0.75 5.4 2.6 7.2 7.47z"/>
							</g>
							<g id="&lt;Group&gt;">
								<path id="&lt;Path&gt;" class="s5" d="m733.86 509.71q-0.43 0.24-0.88 0.46l-2.84-5.47q0.42-0.2 0.82-0.43z"/>
								<path id="&lt;Path&gt;" class="s5" d="m738.88 499.54c-5.3 3.56-11.13 6.6-17.28 9.15l-0.39-0.95c6.09-2.53 11.86-5.53 17.1-9.05z"/>
								<path id="&lt;Path&gt;" class="s8" d="m740.94 514.5c1.86 3.15 1.39 7.05 0.86 9.13-0.21 0.88-0.98 1.28-1.82 0.95-2-0.74-5.47-2.55-7.03-5.86-2.21-4.71-2.37-9.34-0.35-10.34 1.96-1.09 5.69 1.65 8.34 6.12z"/>
							</g>
						</g>
					</g>
				</g>
			</g>
			<g id="&lt;Group&gt;" style="mix-blend-mode: multiply">
				<path id="&lt;Path&gt;" class="s3" d="m661.88 476.37c10.21 10.04 24.46 16.28 40.2 16.28q3.64-0.01 6.95-0.18l-41.34-78.51-127.28-241.57-127.24 241.57-40.57 77.04c3.03 0.25 6.25 0.38 9.74 0.38 15.39 0 29.34-6.06 39.41-15.87 10.21 9.99 24.41 16.19 40.1 16.19 15.59 0 29.69-6.11 39.91-15.97 10.16 10.04 24.41 16.29 40.15 16.29 15.59 0 29.74-6.11 39.91-15.97 10.21 10.04 24.46 16.28 40.2 16.28 15.59 0 29.69-6.1 39.86-15.96z"/>
			</g>
			<g id="&lt;Group&gt;">
				<path id="&lt;Path&gt;" class="s9" d="m694.36 353.21l-59.07-112.08-95.02-180.47-95.08 180.47-57.78 109.7c-16.04 31.1-66.27 104.66 9.58 104.66 13.66 0 26.03-5.92 34.95-15.51 9.06 9.76 21.65 15.82 35.56 15.82 13.83 0 26.33-5.97 35.39-15.6 9.01 9.81 21.65 15.91 35.61 15.91 13.83 0 26.37-5.97 35.39-15.6 9.05 9.81 21.69 15.91 35.65 15.91 13.83 0 26.33-5.97 35.34-15.6 9.06 9.81 21.69 15.91 35.65 15.91 76.12 0 31.11-70.69 13.83-103.52z"/>
			</g>
			<path id="&lt;Path&gt;" class="s10" d="m567.92 147.89c-5.45-9.87-14.81-17.99-24.58-8.84-10.83 10.15-12.27 27.94-11.16 41.71 2.64 32.63 8.48 65.04 10.21 97.72 0.82 15.54 0.86 31.39-7.86 44.78-7.9 12.13-16.96 17.43-14.74 33.88 2.44 18.07 14.98 39.23 28.17 51.71 23.13 21.87 50.84 25.18 81.02 21.76 15.79-1.79 38.01-0.17 49.89-12.27 11.35-11.58 5.5-30.09 0.39-43.72-7.63-20.4-17.96-39.72-25.59-60.23-15.34-41.27-30.06-83.56-47.72-123.78-6.56-14.93-16.89-38.1-38.03-42.72z"/>
			<g id="&lt;Group&gt;">
				<path id="&lt;Compound Path&gt;" fill-rule="evenodd" class="s3" d="m544.02 169.07c-4.17 0-7.53-3.37-7.53-7.53 0-4.16 3.36-7.53 7.53-7.53 4.16 0 7.52 3.37 7.52 7.53 0 4.16-3.36 7.53-7.52 7.53zm6.38-7.53c0-3.53-2.85-6.39-6.38-6.39-3.54 0-6.39 2.86-6.39 6.39 0 3.53 2.85 6.39 6.39 6.39 3.53 0 6.38-2.86 6.38-6.39z"/>
				<g id="&lt;Group&gt;">
					<path id="&lt;Path&gt;" class="s11" d="m562.23 191.91c0 10.07-8.15 18.22-18.22 18.22-8.35 0-15.4-5.63-17.54-13.31 3.15 5.45 9.04 9.11 15.78 9.11 10.06 0 18.21-8.16 18.21-18.22q0-2.56-0.67-4.91c1.56 2.68 2.44 5.8 2.44 9.11z"/>
					<path id="&lt;Path&gt;" class="s12" d="m560.46 187.71c0 10.06-8.15 18.22-18.21 18.22-6.74 0-12.63-3.66-15.78-9.11q-0.66-2.35-0.67-4.91c0-10.06 8.15-18.21 18.21-18.21 6.74 0 12.63 3.66 15.78 9.1q0.67 2.35 0.67 4.91z"/>
				</g>
				<path id="&lt;Path&gt;" class="s13" d="m533.71 184.88c2.59-3.64 6.43-5.65 9.81-5.47 0.71 0.03 1.11-0.8 0.61-1.3q-0.39-0.39-0.85-0.72c-3.83-2.73-9.85-0.83-13.46 4.23-3.6 5.07-3.42 11.38 0.41 14.11q0.01 0.01 0.02 0.01c0.58 0.41 1.34-0.15 1.16-0.84-0.77-3-0.02-6.77 2.3-10.02z"/>
				<g id="&lt;Group&gt;">
					<path id="&lt;Path&gt;" class="s14" d="m551.45 172.44v2.87h-0.87v-2.2c0-0.31-0.13-0.6-0.33-0.81-0.21-0.2-0.5-0.33-0.81-0.33-0.63 0-1.15 0.51-1.15 1.14v2.2h-1.37v-2.2c0-0.31-0.13-0.6-0.33-0.81-0.21-0.2-0.5-0.33-0.81-0.33-0.63 0-1.15 0.51-1.15 1.14v2.2h-1.37v-2.2c0-0.31-0.13-0.6-0.34-0.81-0.2-0.2-0.49-0.33-0.8-0.33-0.63 0-1.15 0.51-1.15 1.14v2.2h-1.23v-2.2c0-0.31-0.13-0.6-0.34-0.81-0.21-0.2-0.49-0.33-0.81-0.33-0.63 0-1.14 0.51-1.14 1.14v2.2h-0.87v-2.87c0-1.86 1.52-3.37 3.38-3.37h8.12c1.85 0 3.37 1.51 3.37 3.37z"/>
					<path id="&lt;Path&gt;" class="s12" d="m539.4 172.3c0.21 0.21 0.34 0.5 0.34 0.81v2.2h-2.29v-2.2c0-0.63 0.51-1.14 1.14-1.14 0.32 0 0.6 0.13 0.81 0.33z"/>
					<path id="&lt;Path&gt;" class="s12" d="m542.92 172.3c0.21 0.21 0.34 0.5 0.34 0.81v2.2h-2.29v-2.2c0-0.63 0.52-1.14 1.15-1.14 0.31 0 0.6 0.13 0.8 0.33z"/>
					<path id="&lt;Path&gt;" class="s12" d="m546.59 172.3c0.2 0.21 0.33 0.5 0.33 0.81v2.2h-2.29v-2.2c0-0.63 0.52-1.14 1.15-1.14 0.31 0 0.6 0.13 0.81 0.33z"/>
					<path id="&lt;Path&gt;" class="s12" d="m550.58 173.11v2.2h-2.29v-2.2c0-0.63 0.52-1.14 1.15-1.14 0.31 0 0.6 0.13 0.81 0.33 0.2 0.21 0.33 0.5 0.33 0.81z"/>
				</g>
				<path id="&lt;Path&gt;" class="s14" d="m544.72 170.75h-1.4c-1.11 0-2.02-0.9-2.02-2.01 0-1.11 0.91-2.01 2.02-2.01h1.4c1.1 0 2.01 0.9 2.01 2.01 0 1.11-0.91 2.01-2.01 2.01z"/>
			</g>
			<g id="&lt;Group&gt;">
				<path id="&lt;Compound Path&gt;" fill-rule="evenodd" class="s3" d="m639.25 379.21c-4.16 0-7.52-3.36-7.52-7.53 0-4.16 3.36-7.52 7.52-7.52 4.16 0 7.53 3.36 7.53 7.52 0 4.17-3.37 7.53-7.53 7.53zm6.39-7.53c0-3.53-2.86-6.38-6.39-6.38-3.53 0-6.39 2.85-6.39 6.38 0 3.54 2.86 6.39 6.39 6.39 3.53 0 6.39-2.85 6.39-6.39z"/>
				<g id="&lt;Group&gt;">
					<path id="&lt;Path&gt;" class="s11" d="m657.47 402.06c0 10.06-8.16 18.22-18.22 18.22-8.36 0-15.4-5.63-17.55-13.31 3.15 5.44 9.04 9.1 15.78 9.1 10.06 0 18.22-8.16 18.22-18.22q-0.01-2.56-0.67-4.91c1.55 2.68 2.44 5.8 2.44 9.12z"/>
					<path id="&lt;Path&gt;" class="s12" d="m655.7 397.85c0 10.06-8.16 18.22-18.22 18.22-6.74 0-12.63-3.66-15.78-9.1q-0.66-2.35-0.67-4.91c0-10.06 8.16-18.22 18.22-18.22 6.74 0 12.63 3.66 15.78 9.1q0.66 2.35 0.67 4.91z"/>
				</g>
				<path id="&lt;Path&gt;" class="s13" d="m628.94 395.02c2.6-3.64 6.44-5.64 9.82-5.47 0.7 0.04 1.1-0.8 0.61-1.3q-0.39-0.39-0.85-0.72c-3.83-2.72-9.86-0.83-13.46 4.24-3.61 5.06-3.43 11.38 0.4 14.1q0.01 0.01 0.02 0.02c0.58 0.41 1.35-0.15 1.17-0.84-0.77-3-0.02-6.77 2.29-10.03z"/>
				<g id="&lt;Group&gt;">
					<path id="&lt;Path&gt;" class="s14" d="m646.68 382.58v2.87h-0.86v-2.19c0-0.32-0.13-0.61-0.34-0.81-0.2-0.21-0.49-0.34-0.81-0.34-0.63 0-1.14 0.52-1.14 1.15v2.19h-1.37v-2.19c0-0.32-0.13-0.61-0.34-0.81-0.21-0.21-0.49-0.34-0.81-0.34-0.63 0-1.14 0.52-1.14 1.15v2.19h-1.38v-2.19c0-0.32-0.13-0.61-0.33-0.81-0.21-0.21-0.5-0.34-0.81-0.34-0.63 0-1.14 0.52-1.14 1.15v2.19h-1.24v-2.19c0-0.32-0.13-0.61-0.33-0.81-0.21-0.21-0.5-0.34-0.81-0.34-0.63 0-1.15 0.52-1.15 1.15v2.19h-0.86v-2.87c0-1.85 1.52-3.37 3.37-3.37h8.12c1.86 0 3.37 1.52 3.37 3.37z"/>
					<path id="&lt;Path&gt;" class="s12" d="m634.64 382.45c0.2 0.2 0.33 0.49 0.33 0.81v2.19h-2.29v-2.19c0-0.63 0.52-1.15 1.15-1.15 0.31 0 0.6 0.13 0.81 0.34z"/>
					<path id="&lt;Path&gt;" class="s12" d="m638.16 382.45c0.2 0.2 0.33 0.49 0.33 0.81v2.19h-2.28v-2.19c0-0.63 0.51-1.15 1.14-1.15 0.31 0 0.6 0.13 0.81 0.34z"/>
					<path id="&lt;Path&gt;" class="s12" d="m641.82 382.45c0.21 0.2 0.34 0.49 0.34 0.81v2.19h-2.29v-2.19c0-0.63 0.51-1.15 1.14-1.15 0.32 0 0.6 0.13 0.81 0.34z"/>
					<path id="&lt;Path&gt;" class="s12" d="m645.82 383.26v2.19h-2.29v-2.19c0-0.63 0.51-1.15 1.14-1.15 0.32 0 0.61 0.13 0.81 0.34 0.21 0.2 0.34 0.49 0.34 0.81z"/>
				</g>
				<path id="&lt;Path&gt;" class="s14" d="m639.95 380.9h-1.4c-1.11 0-2.01-0.91-2.01-2.02 0-1.1 0.9-2.01 2.01-2.01h1.4c1.11 0 2.01 0.91 2.01 2.01 0 1.11-0.9 2.02-2.01 2.02z"/>
			</g>
			<g id="&lt;Group&gt;">
				<path id="&lt;Compound Path&gt;" fill-rule="evenodd" class="s3" d="m420.29 549.11c-4.16 0-7.52-3.36-7.52-7.53 0-4.16 3.36-7.52 7.52-7.52 4.16 0 7.53 3.36 7.53 7.52 0 4.17-3.37 7.53-7.53 7.53zm6.39-7.53c0-3.53-2.86-6.38-6.39-6.38-3.53 0-6.39 2.85-6.39 6.38 0 3.54 2.86 6.39 6.39 6.39 3.53 0 6.39-2.85 6.39-6.39z"/>
				<g id="&lt;Group&gt;">
					<path id="&lt;Path&gt;" class="s11" d="m438.51 571.96c0 10.06-8.16 18.22-18.22 18.22-8.36 0-15.4-5.63-17.54-13.31 3.15 5.44 9.03 9.1 15.77 9.1 10.06 0 18.22-8.15 18.22-18.22q-0.01-2.56-0.67-4.91c1.55 2.68 2.44 5.8 2.44 9.12z"/>
					<path id="&lt;Path&gt;" class="s12" d="m436.74 567.75c0 10.07-8.16 18.22-18.22 18.22-6.74 0-12.62-3.66-15.77-9.1q-0.67-2.35-0.67-4.91c0-10.06 8.15-18.22 18.21-18.22 6.74 0 12.63 3.66 15.78 9.1q0.66 2.35 0.67 4.91z"/>
				</g>
				<path id="&lt;Path&gt;" class="s13" d="m409.99 564.92c2.59-3.64 6.43-5.64 9.81-5.47 0.7 0.04 1.1-0.79 0.61-1.3q-0.39-0.39-0.85-0.72c-3.83-2.72-9.86-0.83-13.46 4.24-3.61 5.06-3.42 11.38 0.4 14.1q0.01 0.01 0.02 0.02c0.58 0.41 1.35-0.15 1.17-0.84-0.77-3-0.02-6.77 2.3-10.03z"/>
				<g id="&lt;Group&gt;">
					<path id="&lt;Path&gt;" class="s14" d="m427.72 552.48v2.87h-0.86v-2.19c0-0.32-0.13-0.61-0.34-0.81-0.2-0.21-0.49-0.34-0.8-0.34-0.63 0-1.15 0.52-1.15 1.15v2.19h-1.37v-2.19c0-0.32-0.13-0.61-0.34-0.81-0.21-0.21-0.49-0.34-0.81-0.34-0.63 0-1.14 0.52-1.14 1.15v2.19h-1.37v-2.19c0-0.32-0.13-0.61-0.34-0.81-0.21-0.21-0.49-0.34-0.81-0.34-0.63 0-1.14 0.52-1.14 1.15v2.19h-1.24v-2.19c0-0.32-0.13-0.61-0.33-0.81-0.21-0.21-0.5-0.34-0.81-0.34-0.63 0-1.14 0.52-1.14 1.15v2.19h-0.87v-2.87c0-1.85 1.52-3.37 3.37-3.37h8.12c1.86 0 3.37 1.52 3.37 3.37z"/>
					<path id="&lt;Path&gt;" class="s12" d="m415.68 552.35c0.2 0.2 0.33 0.49 0.33 0.81v2.19h-2.28v-2.19c0-0.63 0.51-1.15 1.14-1.15 0.31 0 0.6 0.13 0.81 0.34z"/>
					<path id="&lt;Path&gt;" class="s12" d="m419.2 552.35c0.21 0.2 0.34 0.49 0.34 0.81v2.19h-2.29v-2.19c0-0.63 0.51-1.15 1.14-1.15 0.32 0 0.6 0.13 0.81 0.34z"/>
					<path id="&lt;Path&gt;" class="s12" d="m422.86 552.35c0.21 0.2 0.34 0.49 0.34 0.81v2.19h-2.29v-2.19c0-0.63 0.51-1.15 1.14-1.15 0.32 0 0.6 0.13 0.81 0.34z"/>
					<path id="&lt;Path&gt;" class="s12" d="m426.86 553.16v2.19h-2.29v-2.19c0-0.63 0.52-1.15 1.15-1.15 0.31 0 0.6 0.13 0.8 0.34 0.21 0.2 0.34 0.49 0.34 0.81z"/>
				</g>
				<path id="&lt;Path&gt;" class="s14" d="m420.99 550.8h-1.4c-1.11 0-2.01-0.91-2.01-2.02 0-1.1 0.9-2.01 2.01-2.01h1.4c1.11 0 2.02 0.91 2.02 2.01 0 1.11-0.91 2.02-2.02 2.02z"/>
			</g>
			<g id="&lt;Group&gt;">
				<path id="&lt;Compound Path&gt;" fill-rule="evenodd" class="s3" d="m646.68 568.04c-4.16 0-7.52-3.36-7.52-7.53 0-4.16 3.36-7.52 7.52-7.52 4.16 0 7.53 3.36 7.53 7.52 0 4.17-3.37 7.53-7.53 7.53zm6.39-7.53c0-3.53-2.85-6.38-6.39-6.38-3.53 0-6.39 2.85-6.39 6.38 0 3.54 2.86 6.39 6.39 6.39 3.54 0 6.39-2.85 6.39-6.39z"/>
				<g id="&lt;Group&gt;">
					<path id="&lt;Path&gt;" class="s15" d="m664.9 590.89c0 10.06-8.16 18.22-18.22 18.22-8.36 0-15.4-5.63-17.54-13.31 3.15 5.44 9.03 9.1 15.77 9.1 10.06 0 18.22-8.16 18.22-18.22q-0.01-2.56-0.67-4.91c1.55 2.68 2.44 5.8 2.44 9.12z"/>
					<path id="&lt;Path&gt;" class="s7" d="m663.13 586.68c0 10.06-8.16 18.22-18.22 18.22-6.74 0-12.62-3.66-15.77-9.1q-0.67-2.35-0.67-4.91c0-10.06 8.15-18.22 18.21-18.22 6.74 0 12.63 3.66 15.78 9.1q0.66 2.35 0.67 4.91z"/>
				</g>
				<path id="&lt;Path&gt;" class="s16" d="m636.38 583.85c2.59-3.64 6.43-5.64 9.81-5.47 0.7 0.04 1.1-0.8 0.61-1.3q-0.39-0.39-0.85-0.72c-3.83-2.72-9.86-0.83-13.46 4.24-3.61 5.06-3.42 11.38 0.4 14.1q0.01 0.01 0.02 0.02c0.58 0.41 1.35-0.15 1.17-0.84-0.77-3-0.02-6.77 2.3-10.03z"/>
				<g id="&lt;Group&gt;">
					<path id="&lt;Path&gt;" class="s14" d="m654.11 571.41v2.87h-0.86v-2.19c0-0.32-0.13-0.61-0.34-0.81-0.2-0.21-0.49-0.34-0.8-0.34-0.63 0-1.15 0.52-1.15 1.15v2.19h-1.37v-2.19c0-0.32-0.13-0.61-0.34-0.81-0.21-0.21-0.49-0.34-0.81-0.34-0.63 0-1.14 0.52-1.14 1.15v2.19h-1.37v-2.19c0-0.32-0.13-0.61-0.34-0.81-0.21-0.21-0.49-0.34-0.81-0.34-0.63 0-1.14 0.52-1.14 1.15v2.19h-1.24v-2.19c0-0.32-0.13-0.61-0.33-0.81-0.21-0.21-0.5-0.34-0.81-0.34-0.63 0-1.14 0.52-1.14 1.15v2.19h-0.87v-2.87c0-1.85 1.52-3.37 3.37-3.37h8.12c1.86 0 3.37 1.52 3.37 3.37z"/>
					<path id="&lt;Path&gt;" class="s7" d="m642.07 571.28c0.2 0.2 0.33 0.49 0.33 0.81v2.19h-2.28v-2.19c0-0.63 0.51-1.15 1.14-1.15 0.31 0 0.6 0.13 0.81 0.34z"/>
					<path id="&lt;Path&gt;" class="s7" d="m645.59 571.28c0.21 0.2 0.34 0.49 0.34 0.81v2.19h-2.29v-2.19c0-0.63 0.51-1.15 1.14-1.15 0.32 0 0.6 0.13 0.81 0.34z"/>
					<path id="&lt;Path&gt;" class="s7" d="m649.25 571.28c0.21 0.2 0.34 0.49 0.34 0.81v2.19h-2.29v-2.19c0-0.63 0.51-1.15 1.14-1.15 0.32 0 0.6 0.13 0.81 0.34z"/>
					<path id="&lt;Path&gt;" class="s7" d="m653.25 572.09v2.19h-2.29v-2.19c0-0.63 0.52-1.15 1.15-1.15 0.31 0 0.6 0.13 0.8 0.34 0.21 0.2 0.34 0.49 0.34 0.81z"/>
				</g>
				<path id="&lt;Path&gt;" class="s14" d="m647.38 569.73h-1.4c-1.11 0-2.01-0.91-2.01-2.02 0-1.1 0.9-2.01 2.01-2.01h1.4c1.11 0 2.02 0.91 2.02 2.01 0 1.11-0.91 2.02-2.02 2.02z"/>
			</g>
			<g id="&lt;Group&gt;">
				<path id="&lt;Compound Path&gt;" fill-rule="evenodd" class="s3" d="m390.82 755.84c-4.16 0-7.53-3.37-7.53-7.53 0-4.16 3.37-7.52 7.53-7.52 4.16 0 7.52 3.36 7.52 7.52 0 4.16-3.36 7.53-7.52 7.53zm6.39-7.53c0-3.53-2.86-6.39-6.39-6.39-3.53 0-6.39 2.86-6.39 6.39 0 3.53 2.86 6.39 6.39 6.39 3.53 0 6.39-2.86 6.39-6.39z"/>
				<g id="&lt;Group&gt;">
					<path id="&lt;Path&gt;" class="s15" d="m409.04 778.68c0 10.07-8.16 18.22-18.22 18.22-8.36 0-15.41-5.63-17.55-13.3 3.15 5.44 9.04 9.1 15.78 9.1 10.06 0 18.22-8.16 18.22-18.22q-0.01-2.56-0.68-4.91c1.56 2.68 2.45 5.8 2.45 9.11z"/>
					<path id="&lt;Path&gt;" class="s7" d="m407.27 774.48c0 10.06-8.16 18.22-18.22 18.22-6.74 0-12.63-3.66-15.78-9.1q-0.66-2.35-0.67-4.92c0-10.06 8.16-18.21 18.22-18.21 6.74 0 12.63 3.66 15.77 9.1q0.67 2.35 0.68 4.91z"/>
				</g>
				<path id="&lt;Path&gt;" class="s16" d="m380.51 771.65c2.59-3.64 6.44-5.64 9.81-5.47 0.71 0.04 1.11-0.8 0.62-1.3q-0.39-0.39-0.85-0.72c-3.83-2.73-9.86-0.83-13.46 4.24-3.61 5.06-3.43 11.38 0.4 14.1q0.01 0.01 0.02 0.01c0.58 0.41 1.34-0.15 1.17-0.83-0.78-3.01-0.02-6.78 2.29-10.03z"/>
				<g id="&lt;Group&gt;">
					<path id="&lt;Path&gt;" class="s14" d="m398.25 759.21v2.87h-0.86v-2.2c0-0.31-0.13-0.6-0.34-0.8-0.21-0.21-0.49-0.34-0.81-0.34-0.63 0-1.14 0.51-1.14 1.14v2.2h-1.38v-2.2c0-0.31-0.12-0.6-0.33-0.8-0.21-0.21-0.5-0.34-0.81-0.34-0.63 0-1.14 0.51-1.14 1.14v2.2h-1.38v-2.2c0-0.31-0.13-0.6-0.33-0.8-0.21-0.21-0.5-0.34-0.81-0.34-0.63 0-1.15 0.51-1.15 1.14v2.2h-1.23v-2.2c0-0.31-0.13-0.6-0.34-0.8-0.2-0.21-0.49-0.34-0.8-0.34-0.63 0-1.15 0.51-1.15 1.14v2.2h-0.86v-2.87c0-1.86 1.51-3.37 3.37-3.37h8.12c1.85 0 3.37 1.51 3.37 3.37z"/>
					<path id="&lt;Path&gt;" class="s7" d="m386.2 759.08c0.21 0.2 0.34 0.49 0.34 0.8v2.2h-2.29v-2.2c0-0.63 0.52-1.14 1.15-1.14 0.31 0 0.6 0.13 0.8 0.34z"/>
					<path id="&lt;Path&gt;" class="s7" d="m389.73 759.08c0.2 0.2 0.33 0.49 0.33 0.8v2.2h-2.29v-2.2c0-0.63 0.52-1.14 1.15-1.14 0.31 0 0.6 0.13 0.81 0.34z"/>
					<path id="&lt;Path&gt;" class="s7" d="m393.39 759.08c0.21 0.2 0.33 0.49 0.33 0.8v2.2h-2.28v-2.2c0-0.63 0.51-1.14 1.14-1.14 0.31 0 0.6 0.13 0.81 0.34z"/>
					<path id="&lt;Path&gt;" class="s7" d="m397.39 759.88v2.2h-2.29v-2.2c0-0.63 0.51-1.14 1.14-1.14 0.32 0 0.6 0.13 0.81 0.34 0.21 0.2 0.34 0.49 0.34 0.8z"/>
				</g>
				<path id="&lt;Path&gt;" class="s14" d="m391.52 757.52h-1.4c-1.11 0-2.01-0.9-2.01-2.01 0-1.1 0.9-2.01 2.01-2.01h1.4c1.11 0 2.01 0.91 2.01 2.01 0 1.11-0.9 2.01-2.01 2.01z"/>
			</g>
			<g id="&lt;Group&gt;">
				<path id="&lt;Compound Path&gt;" fill-rule="evenodd" class="s3" d="m476.61 305.99c-4.16 0-7.53-3.36-7.53-7.53 0-4.16 3.37-7.52 7.53-7.52 4.16 0 7.53 3.36 7.53 7.52 0 4.17-3.37 7.53-7.53 7.53zm6.39-7.53c0-3.53-2.86-6.38-6.39-6.38-3.53 0-6.39 2.85-6.39 6.38 0 3.54 2.86 6.39 6.39 6.39 3.53 0 6.39-2.85 6.39-6.39z"/>
				<g id="&lt;Group&gt;">
					<path id="&lt;Path&gt;" class="s15" d="m494.83 328.84c0 10.06-8.16 18.22-18.22 18.22-8.36 0-15.41-5.63-17.55-13.31 3.15 5.44 9.04 9.1 15.78 9.1 10.06 0 18.22-8.16 18.22-18.22q-0.01-2.56-0.67-4.91c1.55 2.68 2.44 5.8 2.44 9.12z"/>
					<path id="&lt;Path&gt;" class="s7" d="m493.06 324.63c0 10.06-8.16 18.22-18.22 18.22-6.74 0-12.63-3.66-15.78-9.1q-0.66-2.35-0.67-4.91c0-10.06 8.16-18.22 18.22-18.22 6.74 0 12.63 3.66 15.78 9.1q0.66 2.35 0.67 4.91z"/>
				</g>
				<path id="&lt;Path&gt;" class="s16" d="m466.3 321.8c2.59-3.64 6.44-5.64 9.82-5.47 0.7 0.04 1.1-0.8 0.61-1.3q-0.39-0.39-0.85-0.72c-3.83-2.72-9.86-0.83-13.46 4.24-3.61 5.06-3.43 11.38 0.4 14.1q0.01 0.01 0.02 0.02c0.58 0.41 1.35-0.15 1.17-0.84-0.77-3.01-0.02-6.77 2.29-10.03z"/>
				<g id="&lt;Group&gt;">
					<path id="&lt;Path&gt;" class="s14" d="m484.04 309.36v2.87h-0.86v-2.2c0-0.31-0.13-0.6-0.34-0.8-0.21-0.21-0.49-0.34-0.81-0.34-0.63 0-1.14 0.52-1.14 1.14v2.2h-1.37v-2.2c0-0.31-0.13-0.6-0.34-0.8-0.21-0.21-0.49-0.34-0.81-0.34-0.63 0-1.14 0.52-1.14 1.14v2.2h-1.38v-2.2c0-0.31-0.13-0.6-0.33-0.8-0.21-0.21-0.5-0.34-0.81-0.34-0.63 0-1.14 0.52-1.14 1.14v2.2h-1.24v-2.2c0-0.31-0.13-0.6-0.33-0.8-0.21-0.21-0.5-0.34-0.81-0.34-0.63 0-1.15 0.52-1.15 1.14v2.2h-0.86v-2.87c0-1.85 1.52-3.37 3.37-3.37h8.12c1.86 0 3.37 1.52 3.37 3.37z"/>
					<path id="&lt;Path&gt;" class="s7" d="m472 309.23c0.2 0.2 0.33 0.49 0.33 0.8v2.2h-2.29v-2.2c0-0.62 0.52-1.14 1.15-1.14 0.31 0 0.6 0.13 0.81 0.34z"/>
					<path id="&lt;Path&gt;" class="s7" d="m475.52 309.23c0.2 0.2 0.33 0.49 0.33 0.8v2.2h-2.28v-2.2c0-0.62 0.51-1.14 1.14-1.14 0.31 0 0.6 0.13 0.81 0.34z"/>
					<path id="&lt;Path&gt;" class="s7" d="m479.18 309.23c0.21 0.2 0.34 0.49 0.34 0.8v2.2h-2.29v-2.2c0-0.62 0.51-1.14 1.14-1.14 0.32 0 0.6 0.13 0.81 0.34z"/>
					<path id="&lt;Path&gt;" class="s7" d="m483.18 310.03v2.2h-2.29v-2.2c0-0.62 0.51-1.14 1.14-1.14 0.32 0 0.6 0.13 0.81 0.34 0.21 0.2 0.34 0.49 0.34 0.8z"/>
				</g>
				<path id="&lt;Path&gt;" class="s14" d="m477.31 307.68h-1.4c-1.11 0-2.01-0.91-2.01-2.02 0-1.1 0.9-2.01 2.01-2.01h1.4c1.11 0 2.01 0.91 2.01 2.01 0 1.11-0.9 2.02-2.01 2.02z"/>
			</g>
			<path id="&lt;Path&gt;" class="s10" d="m605.22 764.13c5.64 8.36-9.86 22.23-16.59 25.87-17.21 9.3-39.42 5.82-57.74 12.82-34.44 13.16-72.17 48.21-74.2 87.65-1.71 33.09 35.8 40.96 61.92 34.68 21.32-5.14 36.01-17.31 53.99-28.85 13.03-8.36 24.71-13.45 40.1-9.48 18.08 4.67 27.52 24.46 47.16 25.07 9.79 0.3 19.19-3.67 29.02-3.78 15.07-0.18 30.94-0.51 44.85 5.67 5.66 2.52 11.02 5.44 16.11 8.95 4.08 2.82 9.72 9.48 14.54 10.73 7.09 1.85 13.07-6.63 16.59-12.37 10.32-16.83 5.56-42.21-0.23-59.7-6.21-18.79-19.17-33.71-31.14-49.15-12.59-16.24-30.35-24.65-46.48-36.71-11.96-8.94-23.22-13.1-37.43-15.85-24.81-4.79-47.14-16.67-60.47 4.45z"/>
			<g id="&lt;Group&gt;">
				<path id="&lt;Compound Path&gt;" fill-rule="evenodd" class="s3" d="m673.98 756.64c-4.16 0-7.52-3.37-7.52-7.53 0-4.16 3.36-7.52 7.52-7.52 4.16 0 7.53 3.36 7.53 7.52 0 4.16-3.37 7.53-7.53 7.53zm6.39-7.53c0-3.53-2.86-6.39-6.39-6.39-3.53 0-6.39 2.86-6.39 6.39 0 3.54 2.86 6.39 6.39 6.39 3.53 0 6.39-2.85 6.39-6.39z"/>
				<g id="&lt;Group&gt;">
					<path id="&lt;Path&gt;" class="s11" d="m692.2 779.49c0 10.06-8.16 18.21-18.22 18.21-8.36 0-15.4-5.63-17.55-13.3 3.15 5.44 9.04 9.1 15.78 9.1 10.06 0 18.22-8.16 18.22-18.22q-0.01-2.56-0.67-4.91c1.55 2.68 2.44 5.8 2.44 9.12z"/>
					<path id="&lt;Path&gt;" class="s12" d="m690.43 775.28c0 10.06-8.16 18.22-18.22 18.22-6.74 0-12.63-3.66-15.78-9.1q-0.66-2.35-0.67-4.91c0-10.06 8.16-18.22 18.22-18.22 6.74 0 12.63 3.66 15.78 9.1q0.66 2.35 0.67 4.91z"/>
				</g>
				<path id="&lt;Path&gt;" class="s13" d="m663.67 772.45c2.6-3.64 6.44-5.64 9.82-5.47 0.7 0.04 1.1-0.8 0.61-1.3q-0.39-0.39-0.85-0.72c-3.83-2.73-9.86-0.83-13.46 4.24-3.61 5.06-3.43 11.38 0.4 14.1q0.01 0.01 0.02 0.01c0.58 0.42 1.35-0.15 1.17-0.83-0.77-3.01-0.02-6.78 2.29-10.03z"/>
				<g id="&lt;Group&gt;">
					<path id="&lt;Path&gt;" class="s14" d="m681.41 760.01v2.87h-0.86v-2.2c0-0.31-0.13-0.6-0.34-0.8-0.2-0.21-0.49-0.34-0.81-0.34-0.63 0-1.14 0.51-1.14 1.14v2.2h-1.37v-2.2c0-0.31-0.13-0.6-0.34-0.8-0.21-0.21-0.49-0.34-0.81-0.34-0.63 0-1.14 0.51-1.14 1.14v2.2h-1.38v-2.2c0-0.31-0.13-0.6-0.33-0.8-0.21-0.21-0.5-0.34-0.81-0.34-0.63 0-1.14 0.51-1.14 1.14v2.2h-1.24v-2.2c0-0.31-0.13-0.6-0.33-0.8-0.21-0.21-0.5-0.34-0.81-0.34-0.63 0-1.15 0.51-1.15 1.14v2.2h-0.86v-2.87c0-1.86 1.52-3.37 3.37-3.37h8.12c1.86 0 3.37 1.51 3.37 3.37z"/>
					<path id="&lt;Path&gt;" class="s12" d="m669.37 759.88c0.2 0.2 0.33 0.49 0.33 0.8v2.2h-2.29v-2.2c0-0.63 0.52-1.14 1.15-1.14 0.31 0 0.6 0.13 0.81 0.34z"/>
					<path id="&lt;Path&gt;" class="s12" d="m672.89 759.88c0.2 0.2 0.33 0.49 0.33 0.8v2.2h-2.28v-2.2c0-0.63 0.51-1.14 1.14-1.14 0.31 0 0.6 0.13 0.81 0.34z"/>
					<path id="&lt;Path&gt;" class="s12" d="m676.55 759.88c0.21 0.2 0.34 0.49 0.34 0.8v2.2h-2.29v-2.2c0-0.63 0.51-1.14 1.14-1.14 0.32 0 0.6 0.13 0.81 0.34z"/>
					<path id="&lt;Path&gt;" class="s12" d="m680.55 760.68v2.2h-2.29v-2.2c0-0.63 0.51-1.14 1.14-1.14 0.32 0 0.61 0.13 0.81 0.34 0.21 0.2 0.34 0.49 0.34 0.8z"/>
				</g>
				<path id="&lt;Path&gt;" class="s14" d="m674.68 758.33h-1.4c-1.11 0-2.01-0.91-2.01-2.02 0-1.1 0.9-2.01 2.01-2.01h1.4c1.11 0 2.01 0.91 2.01 2.01 0 1.11-0.9 2.02-2.01 2.02z"/>
			</g>
			<g id="&lt;Clip Group&gt;" clip-path="url(#cp2)">
				<g id="&lt;Group&gt;">
					<g id="&lt;Group&gt;">
						<g id="&lt;Group&gt;">
							<path id="&lt;Path&gt;" class="s5" d="m305.13 808.49l-0.96-0.57 3.63-5.82 0.9 0.54z"/>
							<path id="&lt;Path&gt;" class="s5" d="m317.96 807.81c-6.67-3.42-13.01-7.24-18.67-11.55l0.7-0.91c5.58 4.26 11.87 8.05 18.49 11.44z"/>
							<path id="&lt;Path&gt;" class="s6" d="m304.49 818.01c-2 3.58-5.97 5.3-8.23 5.97-0.94 0.28-1.76-0.21-1.93-1.16-0.43-2.34-0.65-6.72 1.64-10.09 3.27-4.8 7.56-7.5 9.71-6.2 2.18 1.3 1.63 6.46-1.19 11.48z"/>
						</g>
						<g id="&lt;Group&gt;">
							<path id="&lt;Path&gt;" class="s5" d="m325.98 819.15l-1.03-0.44 2.75-6.28 1.01 0.42z"/>
							<path id="&lt;Path&gt;" class="s5" d="m338.83 816.95c-7.19-2.71-14.19-5.73-20.87-9.15l0.52-1.01c6.63 3.39 13.6 6.39 20.76 9.09z"/>
							<path id="&lt;Path&gt;" class="s7" d="m326.64 828.66c-1.53 3.78-5.2 6.06-7.29 7.05-0.87 0.42-1.72 0.06-2.01-0.85-0.71-2.23-1.53-6.5 0.2-10.18 2.46-5.25 6.33-8.58 8.71-7.56 2.39 1.01 2.57 6.18 0.39 11.54z"/>
						</g>
						<g id="&lt;Group&gt;">
							<path id="&lt;Path&gt;" class="s5" d="m348.15 827.47l-1.07-0.36 2.15-6.51 1.05 0.35z"/>
							<path id="&lt;Path&gt;" class="s5" d="m360.89 824.2c-7.48-2.17-14.86-4.56-22.06-7.25l0.4-1.07c7.17 2.68 14.52 5.06 21.97 7.22z"/>
							<path id="&lt;Path&gt;" class="s8" d="m349.67 836.87c-1.2 3.88-4.64 6.55-6.6 7.71-0.82 0.49-1.68 0.21-2.04-0.68-0.89-2.13-2.11-6.25-0.76-10.1 1.91-5.46 5.47-9.21 7.96-8.38 2.48 0.85 3.15 5.91 1.44 11.45z"/>
						</g>
					</g>
					<g id="&lt;Group&gt;">
						<g id="&lt;Group&gt;">
							<path id="&lt;Path&gt;" class="s5" d="m371.04 834.06l-1.1-0.29 1.7-6.65 1.08 0.29z"/>
							<path id="&lt;Path&gt;" class="s5" d="m383.6 829.98c-7.65-1.71-15.24-3.61-22.71-5.78l0.31-1.1c7.45 2.17 15.02 4.06 22.65 5.76z"/>
							<path id="&lt;Path&gt;" class="s6" d="m373.18 843.33c-0.94 3.96-4.18 6.8-6.05 8.13-0.78 0.57-1.65 0.33-2.07-0.53-1.01-2.06-2.5-6.1-1.44-10.03 1.51-5.58 4.8-9.57 7.35-8.9 2.57 0.64 3.56 5.7 2.21 11.33z"/>
						</g>
						<g id="&lt;Group&gt;">
							<path id="&lt;Path&gt;" class="s5" d="m394.35 839.25l-1.12-0.22 1.34-6.73 1.1 0.22z"/>
							<path id="&lt;Path&gt;" class="s5" d="m406.73 834.55q-11.65-1.99-23.13-4.57l0.25-1.12q11.45 2.58 23.07 4.56z"/>
							<path id="&lt;Path&gt;" class="s7" d="m396.99 848.41c-0.75 4-3.82 7.01-5.61 8.44-0.75 0.6-1.62 0.42-2.08-0.42-1.11-1.99-2.82-5.95-1.98-9.93 1.19-5.66 4.25-9.82 6.85-9.29 2.61 0.5 3.87 5.51 2.82 11.2z"/>
						</g>
						<g id="&lt;Group&gt;">
							<path id="&lt;Path&gt;" class="s5" d="m417.94 843.31l-1.13-0.17 1.03-6.78 1.11 0.17z"/>
							<path id="&lt;Path&gt;" class="s5" d="m430.12 838.08c-7.83-1.03-15.64-2.17-23.39-3.53l0.19-1.13c7.74 1.37 15.53 2.5 23.35 3.53z"/>
							<path id="&lt;Path&gt;" class="s8" d="m420.98 852.34c-0.57 4.03-3.51 7.18-5.22 8.69-0.72 0.63-1.59 0.49-2.09-0.33-1.2-1.94-3.08-5.8-2.43-9.82 0.92-5.71 3.8-10.01 6.43-9.6 2.63 0.4 4.11 5.33 3.31 11.06z"/>
						</g>
					</g>
					<g id="&lt;Group&gt;">
						<g id="&lt;Group&gt;">
							<path id="&lt;Path&gt;" class="s5" d="m441.71 846.38l-1.14-0.13 0.76-6.82 1.12 0.13z"/>
							<path id="&lt;Path&gt;" class="s5" d="m453.69 840.7c-7.87-0.76-15.74-1.57-23.57-2.62l0.15-1.13c7.81 1.04 15.67 1.85 23.53 2.61z"/>
							<path id="&lt;Path&gt;" class="s6" d="m445.09 855.29c-0.41 4.06-3.22 7.32-4.86 8.87-0.69 0.66-1.57 0.56-2.1-0.23-1.27-1.89-3.3-5.67-2.82-9.71 0.69-5.75 3.4-10.16 6.04-9.86 2.65 0.3 4.33 5.18 3.74 10.93z"/>
						</g>
						<g id="&lt;Group&gt;">
							<path id="&lt;Path&gt;" class="s5" d="m465.59 848.55l-1.14-0.08 0.51-6.84 1.13 0.08z"/>
							<path id="&lt;Path&gt;" class="s5" d="m477.38 842.45c-7.91-0.42-15.81-1.07-23.69-1.75l0.1-1.14c7.88 0.68 15.75 1.33 23.65 1.75z"/>
							<path id="&lt;Path&gt;" class="s7" d="m469.29 857.35c-0.27 4.06-2.95 7.4-4.54 9.03-0.67 0.68-1.55 0.62-2.11-0.16-1.33-1.82-3.49-5.54-3.16-9.6 0.48-5.77 3.02-10.26 5.68-10.07 2.66 0.19 4.51 5.02 4.13 10.8z"/>
						</g>
						<g id="&lt;Group&gt;">
							<path id="&lt;Path&gt;" class="s5" d="m489.54 849.91l-1.14-0.05 0.28-6.85 1.13 0.05z"/>
							<path id="&lt;Path&gt;" class="s5" d="m501.13 843.4q-11.89-0.26-23.75-0.95l0.06-1.14q11.85 0.68 23.71 0.95z"/>
							<path id="&lt;Path&gt;" class="s8" d="m493.54 858.56c-0.13 4.07-2.7 7.51-4.24 9.19-0.64 0.71-1.52 0.68-2.1-0.08-1.39-1.8-3.68-5.44-3.48-9.51 0.27-5.78 2.66-10.36 5.33-10.24 2.67 0.09 4.68 4.85 4.49 10.64z"/>
						</g>
					</g>
					<g id="&lt;Group&gt;">
						<g id="&lt;Group&gt;">
							<path id="&lt;Path&gt;" class="s5" d="m513.53 850.45l-1.14-0.01 0.06-6.86 1.13 0.01z"/>
							<path id="&lt;Path&gt;" class="s5" d="m524.9 843.59c-7.92 0.04-15.85 0.03-23.77-0.18l0.02-1.15c7.91 0.22 15.83 0.23 23.74 0.19z"/>
							<path id="&lt;Path&gt;" class="s6" d="m517.82 858.98c0 4.08-2.46 7.6-3.94 9.32-0.61 0.72-1.5 0.71-2.1-0.02-1.45-1.75-3.86-5.3-3.8-9.37 0.09-5.78 2.33-10.46 5-10.43 2.67 0.03 4.83 4.72 4.84 10.5z"/>
						</g>
						<g id="&lt;Group&gt;">
							<path id="&lt;Path&gt;" class="s5" d="m537.53 850.22l-1.14 0.03-0.17-6.85 1.13-0.03z"/>
							<path id="&lt;Path&gt;" class="s5" d="m548.67 842.98c-7.92 0.36-15.85 0.51-23.77 0.61l-0.01-1.14c7.91-0.1 15.83-0.26 23.73-0.61z"/>
							<path id="&lt;Path&gt;" class="s7" d="m542.09 858.6c0.13 4.07-2.21 7.67-3.63 9.44-0.59 0.75-1.47 0.77-2.11 0.06-1.5-1.68-4.02-5.19-4.09-9.25-0.1-5.8 1.98-10.49 4.65-10.58 2.67-0.08 4.99 4.55 5.18 10.33z"/>
						</g>
						<g id="&lt;Group&gt;">
							<path id="&lt;Path&gt;" class="s5" d="m561.5 849.21l-1.14 0.06-0.39-6.85 1.13-0.06z"/>
							<path id="&lt;Path&gt;" class="s5" d="m572.38 841.6c-7.89 0.58-15.8 1.07-23.72 1.38l-0.04-1.14c7.9-0.31 15.79-0.8 23.68-1.38z"/>
							<path id="&lt;Path&gt;" class="s8" d="m566.34 857.42c0.27 4.06-1.95 7.76-3.31 9.57-0.57 0.76-1.45 0.81-2.11 0.12-1.56-1.66-4.19-5.05-4.4-9.11-0.29-5.78 1.63-10.58 4.3-10.73 2.66-0.13 5.13 4.37 5.52 10.15z"/>
						</g>
					</g>
					<g id="&lt;Group&gt;">
						<g id="&lt;Group&gt;">
							<path id="&lt;Path&gt;" class="s5" d="m585.42 847.36l-1.14 0.11-0.63-6.83 1.12-0.11z"/>
							<path id="&lt;Path&gt;" class="s5" d="m596.01 839.38c-7.85 0.89-15.74 1.6-23.63 2.22l-0.08-1.14c7.88-0.62 15.74-1.33 23.58-2.22z"/>
							<path id="&lt;Path&gt;" class="s6" d="m590.54 855.42c0.42 4.05-1.67 7.79-2.97 9.66-0.54 0.78-1.42 0.86-2.1 0.2-1.62-1.59-4.38-4.88-4.72-8.94-0.49-5.76 1.26-10.63 3.92-10.88 2.65-0.26 5.28 4.21 5.87 9.96z"/>
						</g>
						<g id="&lt;Group&gt;">
							<path id="&lt;Path&gt;" class="s5" d="m609.24 844.66l-1.13 0.16-0.89-6.8 1.11-0.15z"/>
							<path id="&lt;Path&gt;" class="s5" d="m619.5 836.27c-7.8 1.21-15.64 2.21-23.49 3.1l-0.13-1.13c7.84-0.89 15.66-1.9 23.44-3.1z"/>
							<path id="&lt;Path&gt;" class="s7" d="m614.66 852.5c0.57 4.03-1.38 7.87-2.61 9.79-0.51 0.8-1.39 0.92-2.09 0.28-1.68-1.54-4.56-4.74-5.06-8.78-0.7-5.75 0.88-10.65 3.51-11 2.64-0.36 5.44 3.99 6.25 9.71z"/>
						</g>
						<g id="&lt;Group&gt;">
							<path id="&lt;Path&gt;" class="s5" d="m632.91 841.03l-1.12 0.19-1.18-6.76 1.11-0.19z"/>
							<path id="&lt;Path&gt;" class="s5" d="m642.78 832.2c-7.72 1.51-15.48 2.9-23.28 4.07l-0.18-1.13c7.79-1.16 15.53-2.55 23.23-4.06z"/>
							<path id="&lt;Path&gt;" class="s8" d="m638.66 848.63c0.74 3.99-1.05 7.93-2.2 9.89-0.48 0.82-1.35 0.97-2.09 0.35-1.74-1.46-4.75-4.53-5.41-8.55-0.94-5.71 0.43-10.69 3.05-11.14 2.62-0.43 5.59 3.75 6.65 9.45z"/>
						</g>
					</g>
					<g id="&lt;Group&gt;">
						<g id="&lt;Group&gt;">
							<path id="&lt;Path&gt;" class="s5" d="m656.36 836.33l-1.11 0.25-1.49-6.7 1.1-0.24z"/>
							<path id="&lt;Path&gt;" class="s5" d="m665.76 827.05c-7.61 1.88-15.26 3.64-22.98 5.15l-0.23-1.12c7.71-1.51 15.34-3.26 22.93-5.14z"/>
							<path id="&lt;Path&gt;" class="s6" d="m662.48 843.66c0.94 3.97-0.66 7.97-1.73 9.97-0.44 0.84-1.31 1.04-2.07 0.46-1.83-1.37-4.98-4.29-5.82-8.27-1.2-5.66-0.07-10.71 2.52-11.29 2.59-0.56 5.76 3.51 7.1 9.13z"/>
						</g>
						<g id="&lt;Group&gt;">
							<path id="&lt;Path&gt;" class="s5" d="m679.5 830.44l-1.09 0.31-1.87-6.6 1.07-0.3z"/>
							<path id="&lt;Path&gt;" class="s5" d="m688.28 820.65q-11.14 3.5-22.53 6.4l-0.28-1.11q11.36-2.89 22.47-6.38z"/>
							<path id="&lt;Path&gt;" class="s7" d="m686.02 837.41c1.17 3.92-0.21 7.99-1.17 10.06-0.39 0.87-1.26 1.11-2.05 0.58-1.9-1.26-5.22-3.99-6.28-7.94-1.49-5.57-0.65-10.68 1.89-11.41 2.55-0.71 5.95 3.19 7.61 8.71z"/>
						</g>
						<g id="&lt;Group&gt;">
							<path id="&lt;Path&gt;" class="s5" d="m702.16 823.15l-1.07 0.38-2.31-6.45 1.05-0.38z"/>
							<path id="&lt;Path&gt;" class="s5" d="m710.14 812.76c-7.15 2.88-14.45 5.49-21.86 7.89l-0.34-1.09c7.37-2.39 14.65-4.99 21.77-7.86z"/>
							<path id="&lt;Path&gt;" class="s8" d="m709.15 829.65c1.46 3.81 0.36 7.99-0.47 10.11-0.34 0.9-1.19 1.21-2.03 0.73-1.99-1.12-5.49-3.62-6.8-7.49-1.86-5.46-1.36-10.62 1.11-11.51 2.48-0.87 6.14 2.76 8.19 8.16z"/>
						</g>
					</g>
					<g id="&lt;Group&gt;">
						<g id="&lt;Group&gt;">
							<path id="&lt;Path&gt;" class="s5" d="m724.1 814.17l-1.03 0.46-2.86-6.23 1-0.45z"/>
							<path id="&lt;Path&gt;" class="s5" d="m730.95 803.1q-10.08 5.32-20.81 9.66l-0.43-1.06q10.69-4.32 20.71-9.61z"/>
							<path id="&lt;Path&gt;" class="s6" d="m731.63 819.99c1.8 3.64 1.08 7.96 0.43 10.15-0.27 0.93-1.1 1.3-1.98 0.9-2.11-0.95-5.82-3.14-7.45-6.87-2.3-5.31-2.24-10.48 0.13-11.56 2.38-1.05 6.3 2.17 8.87 7.38z"/>
						</g>
						<g id="&lt;Group&gt;">
							<path id="&lt;Path&gt;" class="s5" d="m744.85 803.06l-0.95 0.59-3.56-5.86 0.9-0.57z"/>
							<path id="&lt;Path&gt;" class="s5" d="m750.11 791.34c-6.01 4.32-12.46 8.21-19.16 11.76l-0.54-1.01c6.67-3.52 13.07-7.39 19.03-11.68z"/>
							<path id="&lt;Path&gt;" class="s7" d="m753.05 807.95c2.24 3.4 2 7.72 1.6 10.02-0.17 0.96-0.96 1.46-1.89 1.18-2.22-0.68-6.21-2.48-8.22-6-2.89-5.05-3.36-10.1-1.19-11.47 2.16-1.37 6.51 1.45 9.7 6.27z"/>
						</g>
						<g id="&lt;Group&gt;">
							<path id="&lt;Path&gt;" class="s5" d="m763.66 789.34q-0.41 0.37-0.84 0.72l-4.47-5.2q0.41-0.33 0.79-0.68z"/>
							<path id="&lt;Path&gt;" class="s5" d="m766.52 777.05c-4.85 5.2-10.4 9.97-16.41 14.29l-0.67-0.93c5.97-4.28 11.45-9 16.24-14.14z"/>
							<path id="&lt;Path&gt;" class="s8" d="m772.54 792.74c2.81 2.94 3.3 7.28 3.25 9.67-0.01 1.01-0.74 1.63-1.73 1.5-2.35-0.3-6.58-1.39-9.11-4.58-3.59-4.54-4.93-9.51-2.99-11.11 1.84-1.68 6.57 0.34 10.58 4.52z"/>
						</g>
					</g>
				</g>
			</g>
			<g id="&lt;Clip Group&gt;" clip-path="url(#cp3)">
				<g id="&lt;Group&gt;">
					<g id="&lt;Group&gt;">
						<g id="&lt;Group&gt;">
							<g id="&lt;Group&gt;">
								<path id="&lt;Path&gt;" class="s5" d="m318.57 395.35l-0.94-0.32 2.06-5.8 0.9 0.3z"/>
								<path id="&lt;Path&gt;" class="s5" d="m329.71 392.29c-6.51-1.72-12.81-3.86-18.6-6.56l0.44-0.93c5.72 2.67 11.96 4.79 18.42 6.5z"/>
								<path id="&lt;Path&gt;" class="s6" d="m319.84 403.83c-1.08 3.52-4.23 5.79-6.09 6.81-0.77 0.43-1.58 0.16-1.92-0.65-0.82-1.97-1.86-5.77-0.49-9.16 1.96-4.84 5.2-8.04 7.35-7.31 2.15 0.72 2.66 5.36 1.15 10.31z"/>
							</g>
							<g id="&lt;Group&gt;">
								<path id="&lt;Path&gt;" class="s5" d="m338.92 400.72l-0.99-0.19 1.21-6.04 0.97 0.18z"/>
								<path id="&lt;Path&gt;" class="s5" d="m349.78 396.33c-6.83-1.01-13.56-2.32-20.08-4.04l0.27-0.99c6.47 1.71 13.16 3.01 19.96 4.01z"/>
								<path id="&lt;Path&gt;" class="s7" d="m341.32 408.94c-0.62 3.61-3.41 6.31-5.06 7.59-0.68 0.53-1.5 0.38-1.93-0.37-1.04-1.82-2.58-5.41-1.77-8.97 1.16-5.08 3.92-8.75 6.21-8.3 2.29 0.43 3.43 4.93 2.55 10.05z"/>
							</g>
							<g id="&lt;Group&gt;">
								<path id="&lt;Path&gt;" class="s5" d="m359.97 403.78l-1.01-0.11 0.65-6.13 0.98 0.11z"/>
								<path id="&lt;Path&gt;" class="s5" d="m370.53 398.47c-6.98-0.47-13.91-1.15-20.75-2.14l0.15-1.02c6.8 0.99 13.71 1.67 20.66 2.14z"/>
								<path id="&lt;Path&gt;" class="s8" d="m363.11 411.75c-0.31 3.63-2.82 6.63-4.32 8.02-0.63 0.59-1.44 0.51-1.93-0.21-1.18-1.69-3.04-5.08-2.6-8.71 0.64-5.16 3.05-9.14 5.39-8.89 2.34 0.28 3.9 4.59 3.46 9.79z"/>
							</g>
						</g>
						<g id="&lt;Group&gt;">
							<g id="&lt;Group&gt;">
								<path id="&lt;Path&gt;" class="s5" d="m381.32 405.19l-1.02-0.05 0.22-6.15 1 0.04z"/>
								<path id="&lt;Path&gt;" class="s5" d="m391.57 399.21c-7.04-0.04-14.07-0.25-21.04-0.74l0.06-1.02c6.95 0.48 13.96 0.69 20.99 0.73z"/>
								<path id="&lt;Path&gt;" class="s6" d="m384.98 412.92c-0.07 3.66-2.37 6.77-3.76 8.3-0.58 0.64-1.38 0.6-1.92-0.07-1.28-1.62-3.36-4.88-3.18-8.53 0.25-5.2 2.38-9.32 4.75-9.22 2.38 0.07 4.22 4.32 4.11 9.52z"/>
							</g>
							<g id="&lt;Group&gt;">
								<path id="&lt;Path&gt;" class="s5" d="m402.78 405.29l-1.02 0.02-0.12-6.16 1.01-0.02z"/>
								<path id="&lt;Path&gt;" class="s5" d="m412.75 398.79q-10.61 0.49-21.18 0.41l0.01-1.02q10.54 0.07 21.12-0.41z"/>
								<path id="&lt;Path&gt;" class="s7" d="m406.85 412.82c0.11 3.66-2.02 6.89-3.31 8.49-0.54 0.67-1.34 0.68-1.91 0.03-1.35-1.54-3.61-4.69-3.64-8.34-0.04-5.2 1.86-9.44 4.25-9.47 2.38-0.06 4.44 4.1 4.61 9.29z"/>
							</g>
							<g id="&lt;Group&gt;">
								<path id="&lt;Path&gt;" class="s5" d="m424.27 404.34l-1.03 0.07-0.39-6.15 1.01-0.06z"/>
								<path id="&lt;Path&gt;" class="s5" d="m433.96 397.42c-7.07 0.6-14.14 1.09-21.21 1.37l-0.05-1.02c7.06-0.29 14.12-0.78 21.17-1.37z"/>
								<path id="&lt;Path&gt;" class="s8" d="m428.66 411.69c0.27 3.65-1.7 6.97-2.92 8.62-0.51 0.69-1.3 0.74-1.9 0.12-1.42-1.48-3.81-4.51-4.01-8.16-0.28-5.19 1.42-9.52 3.81-9.66 2.38-0.15 4.63 3.89 5.02 9.08z"/>
							</g>
						</g>
						<g id="&lt;Group&gt;">
							<g id="&lt;Group&gt;">
								<path id="&lt;Path&gt;" class="s5" d="m445.72 402.49l-1.02 0.1-0.64-6.13 1.01-0.1z"/>
								<path id="&lt;Path&gt;" class="s5" d="m455.16 395.21c-7.06 0.84-14.13 1.63-21.2 2.21l-0.09-1.02c7.06-0.58 14.11-1.37 21.16-2.2z"/>
								<path id="&lt;Path&gt;" class="s6" d="m450.4 409.67c0.41 3.64-1.43 7.04-2.58 8.71-0.48 0.71-1.27 0.79-1.89 0.2-1.47-1.42-3.98-4.34-4.32-7.99-0.5-5.17 1.03-9.56 3.41-9.81 2.38-0.23 4.79 3.73 5.38 8.89z"/>
							</g>
							<g id="&lt;Group&gt;">
								<path id="&lt;Path&gt;" class="s5" d="m467.1 399.83l-1.02 0.14-0.86-6.1 1.01-0.14z"/>
								<path id="&lt;Path&gt;" class="s5" d="m476.28 392.22c-7.02 1.14-14.08 2.09-21.13 2.99l-0.12-1.02c7.04-0.9 14.08-1.84 21.09-2.99z"/>
								<path id="&lt;Path&gt;" class="s7" d="m472.03 406.84c0.54 3.62-1.18 7.07-2.26 8.8-0.45 0.72-1.24 0.84-1.88 0.27-1.51-1.35-4.13-4.2-4.61-7.83-0.68-5.15 0.69-9.58 3.06-9.93 2.37-0.34 4.92 3.55 5.69 8.69z"/>
							</g>
							<g id="&lt;Group&gt;">
								<path id="&lt;Path&gt;" class="s5" d="m488.39 396.44l-1.02 0.18-1.06-6.07 1-0.18z"/>
								<path id="&lt;Path&gt;" class="s5" d="m497.31 388.51q-10.48 2.04-21.03 3.71l-0.16-1.02q10.53-1.66 21-3.69z"/>
								<path id="&lt;Path&gt;" class="s8" d="m493.55 403.27c0.66 3.59-0.94 7.11-1.96 8.88-0.43 0.75-1.21 0.88-1.86 0.33-1.57-1.32-4.27-4.07-4.88-7.68-0.86-5.13 0.36-9.61 2.72-10.01 2.36-0.43 5.04 3.36 5.98 8.48z"/>
							</g>
						</g>
						<g id="&lt;Group&gt;">
							<g id="&lt;Group&gt;">
								<path id="&lt;Path&gt;" class="s5" d="m509.55 392.33l-1 0.21-1.26-6.03 0.99-0.21z"/>
								<path id="&lt;Path&gt;" class="s5" d="m518.22 384.13c-6.95 1.55-13.91 3.06-20.91 4.39l-0.19-1.01c6.98-1.33 13.93-2.83 20.87-4.38z"/>
								<path id="&lt;Path&gt;" class="s6" d="m514.94 399c0.78 3.58-0.7 7.14-1.67 8.93-0.4 0.75-1.18 0.91-1.85 0.38-1.61-1.25-4.4-3.91-5.12-7.49-1.03-5.1 0.04-9.63 2.39-10.12 2.35-0.48 5.15 3.22 6.25 8.3z"/>
							</g>
							<g id="&lt;Group&gt;">
								<path id="&lt;Path&gt;" class="s5" d="m530.57 387.54l-0.99 0.24-1.46-5.98 0.99-0.25z"/>
								<path id="&lt;Path&gt;" class="s5" d="m538.96 379.05c-6.88 1.83-13.8 3.48-20.74 5.08l-0.23-1c6.93-1.6 13.84-3.25 20.71-5.07z"/>
								<path id="&lt;Path&gt;" class="s7" d="m536.18 394.02c0.89 3.55-0.48 7.15-1.38 8.98-0.38 0.77-1.15 0.96-1.84 0.46-1.64-1.19-4.53-3.79-5.36-7.34-1.2-5.07-0.27-9.59 2.06-10.18 2.32-0.58 5.24 3.04 6.52 8.08z"/>
							</g>
							<g id="&lt;Group&gt;">
								<path id="&lt;Path&gt;" class="s5" d="m551.43 382.06l-0.99 0.27-1.66-5.93 0.98-0.27z"/>
								<path id="&lt;Path&gt;" class="s5" d="m559.52 373.3c-6.82 2.02-13.66 3.97-20.56 5.75l-0.26-0.99c6.88-1.78 13.72-3.73 20.53-5.74z"/>
								<path id="&lt;Path&gt;" class="s8" d="m557.24 388.35c1.02 3.51-0.23 7.18-1.07 9.03-0.36 0.78-1.12 0.99-1.83 0.5-1.69-1.15-4.65-3.62-5.61-7.15-1.36-5.02-0.59-9.6 1.72-10.24 2.32-0.63 5.35 2.86 6.79 7.86z"/>
							</g>
						</g>
						<g id="&lt;Group&gt;">
							<g id="&lt;Group&gt;">
								<path id="&lt;Path&gt;" class="s5" d="m572.07 375.87l-0.98 0.31-1.86-5.87 0.97-0.31z"/>
								<path id="&lt;Path&gt;" class="s5" d="m579.84 366.83c-6.73 2.29-13.51 4.42-20.32 6.47l-0.29-0.98c6.8-2.05 13.57-4.18 20.28-6.46z"/>
								<path id="&lt;Path&gt;" class="s6" d="m578.11 381.96c1.14 3.48 0.01 7.16-0.77 9.05-0.32 0.79-1.08 1.03-1.8 0.58-1.73-1.09-4.77-3.45-5.86-6.95-1.53-4.96-0.92-9.57 1.36-10.3 2.29-0.73 5.45 2.68 7.07 7.62z"/>
							</g>
							<g id="&lt;Group&gt;">
								<path id="&lt;Path&gt;" class="s5" d="m592.46 368.94l-0.96 0.36-2.08-5.8 0.95-0.35z"/>
								<path id="&lt;Path&gt;" class="s5" d="m599.86 359.61c-6.61 2.55-13.3 4.94-20.02 7.22l-0.33-0.97c6.71-2.28 13.39-4.66 19.98-7.21z"/>
								<path id="&lt;Path&gt;" class="s7" d="m598.72 374.79c1.27 3.43 0.29 7.16-0.42 9.08-0.29 0.81-1.04 1.09-1.78 0.66-1.77-1.03-4.91-3.29-6.12-6.74-1.72-4.92-1.27-9.52 0.98-10.33 2.25-0.83 5.53 2.46 7.34 7.33z"/>
							</g>
							<g id="&lt;Group&gt;">
								<path id="&lt;Path&gt;" class="s5" d="m612.55 361.22l-0.95 0.38-2.33-5.7 0.94-0.38z"/>
								<path id="&lt;Path&gt;" class="s5" d="m619.52 351.59c-6.49 2.8-13.03 5.51-19.66 8.02l-0.37-0.96c6.62-2.51 13.15-5.21 19.62-8z"/>
								<path id="&lt;Path&gt;" class="s8" d="m619.05 366.8c1.41 3.36 0.6 7.16-0.04 9.1-0.26 0.81-1 1.11-1.76 0.71-1.82-0.95-5.05-3.07-6.39-6.47-1.92-4.83-1.67-9.47 0.54-10.36 2.22-0.89 5.63 2.21 7.65 7.02z"/>
							</g>
						</g>
						<g id="&lt;Group&gt;">
							<g id="&lt;Group&gt;">
								<path id="&lt;Path&gt;" class="s5" d="m632.24 352.61l-0.93 0.43-2.59-5.59 0.92-0.42z"/>
								<path id="&lt;Path&gt;" class="s5" d="m638.71 342.67c-6.32 3.11-12.7 6.11-19.19 8.92l-0.41-0.94c6.48-2.8 12.84-5.8 19.14-8.9z"/>
								<path id="&lt;Path&gt;" class="s6" d="m639.01 357.88c1.58 3.3 0.94 7.12 0.39 9.08-0.23 0.83-0.96 1.17-1.74 0.8-1.86-0.85-5.18-2.81-6.68-6.14-2.14-4.74-2.11-9.4 0.05-10.4 2.17-0.98 5.73 1.98 7.98 6.66z"/>
							</g>
							<g id="&lt;Group&gt;">
								<path id="&lt;Path&gt;" class="s5" d="m651.42 343.02l-0.9 0.48-2.9-5.44 0.89-0.47z"/>
								<path id="&lt;Path&gt;" class="s5" d="m657.26 332.74q-9.11 5.21-18.55 9.93l-0.46-0.92q9.41-4.71 18.5-9.9z"/>
								<path id="&lt;Path&gt;" class="s7" d="m658.48 347.89c1.78 3.22 1.34 7.05 0.9 9.05-0.18 0.84-0.89 1.22-1.69 0.91-1.91-0.74-5.35-2.51-7.03-5.77-2.38-4.61-2.61-9.26-0.52-10.38 2.09-1.11 5.83 1.66 8.34 6.19z"/>
							</g>
							<g id="&lt;Group&gt;">
								<path id="&lt;Path&gt;" class="s5" d="m669.92 332.29l-0.86 0.54-3.26-5.23 0.84-0.53z"/>
								<path id="&lt;Path&gt;" class="s5" d="m674.94 321.64c-5.73 3.9-11.64 7.59-17.68 11.1l-0.51-0.89c6.02-3.5 11.91-7.18 17.61-11.06z"/>
								<path id="&lt;Path&gt;" class="s8" d="m677.3 336.65c2.01 3.07 1.84 6.95 1.52 8.97-0.12 0.86-0.81 1.29-1.64 1.03-1.96-0.6-5.51-2.13-7.41-5.28-2.67-4.44-3.22-9.06-1.22-10.31 2.01-1.24 5.92 1.25 8.75 5.59z"/>
							</g>
						</g>
						<g id="&lt;Group&gt;">
							<g id="&lt;Group&gt;">
								<path id="&lt;Path&gt;" class="s5" d="m687.46 320.2l-0.81 0.61-3.71-4.93 0.79-0.58z"/>
								<path id="&lt;Path&gt;" class="s5" d="m691.36 309.18q-7.83 6.6-16.42 12.46l-0.58-0.85q8.55-5.84 16.34-12.39z"/>
								<path id="&lt;Path&gt;" class="s6" d="m695.19 323.87c2.27 2.86 2.47 6.78 2.32 8.84-0.06 0.86-0.72 1.35-1.57 1.17-2.03-0.43-5.71-1.65-7.85-4.62-3.04-4.22-3.98-8.77-2.1-10.16 1.89-1.38 5.95 0.69 9.2 4.77z"/>
							</g>
							<g id="&lt;Group&gt;">
								<path id="&lt;Path&gt;" class="s5" d="m703.56 306.48l-0.72 0.71-4.25-4.46 0.68-0.68z"/>
								<path id="&lt;Path&gt;" class="s5" d="m705.93 295.19c-4.45 4.94-9.36 9.59-14.57 13.99l-0.66-0.78c5.17-4.37 10.06-9 14.47-13.9z"/>
								<path id="&lt;Path&gt;" class="s7" d="m711.69 309.21c2.62 2.55 3.23 6.39 3.32 8.49 0.04 0.88-0.56 1.47-1.43 1.4-2.08-0.17-5.92-0.99-8.37-3.7-3.5-3.88-4.88-8.22-3.24-9.84 1.64-1.61 6 0.02 9.72 3.65z"/>
							</g>
							<g id="&lt;Group&gt;">
								<path id="&lt;Path&gt;" class="s5" d="m717.44 290.84q-0.28 0.41-0.6 0.79l-4.91-3.71q0.29-0.36 0.56-0.74z"/>
								<path id="&lt;Path&gt;" class="s5" d="m717.6 279.5c-3.26 5.5-7.21 10.75-11.67 15.69l-0.76-0.69c4.41-4.9 8.33-10.09 11.55-15.52z"/>
								<path id="&lt;Path&gt;" class="s8" d="m725.89 292.13c3.03 2.04 4.29 5.76 4.7 7.87 0.19 0.88-0.33 1.57-1.23 1.64-2.12 0.19-6.04 0.04-8.87-2.27-4.02-3.3-6.15-7.41-4.76-9.19 1.3-1.82 5.84-0.96 10.16 1.95z"/>
							</g>
						</g>
					</g>
					<g id="&lt;Group&gt;">
						<g id="&lt;Group&gt;">
							<g id="&lt;Group&gt;">
								<path id="&lt;Path&gt;" class="s5" d="m341.55 151.75l-0.71-0.7 4.36-4.35 0.68 0.66z"/>
								<path id="&lt;Path&gt;" class="s5" d="m352.92 153.77c-5.14-4.35-9.9-8.99-13.97-13.92l0.8-0.65c4.01 4.87 8.73 9.47 13.83 13.79z"/>
								<path id="&lt;Path&gt;" class="s6" d="m339.05 159.95c-2.48 2.71-6.31 3.4-8.42 3.53-0.88 0.06-1.5-0.54-1.46-1.41 0.11-2.14 0.81-6.02 3.5-8.49 3.85-3.53 8.15-5.02 9.77-3.44 1.64 1.58 0.1 5.99-3.39 9.81z"/>
							</g>
							<g id="&lt;Group&gt;">
								<path id="&lt;Path&gt;" class="s5" d="m357.62 165.34l-0.82-0.6 3.7-4.93 0.79 0.58z"/>
								<path id="&lt;Path&gt;" class="s5" d="m369.31 166.05c-5.74-3.85-11.25-7.93-16.39-12.28l0.66-0.78c5.11 4.32 10.59 8.38 16.3 12.2z"/>
								<path id="&lt;Path&gt;" class="s7" d="m356.25 173.8c-2.11 2.99-5.79 4.23-7.83 4.67-0.85 0.19-1.52-0.3-1.58-1.16-0.16-2.09-0.01-5.99 2.26-8.86 3.23-4.09 7.3-6.21 9.17-4.83 1.88 1.37 0.97 5.93-2.02 10.18z"/>
							</g>
							<g id="&lt;Group&gt;">
								<path id="&lt;Path&gt;" class="s5" d="m375.31 177.15l-0.87-0.53 3.22-5.25 0.85 0.52z"/>
								<path id="&lt;Path&gt;" class="s5" d="m387.12 176.9c-6.1-3.42-12.06-7.02-17.81-10.85l0.57-0.86c5.72 3.82 11.66 7.4 17.74 10.81z"/>
								<path id="&lt;Path&gt;" class="s8" d="m374.71 185.7c-1.84 3.14-5.4 4.77-7.35 5.38-0.82 0.27-1.51-0.16-1.65-1.01-0.34-2.04-0.56-5.9 1.4-8.99 2.79-4.38 6.68-6.94 8.69-5.7 1.99 1.25 1.54 5.82-1.09 10.32z"/>
							</g>
						</g>
						<g id="&lt;Group&gt;">
							<g id="&lt;Group&gt;">
								<path id="&lt;Path&gt;" class="s5" d="m393.98 187.6l-0.9-0.47 2.84-5.47 0.89 0.47z"/>
								<path id="&lt;Path&gt;" class="s5" d="m405.81 186.61c-6.35-3.06-12.6-6.28-18.69-9.71l0.5-0.9c6.07 3.43 12.31 6.63 18.63 9.69z"/>
								<path id="&lt;Path&gt;" class="s6" d="m393.96 196.16c-1.64 3.27-5.06 5.09-6.96 5.87-0.8 0.34-1.51-0.05-1.71-0.89-0.46-2-0.94-5.84 0.8-9.07 2.46-4.57 6.16-7.38 8.25-6.27 2.11 1.08 1.95 5.71-0.38 10.36z"/>
							</g>
							<g id="&lt;Group&gt;">
								<path id="&lt;Path&gt;" class="s5" d="m413.31 196.92l-0.93-0.42 2.54-5.61 0.92 0.42z"/>
								<path id="&lt;Path&gt;" class="s5" d="m425.1 195.34q-9.79-4.12-19.3-8.73l0.45-0.93q9.49 4.6 19.25 8.72z"/>
								<path id="&lt;Path&gt;" class="s7" d="m413.74 205.47c-1.47 3.35-4.78 5.35-6.63 6.24-0.78 0.38-1.51 0.04-1.74-0.79-0.56-1.98-1.24-5.78 0.3-9.1 2.2-4.71 5.74-7.72 7.9-6.72 2.18 0.97 2.26 5.61 0.17 10.37z"/>
							</g>
							<g id="&lt;Group&gt;">
								<path id="&lt;Path&gt;" class="s5" d="m433.11 205.31l-0.95-0.39 2.29-5.72 0.94 0.38z"/>
								<path id="&lt;Path&gt;" class="s5" d="m444.84 203.23c-6.64-2.51-13.24-5.1-19.74-7.89l0.4-0.94c6.49 2.77 13.08 5.37 19.7 7.86z"/>
								<path id="&lt;Path&gt;" class="s8" d="m433.92 213.83c-1.32 3.41-4.53 5.56-6.34 6.53-0.75 0.4-1.49 0.1-1.76-0.71-0.65-1.95-1.5-5.71-0.11-9.1 1.97-4.81 5.37-7.98 7.58-7.08 2.22 0.89 2.51 5.5 0.63 10.36z"/>
							</g>
						</g>
						<g id="&lt;Group&gt;">
							<g id="&lt;Group&gt;">
								<path id="&lt;Path&gt;" class="s5" d="m453.28 212.85l-0.97-0.34 2.06-5.81 0.96 0.34z"/>
								<path id="&lt;Path&gt;" class="s5" d="m464.93 210.34c-6.73-2.28-13.45-4.6-20.09-7.11l0.36-0.96c6.63 2.51 13.33 4.82 20.05 7.1z"/>
								<path id="&lt;Path&gt;" class="s6" d="m454.42 221.35c-1.19 3.46-4.32 5.74-6.08 6.76-0.73 0.43-1.48 0.17-1.78-0.64-0.73-1.91-1.73-5.63-0.48-9.07 1.78-4.88 5.05-8.19 7.3-7.39 2.26 0.81 2.73 5.42 1.04 10.34z"/>
							</g>
							<g id="&lt;Group&gt;">
								<path id="&lt;Path&gt;" class="s5" d="m473.72 219.64l-0.98-0.3 1.85-5.88 0.97 0.3z"/>
								<path id="&lt;Path&gt;" class="s5" d="m485.29 216.72c-6.84-1.99-13.61-4.17-20.37-6.38l0.33-0.97c6.75 2.21 13.51 4.38 20.33 6.36z"/>
								<path id="&lt;Path&gt;" class="s7" d="m475.17 228.1c-1.07 3.5-4.11 5.87-5.83 6.97-0.72 0.46-1.48 0.22-1.81-0.57-0.79-1.87-1.92-5.57-0.8-9.05 1.6-4.94 4.74-8.35 7.03-7.65 2.29 0.72 2.92 5.33 1.41 10.3z"/>
							</g>
							<g id="&lt;Group&gt;">
								<path id="&lt;Path&gt;" class="s5" d="m494.4 225.74l-0.99-0.28 1.65-5.93 0.98 0.27z"/>
								<path id="&lt;Path&gt;" class="s5" d="m505.87 222.42q-10.34-2.67-20.58-5.7l0.29-0.99q10.22 3.03 20.55 5.7z"/>
								<path id="&lt;Path&gt;" class="s8" d="m496.13 234.12c-0.95 3.53-3.9 6.02-5.59 7.18-0.7 0.49-1.47 0.28-1.82-0.51-0.85-1.86-2.11-5.51-1.1-9.03 1.42-4.99 4.45-8.52 6.76-7.86 2.31 0.62 3.1 5.2 1.75 10.22z"/>
							</g>
						</g>
						<g id="&lt;Group&gt;">
							<g id="&lt;Group&gt;">
								<path id="&lt;Path&gt;" class="s5" d="m515.28 231.13l-1-0.25 1.46-5.99 0.99 0.25z"/>
								<path id="&lt;Path&gt;" class="s5" d="m526.63 227.45c-6.94-1.59-13.87-3.22-20.76-5.03l0.26-0.99c6.87 1.8 13.8 3.43 20.73 5.02z"/>
								<path id="&lt;Path&gt;" class="s6" d="m517.28 239.46c-0.83 3.57-3.71 6.15-5.35 7.35-0.69 0.5-1.46 0.32-1.84-0.45-0.91-1.83-2.28-5.42-1.4-8.97 1.27-5.04 4.18-8.67 6.51-8.11 2.33 0.58 3.26 5.13 2.08 10.18z"/>
							</g>
							<g id="&lt;Group&gt;">
								<path id="&lt;Path&gt;" class="s5" d="m536.32 235.84l-1.01-0.21 1.26-6.03 1 0.2z"/>
								<path id="&lt;Path&gt;" class="s5" d="m547.54 231.78c-6.99-1.31-13.96-2.79-20.91-4.33l0.22-1c6.95 1.53 13.9 3.01 20.89 4.32z"/>
								<path id="&lt;Path&gt;" class="s7" d="m538.59 244.1c-0.71 3.59-3.5 6.25-5.1 7.52-0.68 0.53-1.45 0.37-1.86-0.38-0.97-1.78-2.46-5.37-1.69-8.94 1.1-5.09 3.88-8.77 6.24-8.3 2.35 0.48 3.43 5 2.41 10.1z"/>
							</g>
							<g id="&lt;Group&gt;">
								<path id="&lt;Path&gt;" class="s5" d="m557.5 239.86l-1.01-0.18 1.06-6.07 1 0.18z"/>
								<path id="&lt;Path&gt;" class="s5" d="m568.58 235.43c-7.03-1.11-14.05-2.3-21.04-3.65l0.2-1.01c6.97 1.35 13.98 2.53 20.99 3.64z"/>
								<path id="&lt;Path&gt;" class="s8" d="m560.05 248.03c-0.6 3.61-3.29 6.39-4.86 7.7-0.65 0.55-1.43 0.41-1.86-0.33-1.03-1.77-2.64-5.27-1.99-8.87 0.93-5.12 3.6-8.92 5.96-8.51 2.36 0.43 3.59 4.88 2.75 10.01z"/>
							</g>
						</g>
						<g id="&lt;Group&gt;">
							<g id="&lt;Group&gt;">
								<path id="&lt;Path&gt;" class="s5" d="m578.8 243.14l-1.01-0.14 0.84-6.1 1 0.13z"/>
								<path id="&lt;Path&gt;" class="s5" d="m589.7 238.32c-7.05-0.82-14.09-1.81-21.12-2.89l0.15-1.02c7.02 1.08 14.05 2.07 21.09 2.89z"/>
								<path id="&lt;Path&gt;" class="s6" d="m581.63 251.24c-0.46 3.63-3.06 6.47-4.58 7.84-0.63 0.57-1.42 0.47-1.88-0.26-1.09-1.72-2.82-5.16-2.29-8.78 0.75-5.14 3.28-9.04 5.65-8.72 2.38 0.32 3.77 4.76 3.1 9.92z"/>
							</g>
							<g id="&lt;Group&gt;">
								<path id="&lt;Path&gt;" class="s5" d="m600.19 245.66l-1.02-0.1 0.61-6.13 1.01 0.1z"/>
								<path id="&lt;Path&gt;" class="s5" d="m610.88 240.41c-7.06-0.54-14.13-1.26-21.18-2.09l0.12-1.02c7.04 0.83 14.09 1.55 21.14 2.09z"/>
								<path id="&lt;Path&gt;" class="s7" d="m603.33 253.63c-0.33 3.64-2.82 6.59-4.28 8.02-0.62 0.6-1.41 0.53-1.9-0.18-1.15-1.69-3.01-5.08-2.62-8.72 0.56-5.17 2.94-9.13 5.32-8.9 2.39 0.22 3.94 4.6 3.48 9.78z"/>
							</g>
							<g id="&lt;Group&gt;">
								<path id="&lt;Path&gt;" class="s5" d="m621.64 247.32l-1.02-0.06 0.36-6.15 1.01 0.06z"/>
								<path id="&lt;Path&gt;" class="s5" d="m632.08 241.62c-7.06-0.26-14.13-0.63-21.2-1.21l0.08-1.02c7.06 0.58 14.11 0.95 21.16 1.2z"/>
								<path id="&lt;Path&gt;" class="s8" d="m625.12 255.15c-0.17 3.65-2.54 6.72-3.95 8.2-0.59 0.62-1.38 0.57-1.9-0.12-1.23-1.63-3.23-4.94-2.99-8.58 0.35-5.19 2.57-9.28 4.95-9.13 2.39 0.16 4.13 4.42 3.89 9.63z"/>
							</g>
						</g>
						<g id="&lt;Group&gt;">
							<g id="&lt;Group&gt;">
								<path id="&lt;Path&gt;" class="s5" d="m643.13 248.01l-1.03-0.01 0.07-6.16 1 0.01z"/>
								<path id="&lt;Path&gt;" class="s5" d="m653.24 241.82c-7.04 0.09-14.09 0.06-21.16-0.2l0.04-1.03c7.05 0.26 14.08 0.29 21.1 0.2z"/>
								<path id="&lt;Path&gt;" class="s6" d="m646.97 255.68c0.01 3.66-2.21 6.84-3.55 8.37-0.56 0.65-1.36 0.64-1.91-0.02-1.31-1.58-3.47-4.77-3.4-8.43 0.12-5.2 2.14-9.39 4.52-9.36 2.38 0.04 4.32 4.25 4.34 9.44z"/>
							</g>
							<g id="&lt;Group&gt;">
								<path id="&lt;Path&gt;" class="s5" d="m664.57 247.6l-1.02 0.05-0.28-6.16 1-0.04z"/>
								<path id="&lt;Path&gt;" class="s5" d="m674.26 240.83q-10.47 0.78-21.02 0.99l-0.02-1.03q10.53-0.2 20.96-0.98z"/>
								<path id="&lt;Path&gt;" class="s7" d="m668.85 255.04c0.22 3.66-1.82 6.94-3.08 8.55-0.53 0.68-1.33 0.72-1.92 0.09-1.41-1.49-3.75-4.56-3.86-8.23-0.17-5.18 1.62-9.48 3.99-9.59 2.37-0.11 4.55 4 4.87 9.18z"/>
							</g>
							<g id="&lt;Group&gt;">
								<path id="&lt;Path&gt;" class="s5" d="m685.89 245.86l-1.01 0.12-0.7-6.12 0.99-0.12z"/>
								<path id="&lt;Path&gt;" class="s5" d="m694.99 238.41c-6.84 1.06-13.77 1.84-20.73 2.42l-0.08-1.02c6.94-0.58 13.84-1.36 20.65-2.42z"/>
								<path id="&lt;Path&gt;" class="s8" d="m690.67 252.98c0.49 3.63-1.32 7.07-2.48 8.75-0.48 0.72-1.29 0.81-1.92 0.22-1.52-1.39-4.07-4.29-4.42-7.95-0.51-5.15 0.98-9.56 3.33-9.84 2.34-0.25 4.8 3.68 5.49 8.82z"/>
							</g>
						</g>
						<g id="&lt;Group&gt;">
							<g id="&lt;Group&gt;">
								<path id="&lt;Path&gt;" class="s5" d="m706.92 242.5l-1 0.19-1.22-6.04 0.96-0.19z"/>
								<path id="&lt;Path&gt;" class="s5" d="m715.18 234.22q-9.91 2.59-20.19 4.19l-0.16-1.02q10.24-1.59 20.09-4.16z"/>
								<path id="&lt;Path&gt;" class="s6" d="m712.32 249.13c0.82 3.55-0.69 7.18-1.71 8.97-0.42 0.75-1.23 0.91-1.92 0.38-1.65-1.26-4.45-3.94-5.1-7.54-0.93-5.11 0.18-9.63 2.47-10.08 2.3-0.43 5.08 3.19 6.26 8.27z"/>
							</g>
							<g id="&lt;Group&gt;">
								<path id="&lt;Path&gt;" class="s5" d="m727.35 237.03l-0.95 0.32-1.92-5.85 0.91-0.32z"/>
								<path id="&lt;Path&gt;" class="s5" d="m734.35 227.85c-6.14 2.55-12.58 4.64-19.17 6.37l-0.27-0.99c6.56-1.73 12.95-3.8 19.05-6.33z"/>
								<path id="&lt;Path&gt;" class="s7" d="m733.52 242.99c1.26 3.43 0.17 7.16-0.66 9.09-0.34 0.81-1.13 1.08-1.89 0.65-1.81-1.05-4.92-3.44-5.96-6.94-1.49-5.01-0.87-9.52 1.3-10.28 2.18-0.75 5.4 2.6 7.21 7.48z"/>
							</g>
							<g id="&lt;Group&gt;">
								<path id="&lt;Path&gt;" class="s5" d="m746.61 228.87q-0.43 0.25-0.88 0.46l-2.85-5.46q0.43-0.2 0.83-0.44z"/>
								<path id="&lt;Path&gt;" class="s5" d="m751.63 218.71c-5.31 3.56-11.14 6.59-17.28 9.14l-0.39-0.95c6.09-2.52 11.86-5.53 17.1-9.05z"/>
								<path id="&lt;Path&gt;" class="s8" d="m753.68 233.67c1.86 3.15 1.4 7.05 0.87 9.13-0.22 0.88-0.99 1.27-1.82 0.95-2-0.74-5.48-2.56-7.03-5.87-2.22-4.7-2.37-9.33-0.35-10.33 1.96-1.1 5.69 1.64 8.33 6.12z"/>
							</g>
						</g>
					</g>
				</g>
			</g>
			<g id="&lt;Group&gt;">
				<path id="&lt;Path&gt;" class="s7" d="m539.81 24l15.24 29.55 32.81 5.36-23.39 23.63 5.04 32.86-29.7-14.94-29.7 14.94 5.03-32.86-23.39-23.63 32.82-5.36z"/>
				<path id="&lt;Path&gt;" class="s15" d="m539.81 24l-15.24 29.55 15.24 20.98z"/>
				<path id="&lt;Path&gt;" class="s15" d="m491.75 58.91l48.06 15.62-24.67 8.01z"/>
				<path id="&lt;Path&gt;" class="s15" d="m510.11 115.4l29.7-40.87v25.93z"/>
				<path id="&lt;Path&gt;" class="s15" d="m569.51 115.4l-29.7-40.87 24.66 8.01z"/>
				<path id="&lt;Path&gt;" class="s15" d="m587.86 58.91l-48.05 15.62 15.24-20.98z"/>
			</g>
			<path id="&lt;Path&gt;" class="s10" d="m379.42 506.43q-1.68 1.09-3.25 2.49c-5.49 4.93-9.16 11.54-12.69 18.02-13.61 24.96-26.89 50.14-38.1 76.27-7.29 16.98-12.77 43.51 7.59 54.28 19.06 10.09 41.25-15.16 61.25-15.7 11.98-0.33 21.52 4.06 30.8 11.47 10.86 8.68 18.83 12.56 32.75 14.57 15.95 2.3 30.16 0.68 46.06-1.74 12.86-1.95 27.86-2.02 39.46-8.4 19.85-10.92 20.08-44.51 1.15-57.16-15.06-10.06-42.19 0.57-54.53-12.39-10.09-10.6-1.33-33.29-4.95-46.51-6.49-23.69-29.66-28.55-50.62-32.85-16.34-3.35-39.37-12.37-54.92-2.35z"/>
		</g>
		<g id="&lt;Group&gt;">
			<path id="&lt;Compound Path&gt;" fill-rule="evenodd" class="s3" d="m581 285.46c-4.16 0-7.53-3.37-7.53-7.53 0-4.16 3.37-7.52 7.53-7.52 4.16 0 7.52 3.36 7.52 7.52 0 4.16-3.36 7.53-7.52 7.53zm6.39-7.53c0-3.53-2.86-6.39-6.39-6.39-3.53 0-6.39 2.86-6.39 6.39 0 3.53 2.86 6.39 6.39 6.39 3.53 0 6.39-2.86 6.39-6.39z"/>
			<g id="&lt;Group&gt;">
				<path id="&lt;Path&gt;" class="s17" d="m599.22 308.3c0 10.07-8.16 18.22-18.22 18.22-8.36 0-15.41-5.63-17.55-13.31 3.15 5.45 9.04 9.11 15.78 9.11 10.06 0 18.22-8.16 18.22-18.22q-0.01-2.56-0.67-4.91c1.55 2.68 2.44 5.8 2.44 9.11z"/>
				<path id="&lt;Path&gt;" class="s8" d="m597.45 304.1c0 10.06-8.16 18.22-18.22 18.22-6.74 0-12.63-3.66-15.78-9.11q-0.66-2.35-0.67-4.91c0-10.06 8.16-18.21 18.22-18.21 6.74 0 12.63 3.66 15.78 9.1q0.66 2.35 0.67 4.91z"/>
			</g>
			<path id="&lt;Path&gt;" class="s18" d="m570.69 301.27c2.59-3.64 6.44-5.64 9.81-5.47 0.71 0.04 1.11-0.8 0.62-1.3q-0.39-0.39-0.85-0.72c-3.83-2.73-9.86-0.83-13.46 4.23-3.61 5.07-3.43 11.38 0.4 14.11q0.01 0.01 0.02 0.01c0.58 0.41 1.34-0.15 1.17-0.84-0.78-3-0.02-6.77 2.29-10.02z"/>
			<g id="&lt;Group&gt;">
				<path id="&lt;Path&gt;" class="s14" d="m588.43 288.83v2.87h-0.86v-2.2c0-0.31-0.13-0.6-0.34-0.8-0.21-0.21-0.49-0.34-0.81-0.34-0.63 0-1.14 0.51-1.14 1.14v2.2h-1.37v-2.2c0-0.31-0.13-0.6-0.34-0.8-0.21-0.21-0.5-0.34-0.81-0.34-0.63 0-1.14 0.51-1.14 1.14v2.2h-1.38v-2.2c0-0.31-0.13-0.6-0.33-0.8-0.21-0.21-0.5-0.34-0.81-0.34-0.63 0-1.14 0.51-1.14 1.14v2.2h-1.24v-2.2c0-0.31-0.13-0.6-0.33-0.8-0.21-0.21-0.5-0.34-0.81-0.34-0.63 0-1.15 0.51-1.15 1.14v2.2h-0.86v-2.87c0-1.86 1.51-3.37 3.37-3.37h8.12c1.85 0 3.37 1.51 3.37 3.37z"/>
				<path id="&lt;Path&gt;" class="s8" d="m576.39 288.7c0.2 0.2 0.33 0.49 0.33 0.8v2.2h-2.29v-2.2c0-0.63 0.52-1.14 1.15-1.14 0.31 0 0.6 0.13 0.81 0.34z"/>
				<path id="&lt;Path&gt;" class="s8" d="m579.91 288.7c0.2 0.2 0.33 0.49 0.33 0.8v2.2h-2.28v-2.2c0-0.63 0.51-1.14 1.14-1.14 0.31 0 0.6 0.13 0.81 0.34z"/>
				<path id="&lt;Path&gt;" class="s8" d="m583.57 288.7c0.21 0.2 0.34 0.49 0.34 0.8v2.2h-2.29v-2.2c0-0.63 0.51-1.14 1.14-1.14 0.31 0 0.6 0.13 0.81 0.34z"/>
				<path id="&lt;Path&gt;" class="s8" d="m587.57 289.5v2.2h-2.29v-2.2c0-0.63 0.51-1.14 1.14-1.14 0.32 0 0.6 0.13 0.81 0.34 0.21 0.2 0.34 0.49 0.34 0.8z"/>
			</g>
			<path id="&lt;Path&gt;" class="s14" d="m581.7 287.14h-1.4c-1.11 0-2.01-0.9-2.01-2.01 0-1.11 0.9-2.01 2.01-2.01h1.4c1.11 0 2.01 0.9 2.01 2.01 0 1.11-0.9 2.01-2.01 2.01z"/>
		</g>
		<g id="&lt;Group&gt;">
			<path id="&lt;Compound Path&gt;" fill-rule="evenodd" class="s3" d="m527.23 568.77c-4.16 0-7.52-3.37-7.52-7.53 0-4.16 3.36-7.52 7.52-7.52 4.16 0 7.53 3.36 7.53 7.52 0 4.16-3.37 7.53-7.53 7.53zm6.39-7.53c0-3.53-2.85-6.39-6.39-6.39-3.53 0-6.38 2.86-6.38 6.39 0 3.53 2.85 6.39 6.38 6.39 3.54 0 6.39-2.86 6.39-6.39z"/>
			<g id="&lt;Group&gt;">
				<path id="&lt;Path&gt;" class="s17" d="m545.45 591.61c0 10.07-8.16 18.22-18.22 18.22-8.36 0-15.4-5.63-17.54-13.31 3.15 5.45 9.03 9.11 15.77 9.11 10.07 0 18.22-8.16 18.22-18.22q-0.01-2.56-0.67-4.91c1.55 2.68 2.44 5.8 2.44 9.11z"/>
				<path id="&lt;Path&gt;" class="s8" d="m543.68 587.41c0 10.06-8.15 18.22-18.22 18.22-6.74 0-12.62-3.66-15.77-9.11q-0.67-2.35-0.67-4.91c0-10.06 8.15-18.21 18.21-18.21 6.74 0 12.63 3.66 15.78 9.1q0.66 2.35 0.67 4.91z"/>
			</g>
			<path id="&lt;Path&gt;" class="s18" d="m516.93 584.58c2.59-3.64 6.43-5.64 9.81-5.47 0.7 0.04 1.11-0.8 0.61-1.3q-0.39-0.39-0.85-0.72c-3.83-2.73-9.86-0.83-13.46 4.23-3.61 5.07-3.42 11.39 0.4 14.11q0.01 0.01 0.02 0.01c0.58 0.41 1.35-0.15 1.17-0.84-0.77-3-0.02-6.77 2.3-10.02z"/>
			<g id="&lt;Group&gt;">
				<path id="&lt;Path&gt;" class="s14" d="m534.67 572.14v2.87h-0.87v-2.2c0-0.31-0.13-0.6-0.34-0.8-0.2-0.21-0.49-0.34-0.8-0.34-0.63 0-1.15 0.51-1.15 1.14v2.2h-1.37v-2.2c0-0.31-0.13-0.6-0.34-0.8-0.21-0.21-0.49-0.34-0.81-0.34-0.63 0-1.14 0.51-1.14 1.14v2.2h-1.37v-2.2c0-0.31-0.13-0.6-0.34-0.8-0.21-0.21-0.49-0.34-0.81-0.34-0.63 0-1.14 0.51-1.14 1.14v2.2h-1.24v-2.2c0-0.31-0.13-0.6-0.33-0.8-0.21-0.21-0.5-0.34-0.81-0.34-0.63 0-1.14 0.51-1.14 1.14v2.2h-0.87v-2.87c0-1.86 1.52-3.37 3.37-3.37h8.12c1.86 0 3.38 1.51 3.38 3.37z"/>
				<path id="&lt;Path&gt;" class="s8" d="m522.62 572.01c0.2 0.2 0.33 0.49 0.33 0.8v2.2h-2.28v-2.2c0-0.63 0.51-1.14 1.14-1.14 0.31 0 0.6 0.13 0.81 0.34z"/>
				<path id="&lt;Path&gt;" class="s8" d="m526.14 572.01c0.21 0.2 0.34 0.49 0.34 0.8v2.2h-2.29v-2.2c0-0.63 0.51-1.14 1.14-1.14 0.32 0 0.6 0.13 0.81 0.34z"/>
				<path id="&lt;Path&gt;" class="s8" d="m529.8 572.01c0.21 0.2 0.34 0.49 0.34 0.8v2.2h-2.29v-2.2c0-0.63 0.51-1.14 1.14-1.14 0.32 0 0.6 0.13 0.81 0.34z"/>
				<path id="&lt;Path&gt;" class="s8" d="m533.8 572.81v2.2h-2.29v-2.2c0-0.63 0.52-1.14 1.15-1.14 0.31 0 0.6 0.13 0.8 0.34 0.21 0.2 0.34 0.49 0.34 0.8z"/>
			</g>
			<path id="&lt;Path&gt;" class="s14" d="m527.93 570.45h-1.4c-1.1 0-2.01-0.9-2.01-2.01 0-1.11 0.91-2.01 2.01-2.01h1.4c1.11 0 2.02 0.9 2.02 2.01 0 1.11-0.91 2.01-2.02 2.01z"/>
		</g>
		<g id="&lt;Group&gt;">
			<path id="&lt;Compound Path&gt;" fill-rule="evenodd" class="s3" d="m560.46 769.65c-4.16 0-7.52-3.37-7.52-7.53 0-4.16 3.36-7.52 7.52-7.52 4.17 0 7.53 3.36 7.53 7.52 0 4.16-3.36 7.53-7.53 7.53zm6.39-7.53c0-3.53-2.85-6.39-6.39-6.39-3.53 0-6.38 2.86-6.38 6.39 0 3.53 2.85 6.39 6.38 6.39 3.54 0 6.39-2.86 6.39-6.39z"/>
			<g id="&lt;Group&gt;">
				<path id="&lt;Path&gt;" class="s17" d="m578.68 792.49c0 10.07-8.16 18.22-18.22 18.22-8.36 0-15.4-5.63-17.54-13.31 3.15 5.45 9.03 9.11 15.78 9.11 10.06 0 18.21-8.16 18.21-18.22q-0.01-2.56-0.67-4.91c1.55 2.68 2.44 5.8 2.44 9.11z"/>
				<path id="&lt;Path&gt;" class="s8" d="m576.91 788.29c0 10.06-8.15 18.22-18.21 18.22-6.75 0-12.63-3.66-15.78-9.11q-0.67-2.35-0.67-4.91c0-10.06 8.15-18.21 18.21-18.21 6.74 0 12.63 3.66 15.78 9.1q0.66 2.35 0.67 4.91z"/>
			</g>
			<path id="&lt;Path&gt;" class="s18" d="m550.16 785.46c2.59-3.64 6.43-5.64 9.81-5.47 0.7 0.04 1.11-0.8 0.61-1.3q-0.39-0.39-0.85-0.72c-3.83-2.73-9.85-0.83-13.46 4.23-3.6 5.07-3.42 11.38 0.41 14.11q0 0.01 0.01 0.01c0.58 0.41 1.35-0.15 1.17-0.84-0.77-3-0.02-6.77 2.3-10.02z"/>
			<g id="&lt;Group&gt;">
				<path id="&lt;Path&gt;" class="s14" d="m567.9 773.02v2.87h-0.87v-2.2c0-0.31-0.13-0.6-0.34-0.8-0.2-0.21-0.49-0.34-0.8-0.34-0.63 0-1.15 0.51-1.15 1.14v2.2h-1.37v-2.2c0-0.31-0.13-0.6-0.34-0.8-0.2-0.21-0.49-0.34-0.81-0.34-0.63 0-1.14 0.51-1.14 1.14v2.2h-1.37v-2.2c0-0.31-0.13-0.6-0.34-0.8-0.21-0.21-0.49-0.34-0.81-0.34-0.63 0-1.14 0.51-1.14 1.14v2.2h-1.24v-2.2c0-0.31-0.13-0.6-0.33-0.8-0.21-0.21-0.5-0.34-0.81-0.34-0.63 0-1.14 0.51-1.14 1.14v2.2h-0.87v-2.87c0-1.86 1.52-3.37 3.37-3.37h8.12c1.86 0 3.38 1.51 3.38 3.37z"/>
				<path id="&lt;Path&gt;" class="s8" d="m555.85 772.89c0.2 0.2 0.33 0.49 0.33 0.8v2.2h-2.28v-2.2c0-0.63 0.51-1.14 1.14-1.14 0.31 0 0.6 0.13 0.81 0.34z"/>
				<path id="&lt;Path&gt;" class="s8" d="m559.37 772.89c0.21 0.2 0.34 0.49 0.34 0.8v2.2h-2.29v-2.2c0-0.63 0.51-1.14 1.14-1.14 0.32 0 0.6 0.13 0.81 0.34z"/>
				<path id="&lt;Path&gt;" class="s8" d="m563.03 772.89c0.21 0.2 0.34 0.49 0.34 0.8v2.2h-2.29v-2.2c0-0.63 0.51-1.14 1.14-1.14 0.32 0 0.61 0.13 0.81 0.34z"/>
				<path id="&lt;Path&gt;" class="s8" d="m567.03 773.69v2.2h-2.29v-2.2c0-0.63 0.52-1.14 1.15-1.14 0.31 0 0.6 0.13 0.8 0.34 0.21 0.2 0.34 0.49 0.34 0.8z"/>
			</g>
			<path id="&lt;Path&gt;" class="s14" d="m561.16 771.33h-1.4c-1.1 0-2.01-0.9-2.01-2.01 0-1.11 0.91-2.01 2.01-2.01h1.4c1.11 0 2.02 0.9 2.02 2.01 0 1.11-0.91 2.01-2.02 2.01z"/>
		</g>
	</g>
</svg>