<?xml version="1.0" encoding="utf-8"?>
<!-- Generator: Adobe Illustrator 27.5.0, SVG Export Plug-In . SVG Version: 6.00 Build 0)  -->
<svg version="1.1" id="Capa_1" xmlns="http://www.w3.org/2000/svg" xmlns:xlink="http://www.w3.org/1999/xlink" x="0px" y="0px"
	 viewBox="0 0 2122 2122" style="enable-background:new 0 0 2122 2122;" xml:space="preserve">
<path style="fill:#E8403E;" d="M271.488,1286.162c10.631,6.224,21.223,12.473,31.795,18.706
	c117.41,69.242,228.307,134.643,362.331,155.58c48.348,8.256,102.606,14.054,159.715,14.051
	c138.065-0.004,292.638-33.905,419.539-148.908c121.415-111.503,203.43-256.913,230.935-409.449
	c14.017-77.727,13.805-155.437-0.626-230.969c-15.096-79.025-45.552-154.214-90.511-223.478
	c-21.885-34.395-52.78-58.911-91.825-72.867c-0.175-0.063-0.363-0.044-0.526,0.049c-57.698,34.044-109.567,80.207-154.161,137.21
	c-42.049,53.747-75.776,114.617-100.26,180.938C978.985,547.456,867.553,421.929,731.96,362.458
	c-104.938-46.027-211.291-51.057-307.564-14.539c-45.267,17.172-87.432,43.152-125.323,77.22
	c-37.464,33.686-69.983,74.575-96.657,121.535c-15.043,26.482-28.193,54.923-39.087,84.536
	c-44.955,122.165-56.283,241.885-33.667,355.834c20.329,102.436,66.66,200.226,141.642,298.957
	C271.354,1286.066,271.417,1286.12,271.488,1286.162z"/>
<path style="fill:#F09998;" d="M505.775,395.829c-67.035,13.033-131.666,49.362-186.908,105.057
	c-95.93,96.711-145.133,229.714-128.412,347.105l0.11,0.757c1.695,11.562,10.945,17.15,19.359,17.562
	c0.349,0.017,0.697,0.024,1.05,0.024c8.395,0,17.742-4.867,20.516-16.056l0.475-1.861c13.885-53.244,30.282-109.081,64.197-155.113
	c62.258-84.499,169.003-130.08,265.6-113.457c9.52,1.639,20.582,4.568,32.295,7.669c47.403,12.543,106.392,28.149,128.331-23.116
	c17.527-40.958-0.451-96.633-27.157-124.728C636.805,378.211,543.278,388.538,505.775,395.829z"/>
<path style="fill:#F59F00;" d="M1971.62,433.234c-1.113-5.837-6.465-31.457-14.694-31.457c-8.955,0.061-13.715,25.625-14.687,31.469
	c-5.842,1.077-31.459,6.288-31.459,14.687c0,8.967,25.586,13.725,31.459,14.697c0.95,5.883,5.603,31.459,14.697,31.459
	c9.374,0,13.805-25.562,14.704-31.459c5.883-0.974,31.454-5.732,31.454-14.697C2003.093,438.959,1977.466,434.202,1971.62,433.234z"
	/>
<path style="fill:#F59F00;" d="M381.463,1878.253c0.95,5.883,5.603,31.459,14.697,31.459c9.374,0,13.805-25.561,14.704-31.459
	c5.883-0.974,31.454-5.732,31.454-14.697c0-8.975-25.627-13.732-31.474-14.699c-1.113-5.837-6.465-31.457-14.694-31.457
	c-8.955,0.061-13.715,25.625-14.687,31.469c-5.841,1.077-31.459,6.288-31.459,14.687
	C350.004,1872.523,375.59,1877.281,381.463,1878.253z"/>
<path style="fill:#F59F00;" d="M261.471,288.596c-1.113-5.842-6.463-31.457-14.694-31.457c-8.953,0.063-13.715,25.62-14.687,31.469
	c-7.725,1.425-31.459,6.482-31.459,14.69c0,8.989,25.583,13.727,31.459,14.694c0.95,5.883,5.603,31.459,14.697,31.459
	c9.371,0,13.805-25.564,14.704-31.459c5.883-0.97,31.454-5.708,31.454-14.694C292.945,294.345,267.315,289.568,261.471,288.596z"/>
<path style="fill:#F59F00;" d="M1905.257,276.146c0-12.536-38.802-19.313-44.192-20.195l-0.166-0.166
	c-1.02-5.359-8.796-44.175-20.187-44.175c-12.558,0.085-19.303,38.802-20.181,44.188l-0.166,0.166
	c-5.364,0.986-44.182,8.531-44.182,20.183c0,12.577,38.792,19.313,44.192,20.19l0.154,0.153c0.852,5.396,7.43,44.192,20.192,44.192
	c13.14,0,19.388-38.784,20.198-44.197l0.148-0.151C1866.468,295.456,1905.257,288.716,1905.257,276.146z"/>
<path style="fill:#DC2A28;" d="M1937.084,710.557c-1.104-4.392-2.251-8.775-3.406-13.028c-5.927-21.851-13.067-44.165-21.22-66.319
	c-10.901-29.625-24.051-58.065-39.087-84.536c-46.999-82.741-112.131-146.402-188.357-184.097
	c-79.652-39.383-169.372-48.96-259.464-27.683c-27.147,6.411-54.643,15.685-81.724,27.564c-4.351,1.907-8.814,3.949-13.264,6.066
	c-3.608,1.717-7.423,3.606-11.664,5.771l-0.597,0.295c-0.231,0.112-0.465,0.227-0.694,0.344
	c-8.411,4.319-16.889,8.994-25.301,13.951c-0.204,0.126-0.319,0.358-0.295,0.597c0.027,0.238,0.185,0.441,0.411,0.521
	c38.777,13.861,69.457,38.207,91.192,72.36c0,0.003,0.002,0.005,0.002,0.005c175.783,270.803,118.38,625.395-139.588,862.301
	c-179.016,162.234-413.237,162.718-578.211,134.551c-133.798-20.904-244.597-86.246-361.9-155.425
	c-10.572-6.234-21.167-12.482-31.791-18.701c-0.246-0.166-0.589-0.132-0.801,0.095c-0.207,0.222-0.224,0.563-0.039,0.804
	l0.409,0.526c5.045,6.633,10.275,13.34,15.547,19.939l0.436,0.543c10.782,13.469,22.246,27.108,34.063,40.536l0.127,0.144
	c5.654,6.421,11.574,12.999,17.588,19.547l0.789,0.855c5.815,6.317,11.749,12.638,17.681,18.836l0.821,0.86
	c6.064,6.324,12.268,12.677,18.548,18.984l0.212,0.212c12.604,12.658,25.851,25.489,39.403,38.163
	c6.482,6.063,13.223,12.268,20.036,18.436l0.799,0.723c6.419,5.81,13.108,11.774,19.885,17.729l0.877,0.767
	c6.816,5.983,13.749,11.983,20.609,17.837l0.216,0.183c13.862,11.824,28.402,23.895,43.235,35.895
	c7.057,5.71,14.363,11.549,21.71,17.354l0.836,0.658c6.945,5.481,14.161,11.116,21.449,16.746l0.799,0.619
	c7.303,5.637,14.733,11.313,22.073,16.865l0.168,0.127c21.515,16.265,44.504,33.162,68.321,50.217l0.814,0.58
	c7.403,5.298,14.818,10.565,22.246,15.803l0.877,0.619c7.554,5.325,15.118,10.621,22.699,15.891l0.216,0.151
	c14.926,10.373,30.573,21.119,46.585,31.988c7.684,5.213,15.362,10.399,23.04,15.564l0.548,0.365
	c7.527,5.062,15.05,10.095,22.562,15.104l0.794,0.528c40.309,26.865,80.506,53.123,119.381,78.514l18.726,12.237
	c6.522,4.261,13.008,8.504,19.467,12.733l1.673,1.094c24.168,15.827,52.18,23.776,80.236,23.773c26.28,0,52.599-6.974,75.808-20.979
	c0.497-0.297,0.994-0.589,1.493-0.882c1.062-0.624,2.124-1.247,3.162-1.927c13.276-8.694,26.697-17.459,40.227-26.299
	c18.828-12.298,37.878-24.741,57.069-37.337l10.921-7.172c43.656-28.709,101.186-66.865,159.033-107.425
	c2.972-2.085,5.944-4.175,8.911-6.268c38.904-27.425,73.905-53.094,107.006-78.473c2.049-1.571,4.095-3.145,6.139-4.721
	c4.85-3.739,9.681-7.494,14.5-11.259c22.424-17.544,44.085-35.106,64.387-52.197c5.374-4.524,10.758-9.106,16.005-13.617
	c4.2-3.611,8.383-7.235,12.541-10.872c5.554-4.858,11.111-9.776,16.514-14.616c7.018-6.288,13.912-12.563,20.494-18.653
	c5.727-5.296,11.481-10.694,17.106-16.049c9.342-8.889,18.536-17.854,27.323-26.645c30.112-30.124,57.873-60.582,82.514-90.528
	c15.544-18.894,30.236-38.051,43.668-56.938c13.896-19.537,26.877-39.391,38.585-59.011c11.316-18.962,21.829-38.402,31.255-57.778
	c2.567-5.284,4.653-9.674,6.563-13.817c3.218-6.997,6.331-14.068,9.257-21.018c2.964-7.042,5.837-14.202,8.533-21.274
	c2.724-7.142,5.345-14.387,7.786-21.535c3.71-10.85,7.152-21.883,10.229-32.794c3.12-11.048,5.956-22.283,8.431-33.398
	c0.848-3.82,1.654-7.61,2.395-11.267c1.518-7.476,2.916-15.128,4.158-22.743c1.866-11.456,3.413-23.111,4.604-34.635
	c0.804-7.813,1.459-15.701,1.949-23.443c2.531-39.858,1.033-80.757-4.453-121.566
	C1948.514,761.887,1943.529,736.135,1937.084,710.557z"/>
</svg>
